SplineFontDB: 3.0
FontName: BeowulfOT
FullName: BeowulfOT
FamilyName: BeowulfOT
Weight: Medium
Copyright: Copyright (c) 1993-2015 by Peter S. Baker
Version: 001.000
ItalicAngle: 0
UnderlinePosition: -133
UnderlineWidth: 20
Ascent: 700
Descent: 300
InvalidEm: 0
sfntRevision: 0x00010000
LayerCount: 2
Layer: 0 0 "Back" 1
Layer: 1 0 "Fore" 0
XUID: [1021 53 1776086537 9876755]
FSType: 0
OS2Version: 3
OS2_WeightWidthSlopeOnly: 0
OS2_UseTypoMetrics: 1
CreationTime: 822255090
ModificationTime: 1530526634
PfmFamily: 17
TTFWeight: 500
TTFWidth: 5
LineGap: 90
VLineGap: 0
Panose: 2 0 6 3 0 0 0 0 0 0
OS2TypoAscent: 700
OS2TypoAOffset: 0
OS2TypoDescent: -300
OS2TypoDOffset: 0
OS2TypoLinegap: 90
OS2WinAscent: 868
OS2WinAOffset: 0
OS2WinDescent: 299
OS2WinDOffset: 0
HheadAscent: 868
HheadAOffset: 0
HheadDescent: -299
HheadDOffset: 0
OS2SubXSize: 650
OS2SubYSize: 700
OS2SubXOff: 0
OS2SubYOff: 140
OS2SupXSize: 650
OS2SupYSize: 700
OS2SupXOff: 0
OS2SupYOff: 480
OS2StrikeYSize: 49
OS2StrikeYPos: 258
OS2CapHeight: 691
OS2XHeight: 278
OS2Vendor: 'PfEd'
OS2CodePages: 00000001.00000000
OS2UnicodeRanges: a400006f.10000000.00000000.00000000
Lookup: 5 0 0 "'ccmp' Glyph Composition/Decomposition lookup 0" { "'ccmp' Glyph Composition/Decomposition lookup 0 subtable"  } ['ccmp' ('DFLT' <'dflt' > 'geor' <'dflt' > 'latn' <'dflt' > ) ]
Lookup: 2 0 0 "'ccmp' Glyph Composition/Decomposition lookup 1" { "'ccmp' Glyph Composition/Decomposition lookup 1 subtable"  } ['ccmp' ('DFLT' <'dflt' > 'geor' <'dflt' > 'latn' <'dflt' > ) ]
Lookup: 1 0 0 "'hist' Historical Forms lookup 4" { "'hist' Historical Forms lookup 4 subtable"  } ['hist' ('DFLT' <'dflt' > 'geor' <'dflt' > 'grek' <'dflt' > 'latn' <'dflt' > ) ]
Lookup: 1 0 0 "'ss10' Style Set 10 lookup 5" { "'ss10' Style Set 10 lookup 5 subtable"  } ['ss10' ('DFLT' <'dflt' > 'geor' <'dflt' > 'latn' <'dflt' > ) ]

StartChar: .notdef
Encoding: 65536 -1 0
Width: 499
Flags: MW
LayerCount: 2
Fore
SplineSet
62.98828125 0 m 1
 62.98828125 727.048828125 l 1
 437.987304688 727.048828125 l 1
 437.987304688 0 l 1
 62.98828125 0 l 1
125 62.98828125 m 1
 374.999023438 62.98828125 l 1
 374.999023438 665.037109375 l 1
 125 665.037109375 l 1
 125 62.98828125 l 1
EndSplineSet
Validated: 1
EndChar

StartChar: uni0000
Encoding: 0 -1 1
AltUni2: 000000.ffffffff.0
Width: 499
GlyphClass: 2
Flags: MW
LayerCount: 2
Fore
SplineSet
62.98828125 0 m 1
 62.98828125 727.048828125 l 1
 437.987304688 727.048828125 l 1
 437.987304688 0 l 1
 62.98828125 0 l 1
125 62.98828125 m 1
 374.999023438 62.98828125 l 1
 374.999023438 665.037109375 l 1
 125 665.037109375 l 1
 125 62.98828125 l 1
EndSplineSet
Validated: 1
EndChar

StartChar: exclam
Encoding: 33 33 3
Width: 194
GlyphClass: 2
Flags: MW
LayerCount: 2
Fore
SplineSet
147 507 m 0
 147 485 142 365 132 264 c 0
 127 213 119 174 102 128 c 0
 99 124 85 127 83 131 c 0
 84 155 84 174 84 191 c 0
 84 237 82 264 81 322 c 0
 79 404 62 447 40 491 c 1
 58 543 l 2
 63 557 74 562 88 562 c 0
 133 562 147 544 147 507 c 0
139 48 m 0
 139 31 131 -7 105 -7 c 0
 58 -7 43 37 43 48 c 0
 43 62 67 88 88 88 c 0
 111 88 139 65 139 48 c 0
EndSplineSet
Validated: 1
EndChar

StartChar: quotedbl
Encoding: 34 34 4
Width: 366
GlyphClass: 2
Flags: MW
LayerCount: 2
Fore
SplineSet
318 636 m 1
 306 565 300 564 291 519 c 0
 282 469 270 411 270 391 c 0
 268.734375 384.669921875 258.251953125 380.744140625 249.20703125 380.744140625 c 0
 243.962890625 380.744140625 239.202148438 382.064453125 237 385 c 0
 237 401 233 419 231 441 c 0
 225 506 223 541 223 608 c 1
 228 623 247 661 276 661 c 0
 297 661 314 649 318 636 c 1
158 636 m 1
 146 565 140 564 131 519 c 0
 122 469 110 411 110 391 c 0
 108.734375 384.669921875 98.2529296875 380.744140625 89.2080078125 380.744140625 c 0
 83.9638671875 380.744140625 79.2021484375 382.064453125 77 385 c 0
 77 401 73 419 71 441 c 0
 65 506 63 541 63 608 c 1
 68 623 87 661 116 661 c 0
 137 661 154 649 158 636 c 1
EndSplineSet
Validated: 1
EndChar

StartChar: numbersign
Encoding: 35 35 5
Width: 496
GlyphClass: 2
Flags: MW
LayerCount: 2
Fore
SplineSet
8 150 m 0
 8 156 17 160 23 163 c 2
 59 180 l 2
 66 183 74 184 83 184 c 0
 93 184 103 183 112 183 c 1
 117 204 123 224 129 242 c 2
 162 352 l 1
 134 354 97 356 70 359 c 0
 67 360 65 363 65 368 c 0
 65 374 73 377 80 380 c 2
 116 397 l 2
 124 400 134 401 144 401 c 0
 155 401 166 400 176 399 c 1
 206 497 l 2
 209 509 214 516 221 519 c 2
 253 534 l 2
 258 537 263 538 266 538 c 0
 270 538 271 535 269 529 c 2
 229 396 l 1
 238 396 247 395 256 395 c 0
 284 395 313 397 339 397 c 1
 370 499 l 2
 373 511 378 518 385 521 c 2
 417 536 l 2
 422 539 427 540 430 540 c 0
 434 540 435 537 433 530 c 2
 393 397 l 1
 422 397 452 393 483 393 c 0
 488 393 490 392 490 389 c 0
 490 383 486 378 477 374 c 2
 433 354 l 2
 428 351 419 350 408 350 c 0
 392 350 392 350 379 350 c 1
 362 295 l 2
 351 258 340 219 331 179 c 1
 363 179 394 176 427 176 c 0
 432 176 434 175 433 172 c 0
 433 166 429 161 420 157 c 2
 376 136 l 2
 371 133 362 132 351 132 c 0
 340 132 329 132 320 133 c 1
 310 90 301 47 292 2 c 0
 290 -7 286 -13 279 -17 c 2
 248 -31 l 2
 243 -33 240 -34 237 -34 c 0
 233 -34 231 -31 232 -26 c 0
 243 33 254 87 265 135 c 1
 231 135 190 134 156 134 c 1
 146 91 137 46 128 0 c 0
 126 -9 122 -15 115 -18 c 2
 84 -33 l 2
 79 -35 76 -36 73 -36 c 0
 69 -36 67 -33 68 -27 c 0
 79 34 90 88 101 135 c 1
 75 137 38 139 13 142 c 0
 10 143 8 145 8 150 c 0
167 179 m 1
 181 178 195 178 209 178 c 0
 232 178 255 180 276 180 c 1
 282 203 288 224 293 244 c 2
 326 353 l 1
 311 353 311 353 291 353 c 0
 267 353 239 352 216 352 c 1
 198 293 l 2
 187 256 176 218 167 179 c 1
EndSplineSet
Validated: 1
EndChar

StartChar: dollar
Encoding: 36 36 6
Width: 421
GlyphClass: 2
Flags: MW
LayerCount: 2
Fore
SplineSet
52 50 m 0
 52 53 53 57 55 61 c 0
 56 63 71 78 100 106 c 0
 105 111 109 113 110 114 c 256
 112 114 120 105 132 86 c 0
 154 53 161 44 205 41 c 1
 197 232 l 1
 198 262 l 1
 137 290 75 317 75 406 c 256
 75 458 104 491 136 521 c 0
 157 540 175 555 190 565 c 1
 188 609 l 2
 188 616 190 620 194 621 c 2
 215 631 l 2
 217 632 219 632 220 633 c 0
 223 633 224 631 224 627 c 2
 226 582 l 1
 245 589 266 592 287 592 c 0
 302 592 337 561 337 546 c 0
 337 519 319 494 292 494 c 0
 275 494 261 499 252 510 c 0
 244 521 236 526 229 526 c 1
 235 376 l 1
 235 321 l 1
 275 306 337 265 360 234 c 0
 371 219 377 200 377 179 c 256
 377 122 350 88 314 56 c 0
 292 36 268 21 243 10 c 1
 244 -30 l 2
 244 -35 243 -39 240 -40 c 2
 218 -50 l 2
 216 -51 214 -51 213 -51 c 0
 210 -51 209 -49 208 -46 c 2
 207 -2 l 1
 194 -5 180 -7 167 -7 c 256
 108 -7 87 6 57 37 c 0
 54 40 52 45 52 50 c 0
138 446 m 256
 138 421 142 402 149 390 c 0
 156 378 173 362 199 344 c 1
 199 367 l 1
 192 521 l 1
 181 517 170 509 157 496 c 0
 144 483 138 466 138 446 c 256
234 241 m 1
 242 42 l 1
 274 44 284 51 298 76 c 0
 306 90 310 105 310 122 c 256
 310 178 271 218 234 242 c 1
 234 241 l 1
EndSplineSet
Validated: 1
EndChar

StartChar: percent
Encoding: 37 37 7
Width: 890
GlyphClass: 2
Flags: MW
LayerCount: 2
Fore
SplineSet
205 -19 m 2
 600 637 l 2
 607 648 615 656 625 660 c 2
 660 677 l 2
 670 682 677 684 682 684 c 0
 687 684 687 680 682 671 c 2
 288 15 l 2
 281 4 273 -4 262 -9 c 2
 226 -26 l 2
 218 -29 212 -31 207 -30 c 0
 201 -30 200 -26 205 -19 c 2
55 435 m 256
 55 513 73 536 112 578 c 0
 141 609 194 638 250 638 c 0
 275 638 292 634 302 625 c 0
 317 612 345 565 350 544 c 0
 352 535 354 519 354 495 c 256
 354 432 326 386 292 355 c 8
 266 331 224 308 183 308 c 256
 148 308 123 313 99 336 c 0
 82 352 70 366 64 378 c 0
 58 390 55 409 55 435 c 256
116 476 m 256
 116 416 139 370 182 354 c 0
 203 346 216 343 222 343 c 256
 236 343 258 351 266 358 c 0
 279 370 299 415 299 442 c 256
 299 479 280 539 266 562 c 0
 254 581 229 600 205 600 c 256
 181 600 175 596 154 580 c 0
 122 556 116 536 116 476 c 256
543 155 m 256
 543 234 560 255 600 298 c 0
 629 329 682 358 738 358 c 0
 763 358 780 354 790 346 c 0
 805 333 834 287 839 265 c 0
 841 256 842 239 842 215 c 256
 842 152 814 107 780 76 c 8
 754 52 711 28 671 28 c 256
 636 28 612 33 588 56 c 0
 572 72 560 86 553 98 c 0
 546 110 543 129 543 155 c 256
605 196 m 256
 605 135 627 91 670 75 c 0
 691 67 704 63 710 63 c 256
 724 63 748 71 755 78 c 0
 768 90 787 136 787 163 c 256
 787 201 769 259 754 282 c 0
 745 296 735 306 722 312 c 0
 709 318 699 320 693 320 c 256
 669 320 663 316 642 300 c 0
 610 276 605 256 605 196 c 256
EndSplineSet
Validated: 1
EndChar

StartChar: ampersand
Encoding: 38 38 8
Width: 590
VWidth: 0
GlyphClass: 2
Flags: MW
LayerCount: 2
Fore
SplineSet
21 142 m 0
 21 171 26 196 37 218 c 0
 59 263 109 316 149 346 c 0
 171 362 188 371 200 371 c 0
 209 371 217 377 224 388 c 0
 231 399 242 413 259 428 c 0
 285 453 305 465 320 465 c 0
 337 465 347 452 347 434 c 0
 347 407 331 380 299 353 c 0
 296 350 294 347 294 344 c 0
 294 336 303 327 307 323 c 2
 393 237 l 1
 409 256 l 2
 439 292 466 335 483 378 c 0
 490 395 493 406 493 411 c 0
 493 422 491 422 483 426 c 0
 473 430 446 433 446 446 c 0
 446 450 454 459 469 474 c 0
 484 489 499 496 514 496 c 0
 524 496 593 483 593 472 c 256
 593 462 564 447 560 442 c 0
 543 421 520 382 502 352 c 0
 471 301 477 300 433 256 c 2
 402 224 l 1
 417 190 l 2
 433 154 452 129 470 104 c 0
 485 84 515 61 534 47 c 0
 543 40 551 37 562 37 c 0
 569 37 578 38 590 41 c 0
 607 45 616 46 616 45 c 0
 616 40 610 35 606 31 c 0
 589 15 565 0 540 -11 c 0
 528 -16 515 -19 504 -19 c 256
 491 -19 480 -14 469 -6 c 0
 450 9 406 54 393 73 c 0
 386 84 378 89 370 89 c 0
 363 89 353 81 340 66 c 0
 321 44 257 2 226 -4 c 0
 214 -6 196 -7 171 -7 c 0
 79 -7 21 48 21 142 c 0
228 377 m 0
 228 355 245 350 268 350 c 0
 282 350 293 371 293 386 c 0
 293 399 287 420 274 420 c 0
 262 420 228 389 228 377 c 0
86 195 m 256
 86 112 130 66 192 48 c 0
 209 43 225 40 241 40 c 256
 297 40 309 68 324 110 c 0
 329 125 332 138 332 148 c 0
 332 174 303 211 246 259 c 0
 205 293 175 310 154 311 c 256
 134 311 117 288 108 274 c 0
 91 250 86 240 86 195 c 256
EndSplineSet
Validated: 1
Substitution2: "'hist' Historical Forms lookup 4 subtable" uni204A
EndChar

StartChar: quotesingle
Encoding: 39 39 9
Width: 209
GlyphClass: 2
Flags: MW
LayerCount: 2
Fore
SplineSet
158 636 m 1
 146 565 140 564 131 519 c 0
 122 469 110 411 110 391 c 0
 108.734375 384.669921875 98.2529296875 380.744140625 89.2080078125 380.744140625 c 0
 83.9638671875 380.744140625 79.2021484375 382.064453125 77 385 c 0
 77 401 73 419 71 441 c 0
 65 506 63 541 63 608 c 1
 68 623 87 661 116 661 c 0
 137 661 154 649 158 636 c 1
EndSplineSet
Validated: 1
EndChar

StartChar: parenleft
Encoding: 40 40 10
Width: 260
GlyphClass: 2
Flags: MW
LayerCount: 2
Fore
SplineSet
221 742 m 0
 179 687 151.000976562 610.000976562 130.000976562 563.000976562 c 0
 102.000976562 501.000976562 81.0009765625 421.000976562 81.0009765625 326.000976562 c 0
 81.0009765625 217.000976562 102.000976562 75.0009765625 205.000976562 -25.9990234375 c 1
 205.000976562 -40.9990234375 187.000976562 -68.9990234375 174.000976562 -68.9990234375 c 1
 100.000976562 5.0009765625 62.0009765625 54.0009765625 30.0009765625 154.000976562 c 0
 10.0009765625 218.000976562 8.0009765625 259.000976562 8.0009765625 326.000976562 c 0
 8.0009765625 445.000976562 46.0009765625 509.000976562 74.0009765625 571.000976562 c 0
 95.0009765625 618.000976562 169.000976562 722.000976562 209.000976562 753.000976562 c 0
 209.963867188 753.4140625 210.889648438 753.598632812 211.76953125 753.598632812 c 0
 217.282226562 753.598632812 221 746.3125 221 742 c 0
EndSplineSet
Validated: 1
EndChar

StartChar: parenright
Encoding: 41 41 11
Width: 260
GlyphClass: 2
Flags: MW
LayerCount: 2
Fore
SplineSet
242 359 m 0
 242 240 204.000976562 176.000976562 176.000976562 114.000976562 c 0
 155.000976562 67.0009765625 81.0009765625 -36.9990234375 41.0009765625 -67.9990234375 c 0
 40.037109375 -68.412109375 39.111328125 -68.59765625 38.2314453125 -68.59765625 c 0
 32.71875 -68.59765625 29 -61.3115234375 29 -57 c 0
 71 -2 99 75 120 122 c 0
 148 184 169 264 169 359 c 0
 169 468 148 610 45 711 c 1
 45 726 63 754 76 754 c 1
 150 680 188 631 220 531 c 0
 240 467 242 426 242 359 c 0
EndSplineSet
Validated: 1
EndChar

StartChar: asterisk
Encoding: 42 42 12
Width: 353
VWidth: 0
GlyphClass: 2
Flags: MW
LayerCount: 2
Fore
SplineSet
26 428 m 0
 26 445 64 459 140 469 c 1
 117 500 101 520 92 528 c 0
 83 536 78 543 78 552 c 2
 78 566 l 1
 92 560 l 2
 103 555 114 547 125 536 c 0
 136 525 149 509 166 488 c 1
 182 525 192 549 194 561 c 0
 196 573 201 581 209 586 c 2
 220 593 l 1
 223 578 l 2
 224 575 224 570 223 563 c 0
 223 550 214 521 196 475 c 1
 235 479 259 483 268 486 c 0
 277 489 284 491 288 491 c 0
 292 491 296 490 301 487 c 2
 312 481 l 1
 301 471 l 1
 276 451 246 450 202 443 c 1
 236 398 l 2
 257 369 268 352 268 345 c 0
 268 343 265 342 260 342 c 0
 243 342 215 368 175 421 c 1
 155 372 l 2
 140 336 129 318 124 318 c 0
 123 318 123 318 123 319 c 0
 118 322 116 330 116 344 c 0
 116 358 124 389 143 434 c 1
 91 427 59 423 46 423 c 0
 33 423 26 425 26 428 c 0
EndSplineSet
Validated: 1
EndChar

StartChar: plus
Encoding: 43 43 13
Width: 500
GlyphClass: 2
Flags: MW
LayerCount: 2
Fore
SplineSet
43 199 m 1
 109 230 l 1
 213 227 l 1
 213 263 l 1
 214 363 l 1
 281 394 l 1
 287 381 l 1
 286 281 l 1
 286 228 l 1
 386 229 l 1
 448 229 l 1
 454 215 l 1
 387 184 l 1
 326 185 l 1
 286 185 l 1
 286 177 l 1
 284 31 l 1
 217 -0 l 1
 211 13 l 1
 214 159 l 1
 214 184 l 1
 163 183 l 1
 49 186 l 1
 43 199 l 1
EndSplineSet
Validated: 1
EndChar

StartChar: comma
Encoding: 44 44 14
Width: 214
GlyphClass: 2
Flags: MW
LayerCount: 2
Fore
SplineSet
183 56 m 0
 183 -11 104 -119 19 -186 c 0
 18.4755859375 -186.209960938 17.8408203125 -186.309570312 17.12109375 -186.309570312 c 0
 10.984375 -186.309570312 -1.314453125 -179.0546875 -4 -171 c 1
 33 -138 104 -50 112 -1 c 1
 81 13 71 46 71 57 c 0
 74 69 109 99 124 103 c 1
 150 103 183 69 183 56 c 0
EndSplineSet
Validated: 1
EndChar

StartChar: hyphen
Encoding: 45 45 15
Width: 317
GlyphClass: 2
Flags: MW
LayerCount: 2
Fore
SplineSet
282 223 m 1
 259 222 237 213 208 202 c 0
 134 174 65 142 20 114 c 1
 12 129 l 1
 44 152 118 189 177 213 c 0
 208 226 247 243 268 254 c 1
 282 223 l 1
EndSplineSet
Validated: 1
EndChar

StartChar: period
Encoding: 46 46 16
Width: 194
GlyphClass: 2
Flags: MW
LayerCount: 2
Fore
SplineSet
163 56 m 0
 163 36 154 -8 124 -8 c 0
 68 -8 51 43 51 57 c 0
 51 73 79 103 104 103 c 0
 130 103 163 76 163 56 c 0
EndSplineSet
Validated: 1
EndChar

StartChar: slash
Encoding: 47 47 17
Width: 346
GlyphClass: 2
Flags: MW
LayerCount: 2
Fore
SplineSet
351 704 m 1
 293 576 258 502 211 368 c 0
 166 241 132 196 81 65 c 1
 1 2 l 1
 43 134 82 180 127 303 c 0
 176 437 209 511 267 639 c 1
 351 704 l 1
EndSplineSet
Validated: 1
EndChar

StartChar: zero
Encoding: 48 48 18
Width: 342
VWidth: 0
GlyphClass: 2
Flags: MW
LayerCount: 2
Fore
SplineSet
31.4072265625 111.759765625 m 256
 31.4072265625 184.275390625 47.982421875 205.65625 84.431640625 244.931640625 c 0
 111.096679688 273.666015625 160.96875 300.200195312 212.505859375 300.200195312 c 0
 236.162109375 300.200195312 252.477539062 296.255859375 261.451171875 288.372070312 c 0
 275.077148438 276.395507812 301.346679688 233.43359375 306.11328125 213.728515625 c 0
 308.15234375 205.299804688 309.172851562 189.935546875 309.172851562 167.638671875 c 256
 309.172851562 109.1875 282.666992188 66.8134765625 251.25390625 37.931640625 c 8
 227.145507812 15.7685546875 187.978515625 -6.1181640625 150.099609375 -6.1181640625 c 256
 117.676757812 -6.1181640625 94.7236328125 -0.943359375 72.6025390625 20.1904296875 c 0
 57.375 34.73828125 46.7021484375 47.654296875 40.583984375 58.939453125 c 0
 34.466796875 70.22265625 31.4072265625 87.830078125 31.4072265625 111.759765625 c 256
92.1806640625 150.099609375 m 256
 92.1806640625 93.509765625 113.05859375 56.5546875 148.712890625 40.9912109375 c 0
 165.84375 33.513671875 178.080078125 29.775390625 185.422851562 29.775390625 c 256
 201.071289062 29.775390625 221.4453125 42.505859375 230.575195312 53.0244140625 c 0
 242.232421875 66.4580078125 253.701171875 93.3232421875 253.701171875 118.693359375 c 256
 253.701171875 152.438476562 236.12109375 212.344726562 222.865234375 231.674804688 c 0
 211.3984375 248.400390625 192.676757812 261.04296875 171.10546875 261.04296875 c 256
 140.267578125 261.04296875 117.321289062 234.8203125 103.927734375 209.2421875 c 0
 96.095703125 194.286132812 92.1806640625 174.572265625 92.1806640625 150.099609375 c 256
EndSplineSet
Validated: 1
EndChar

StartChar: one
Encoding: 49 49 19
Width: 207
VWidth: 0
GlyphClass: 2
Flags: MW
LayerCount: 2
Fore
SplineSet
19.578125 243.096679688 m 0
 19.578125 248.903320312 23.068359375 254.326171875 28.373046875 256.712890625 c 0
 51.09375 266.943359375 99.8291015625 292.99609375 128.555664062 302.115234375 c 0
 137.768554688 305.0390625 146.674804688 306.568359375 155.245117188 306.568359375 c 0
 161.125976562 306.568359375 166.793945312 306.272460938 171.518554688 302.220703125 c 0
 179.866210938 295.063476562 177.912109375 284.733398438 179.500976562 271.806640625 c 0
 181.427734375 256.111328125 182.415039062 243.497070312 182.415039062 233.71484375 c 0
 182.415039062 224.728515625 181.481445312 214.552734375 179.665039062 203.094726562 c 0
 178 192.598632812 176.346679688 172.520507812 174.858398438 143.5703125 c 0
 173.366210938 114.544921875 171.805664062 76.662109375 170.173828125 29.919921875 c 2
 168.8046875 -14.365234375 l 1
 139.71875 -29.146484375 l 0
 127.705078125 -35.2939453125 119.169921875 -38.9990234375 111.600585938 -38.9990234375 c 0
 95.697265625 -38.9990234375 94.69921875 -20.771484375 94.69921875 -11.2001953125 c 0
 94.69921875 6.4736328125 99.4208984375 29.009765625 100.821289062 39.4306640625 c 1
 103.137695312 55.9111328125 104.828125 97.310546875 105.641601562 162.458007812 c 0
 106.45703125 215.829101562 l 1
 106.45703125 220.946289062 103.694335938 225.990234375 93.4072265625 231.013671875 c 0
 82.263671875 236.455078125 73.6884765625 238.767578125 68.3662109375 238.767578125 c 0
 62.203125 238.767578125 54.34375 237.357421875 44.9638671875 234.271484375 c 0
 39.9873046875 232.635742188 35.896484375 231.69921875 32.0009765625 231.69921875 c 0
 26.8359375 231.69921875 19.578125 235.497070312 19.578125 243.096679688 c 0
EndSplineSet
Validated: 1
EndChar

StartChar: two
Encoding: 50 50 20
Width: 351
VWidth: 0
GlyphClass: 2
Flags: MW
LayerCount: 2
Fore
SplineSet
18.763671875 13.8681640625 m 0
 18.763671875 25.0751953125 31.0830078125 25.033203125 34.384765625 25.7509765625 c 1
 62.056640625 32.2080078125 78.201171875 44.9892578125 102.344726562 55.2841796875 c 0
 110.565429688 58.7900390625 117.952148438 63.8857421875 124.916992188 70.3349609375 c 0
 142.2578125 86.392578125 152.994140625 111.084960938 159.7578125 137.5703125 c 0
 165.247070312 159.064453125 165.825195312 166.791015625 165.825195312 190.887695312 c 0
 165.825195312 211.583007812 151.196289062 228.266601562 138.029296875 241.514648438 c 0
 129.475585938 250.12109375 104.56640625 267.318359375 94.8779296875 267.318359375 c 0
 78.60546875 267.318359375 78.5458984375 264.424804688 58.5927734375 252.5390625 c 0
 50.099609375 247.478515625 44.296875 244.076171875 37.865234375 243.9765625 c 0
 33.130859375 243.903320312 27.328125 248.1953125 27.328125 254.109375 c 0
 27.328125 259.916992188 30.81640625 265.337890625 36.125 267.727539062 c 0
 57.2958984375 277.251953125 116.743164062 310.646484375 159.590820312 310.646484375 c 0
 171.161132812 310.646484375 182.81640625 304.375 196.5625 294.576171875 c 0
 214.528320312 281.76953125 253.071289062 253.526367188 253.071289062 222.703125 c 0
 253.071289062 170.720703125 241.177734375 146.997070312 218.4375 113.578125 c 0
 202.048828125 89.4931640625 171.408203125 66.6640625 150.0546875 55.439453125 c 1
 165.516601562 53.0966796875 179.658203125 49.24609375 196.817382812 43.09375 c 0
 219.068359375 35.115234375 239.853515625 31.25 257.307617188 31.25 c 0
 294.349609375 31.25 314.556640625 36.5986328125 318.823242188 41.0126953125 c 1
 320.859375 43.1689453125 323.353515625 46.130859375 328.419921875 46.5283203125 c 0
 339.563476562 47.400390625 339.541015625 34.8955078125 339.541015625 32.6298828125 c 0
 339.541015625 24.5283203125 335.584960938 17.4833984375 329.041015625 12.39453125 c 1
 319.123046875 5.025390625 305.505859375 -4.2451171875 287.5625 -15.888671875 c 0
 268.442382812 -28.294921875 247.939453125 -34.51171875 221.732421875 -34.51171875 c 1
 171.692382812 -34.51171875 151.529296875 -34.24609375 115.482421875 -17.46484375 c 0
 101.34375 -9.998046875 87.1357421875 -6.369140625 72.4453125 -6.369140625 c 0
 67.822265625 -6.369140625 61.888671875 -7.1845703125 55.7216796875 -7.1845703125 c 0
 47.921875 -7.1845703125 18.763671875 -4.7763671875 18.763671875 13.8681640625 c 0
EndSplineSet
Validated: 1
EndChar

StartChar: three
Encoding: 51 51 21
Width: 260
VWidth: 0
GlyphClass: 2
Flags: MW
LayerCount: 2
Fore
SplineSet
6.9345703125 258.595703125 m 0
 6.9345703125 274.297851562 27.048828125 276.97265625 33.298828125 280.189453125 c 0
 47.73828125 287.62109375 97.1376953125 310.239257812 121.389648438 310.239257812 c 0
 150.032226562 310.239257812 178.166015625 286.541015625 192.791015625 271.51953125 c 0
 203.724609375 260.291015625 210.150390625 248.017578125 210.150390625 234.939453125 c 0
 210.150390625 189.591796875 197.150390625 167.184570312 178.431640625 138.94921875 c 0
 171.8828125 129.0703125 164.243164062 120.416015625 155.755859375 112.931640625 c 1
 189.705078125 107.912109375 213.54296875 83.0185546875 224.473632812 59.9130859375 c 0
 230.943359375 46.240234375 234.215820312 31.75 234.215820312 16.72265625 c 0
 234.215820312 -26.091796875 208.046875 -78.421875 185.1640625 -104.953125 c 0
 146.88671875 -149.323242188 105.232421875 -175.473632812 36.095703125 -185.749023438 c 0
 34.2041015625 -186.030273438 l 1
 32.388671875 -185.424804688 l 0
 23.923828125 -182.6015625 21.5341796875 -171.438476562 28.5751953125 -165.572265625 c 0
 29.4365234375 -164.853515625 l 1
 30.462890625 -164.400390625 l 0
 76.7490234375 -143.947265625 89.384765625 -137.76953125 118.134765625 -103.741210938 c 0
 138.677734375 -79.42578125 155.403320312 -34.533203125 155.403320312 7.7490234375 c 0
 155.403320312 30.021484375 147.16796875 39.0537109375 131.731445312 51.2294921875 c 0
 124.02734375 57.306640625 112.185546875 60.931640625 95.2861328125 60.931640625 c 0
 89.76953125 60.931640625 75.458984375 58.6259765625 54.236328125 53.7900390625 c 0
 52.734375 53.447265625 l 1
 51.2119140625 53.6875 l 0
 42.216796875 55.107421875 36.9013671875 66.853515625 45.4765625 73.5908203125 c 0
 46.060546875 74.048828125 l 1
 46.71875 74.392578125 l 0
 67.3134765625 85.1357421875 90.71484375 94.287109375 103.173828125 108.3046875 c 0
 113.336914062 119.737304688 123.206054688 145.045898438 128.307617188 165.682617188 c 0
 131.09765625 176.971679688 132.560546875 190.55859375 132.560546875 206.387695312 c 0
 132.560546875 237.150390625 116.162109375 252.677734375 93.49609375 263.396484375 c 0
 83.84375 267.962890625 76.998046875 269.767578125 74.484375 269.767578125 c 0
 58.033203125 269.767578125 58.08203125 267.193359375 37.919921875 256.255859375 c 0
 29.400390625 251.6328125 23.5908203125 248.578125 17.35546875 248.572265625 c 0
 13.0673828125 248.568359375 6.9345703125 252.39453125 6.9345703125 258.595703125 c 0
EndSplineSet
Validated: 1
EndChar

StartChar: four
Encoding: 52 52 22
Width: 381
VWidth: 0
GlyphClass: 2
Flags: MW
LayerCount: 2
Fore
SplineSet
-1.2236328125 -2.0390625 m 0
 -1.2236328125 3.7265625 2.603515625 7.2978515625 5.470703125 9.52734375 c 1
 92.1318359375 79.873046875 167.88671875 162.942382812 223.79296875 256.610351562 c 1
 224.203125 279.056640625 l 1
 224.203125 298.915039062 244.403320312 306.568359375 269.161132812 306.568359375 c 0
 279.685546875 306.568359375 285.645507812 306.973632812 291.049804688 303.8828125 c 0
 302.884765625 297.125 304.005859375 248.506835938 304.005859375 234.779296875 c 0
 304.005859375 224.510742188 303.24609375 214.616210938 301.709960938 205.111328125 c 0
 296.939453125 175.572265625 296.755859375 74.5888671875 296.307617188 38.4248046875 c 1
 296.4765625 36.1953125 295.681640625 34.8896484375 303.780273438 35.31640625 c 0
 356.439453125 38.173828125 l 1
 366.895507812 38.6279296875 374.2109375 30.9111328125 374.2109375 20.802734375 c 0
 374.2109375 14.119140625 372.78515625 3.58984375 362.649414062 1.900390625 c 1
 330.8515625 -3.53515625 310.740234375 -6.9326171875 302.185546875 -8.3115234375 c 1
 298.234375 -8.9111328125 295.771484375 -9.921875 295.028320312 -10.3291015625 c 1
 293.404296875 -45.322265625 291.940429688 -93.517578125 290.594726562 -155.983398438 c 0
 290.4921875 -160.703125 l 1
 259.788085938 -175.96484375 l 1
 246.541992188 -182.151367188 237.2578125 -185.8359375 228.9453125 -185.8359375 c 0
 212.125976562 -185.8359375 210.786132812 -168.702148438 210.786132812 -160.005859375 c 0
 210.786132812 -142.716796875 216.559570312 -119.649414062 216.842773438 -114.985351562 c 0
 217.251953125 -108.27734375 217.798828125 -74.794921875 218.392578125 -16.80859375 c 1
 218.265625 -15.4248046875 218.19921875 -15.3759765625 218.083007812 -14.9306640625 c 1
 196.57421875 -15.376953125 180.211914062 -15.544921875 161.749023438 -15.544921875 c 0
 115.639648438 -15.544921875 65.1142578125 -13.8115234375 31.2099609375 -9.451171875 c 1
 18.337890625 -15.1728515625 l 1
 18.076171875 -15.267578125 l 0
 9.8525390625 -18.259765625 -1.2236328125 -12.9677734375 -1.2236328125 -2.0390625 c 0
110.541015625 40.109375 m 1
 110.100585938 39.7548828125 112.903320312 39.533203125 114.689453125 39.3515625 c 1
 145.090820312 35.849609375 176.336914062 34.103515625 208.291992188 34.103515625 c 1
 217.501953125 34.291015625 219.974609375 36.4814453125 220.182617188 45.0478515625 c 2
 222.782226562 148.677734375 l 1
 221.017578125 146.76953125 220.635742188 146.325195312 219.302734375 144.748046875 c 1
 186.6953125 107.545898438 150.598632812 72.8251953125 110.541015625 40.109375 c 1
EndSplineSet
Validated: 1
EndChar

StartChar: five
Encoding: 53 53 23
Width: 254
VWidth: 0
GlyphClass: 2
Flags: MW
LayerCount: 2
Fore
SplineSet
13.4599609375 -175.184570312 m 0
 13.4599609375 -170.619140625 16.6240234375 -167.380859375 17.208984375 -166.694335938 c 1
 18.900390625 -165.00390625 l 1
 20.265625 -164.400390625 l 0
 66.552734375 -143.947265625 79.1884765625 -137.76953125 107.938476562 -103.741210938 c 0
 126.6796875 -81.556640625 145.206054688 -34.927734375 145.206054688 1.8349609375 c 0
 145.206054688 30.7275390625 138.946289062 37.49609375 121.533203125 51.2294921875 c 0
 113.260742188 57.755859375 104.0390625 60.931640625 93.0439453125 60.931640625 c 0
 81.404296875 60.931640625 64.927734375 58.6103515625 44.060546875 53.794921875 c 0
 42.513671875 53.4375 l 1
 40.9482421875 53.6982421875 l 0
 34.1240234375 54.833984375 28.5556640625 62.66796875 32.32421875 70.2060546875 c 1
 34.75 74.6044921875 37.931640625 102.526367188 37.931640625 150.5078125 c 0
 37.931640625 198.485351562 37.19921875 228.62890625 35.9453125 239.53125 c 0
 34.6484375 250.807617188 32.412109375 259.909179688 29.6279296875 266.408203125 c 1
 25.814453125 274.986328125 33.4130859375 281.213867188 38.068359375 283.38671875 c 0
 80.064453125 302.958007812 l 1
 85.1611328125 305.357421875 91.2265625 305.888671875 98.951171875 305.888671875 c 0
 118.712890625 305.888671875 136.462890625 303.712890625 157.487304688 303.712890625 c 0
 173.91015625 303.712890625 193.912109375 304.651367188 217.416015625 306.54296875 c 0
 217.736328125 306.568359375 l 1
 218.057617188 306.568359375 l 0
 226.444335938 306.568359375 232.993164062 300.021484375 232.993164062 291.634765625 c 0
 232.993164062 287.1015625 228.810546875 282.134765625 227.771484375 281.372070312 c 1
 192.489257812 259.838867188 167.655273438 251.00390625 125.061523438 251.00390625 c 0
 112.947265625 251.00390625 l 1
 114.176757812 234.059570312 114.70703125 216.668945312 114.70703125 195.782226562 c 0
 114.70703125 171.274414062 112.501953125 141.005859375 108.62109375 109.487304688 c 1
 119.686523438 112.615234375 129.005859375 113.640625 141.172851562 113.640625 c 0
 155.802734375 113.640625 170.1015625 107.658203125 183.865234375 96.8232421875 c 0
 210.249023438 75.947265625 224.018554688 48.7998046875 224.018554688 16.72265625 c 0
 224.018554688 -26.091796875 197.849609375 -78.421875 174.966796875 -104.953125 c 0
 136.91796875 -149.060546875 92.7333984375 -175.392578125 25.947265625 -185.741210938 c 0
 23.876953125 -186.0625 l 1
 21.9150390625 -185.326171875 l 0
 20.056640625 -184.630859375 13.4599609375 -182.708984375 13.4599609375 -175.184570312 c 0
EndSplineSet
Validated: 1
EndChar

StartChar: six
Encoding: 54 54 24
Width: 321
VWidth: 2048
GlyphClass: 2
Flags: MW
LayerCount: 2
Fore
SplineSet
26.919921875 145.97265625 m 0
 26.919921875 222.673828125 78.2685546875 331.661132812 105.586914062 381.283203125 c 0
 122.46875 411.948242188 155.423828125 436.935546875 200.166015625 457.915039062 c 0
 203.129882812 459.174804688 204.434570312 459.462890625 206.741210938 460.087890625 c 2
 208.337890625 460.087890625 l 2
 218.084960938 460.087890625 220.830078125 453.389648438 220.830078125 447.025390625 c 0
 220.830078125 443.038085938 219.751953125 439.181640625 218.642578125 437.188476562 c 0
 149.96484375 336.41796875 112.221679688 256.455078125 104.03125 197.982421875 c 0
 103.78515625 196.120117188 103.64453125 194.009765625 103.609375 193.099609375 c 1
 124.392578125 205.9765625 167.788085938 221.728515625 208.565429688 221.728515625 c 0
 251.173828125 221.728515625 266.587890625 205.224609375 286.061523438 177.774414062 c 0
 298.237304688 160.611328125 304.462890625 141.393554688 304.462890625 120.732421875 c 0
 304.462890625 80.01171875 282.318359375 49.9580078125 258.092773438 27.2080078125 c 0
 236.002929688 6.4609375 187.370117188 -31.6572265625 137.09375 -31.6572265625 c 0
 110.041992188 -31.6572265625 88.3505859375 -13.1181640625 68.1298828125 18.361328125 c 0
 47.9365234375 49.798828125 35.751953125 77.4130859375 32.1044921875 101.6796875 c 0
 28.677734375 124.475585938 26.919921875 138.689453125 26.919921875 145.97265625 c 0
103.640625 145.717773438 m 0
 107.310546875 113.219726562 118.186523438 85.5986328125 139.359375 62.201171875 c 0
 162.875976562 37.484375 179.80859375 28.3935546875 186.763671875 28.3935546875 c 0
 205.4140625 28.3935546875 229.321289062 75.87890625 229.321289062 100.747070312 c 0
 229.321289062 139.470703125 202.37109375 164.533203125 153.149414062 164.533203125 c 0
 138.732421875 164.533203125 121.834960938 162.234375 106.220703125 157.549804688 c 0
 104.982421875 157.153320312 102.399414062 156.15234375 103.640625 145.717773438 c 0
EndSplineSet
Validated: 1
EndChar

StartChar: seven
Encoding: 55 55 25
Width: 343
VWidth: 0
GlyphClass: 2
Flags: MW
LayerCount: 2
Fore
SplineSet
16.314453125 -176.205078125 m 0
 16.314453125 -169.408203125 19.58984375 -162.982421875 24.4921875 -155.200195312 c 1
 112.71484375 -16.845703125 188.657226562 111.868164062 237.1484375 231.157226562 c 1
 238.061523438 233.626953125 238.323242188 235.322265625 238.323242188 236.228515625 c 0
 238.323242188 236.619140625 238.279296875 236.826171875 238.279296875 236.826171875 c 1
 237.807617188 237.090820312 236.115234375 237.673828125 232.908203125 237.673828125 c 0
 209.41015625 237.673828125 181.931640625 235.096679688 146.729492188 235.096679688 c 0
 113.583984375 235.096679688 79.783203125 237.583984375 41.287109375 242.498046875 c 1
 35.900390625 243.131835938 17.5380859375 244.736328125 17.5380859375 260.227539062 c 0
 17.5380859375 268.099609375 23.884765625 272.369140625 29.0703125 274.810546875 c 0
 62.8994140625 290.705078125 l 1
 70.2861328125 294.236328125 78.849609375 295.856445312 87.271484375 295.5546875 c 1
 90.78125 295.5546875 101.6015625 294.29296875 123.259765625 291.826171875 c 0
 145.83984375 289.440429688 176.216796875 288.213867188 214.140625 288.213867188 c 0
 248.850585938 288.213867188 271.809570312 289.059570312 284.263671875 290.599609375 c 0
 297.736328125 292.267578125 304.21875 293.107421875 307.068359375 293.107421875 c 0
 314.462890625 293.107421875 324.450195312 289.440429688 324.450195312 278.990234375 c 0
 324.450195312 273.096679688 322.021484375 266.168945312 317.818359375 254.958984375 c 0
 258.052734375 96.3544921875 203.719726562 -8.669921875 101.557617188 -145.12109375 c 0
 93.0966796875 -157.958984375 83.01171875 -167.485351562 71.337890625 -172.8515625 c 1
 41.9755859375 -186.715820312 l 1
 37.767578125 -188.659179688 33.8388671875 -189.915039062 29.6171875 -189.915039062 c 0
 20.615234375 -189.915039062 16.314453125 -181.9609375 16.314453125 -176.205078125 c 0
EndSplineSet
Validated: 1
EndChar

StartChar: eight
Encoding: 56 56 26
Width: 272
VWidth: 2048
GlyphClass: 2
Flags: MW
LayerCount: 2
Fore
SplineSet
25.6962890625 352.240234375 m 0
 25.6962890625 386.52734375 36.173828125 412.33203125 59.08203125 426.166992188 c 0
 79.09375 438.251953125 98.9462890625 448.46484375 118.640625 456.788085938 c 0
 138.548828125 465.340820312 155.943359375 469.877929688 171.15234375 469.877929688 c 0
 192.524414062 469.877929688 209.770507812 456.861328125 222.383789062 434.744140625 c 0
 240.5 402.974609375 245.228515625 385.46484375 245.228515625 349.993164062 c 0
 245.228515625 308.879882812 231.663085938 270.373046875 206.979492188 251.98046875 c 0
 197.146484375 244.651367188 188.885742188 239.413085938 181.3515625 236.013671875 c 1
 177.483398438 234.353515625 176.114257812 232.830078125 175.93359375 232.575195312 c 1
 176.01953125 232.220703125 176.282226562 231.455078125 177.505859375 229.922851562 c 1
 200.978515625 198.93359375 219.615234375 169.888671875 233.772460938 142.154296875 c 0
 247.852539062 114.572265625 255.42578125 93.4697265625 255.42578125 77.39453125 c 0
 255.42578125 52.693359375 241.193359375 31.98046875 215.853515625 15.966796875 c 0
 191.689453125 0.6962890625 170.512695312 -10.935546875 152.162109375 -18.931640625 c 0
 133.698242188 -26.978515625 117.119140625 -31.25 102.220703125 -31.25 c 0
 42.3583984375 -31.25 26.919921875 38.91015625 26.919921875 86.177734375 c 0
 26.919921875 124.814453125 38.982421875 163.893554688 63.1875 181.583984375 c 0
 73.197265625 188.900390625 83.7275390625 194.92578125 94.9814453125 199.752929688 c 1
 97.5302734375 200.817382812 98.337890625 201.793945312 98.3662109375 201.83203125 c 1
 98.322265625 202.262695312 97.935546875 203.622070312 96.521484375 205.611328125 c 1
 76.2578125 233.090820312 59.345703125 260.415039062 46.083984375 287.192382812 c 0
 32.7978515625 314.014648438 25.6962890625 335.349609375 25.6962890625 352.240234375 c 0
101.247070312 364.802734375 m 0
 101.247070312 350.043945312 105.46875 334.516601562 114.361328125 318.020507812 c 0
 123.333984375 301.374023438 136.244140625 281.404296875 150.748046875 261.5078125 c 1
 163.0078125 279.619140625 169.677734375 302.176757812 169.677734375 333.802734375 c 0
 169.677734375 367.748046875 163.377929688 391.501953125 146.005859375 407.201171875 c 0
 135.366210938 416.814453125 126.123046875 420.431640625 120.06640625 420.431640625 c 0
 112.345703125 420.431640625 101.247070312 388.251953125 101.247070312 364.802734375 c 0
102.063476562 102.377929688 m 0
 102.063476562 64.451171875 106.216796875 43.0751953125 125.46484375 27.173828125 c 0
 133.553710938 20.4921875 142.125976562 17.380859375 151.981445312 17.380859375 c 0
 162.076171875 17.380859375 179.875 44.611328125 179.875 64.4453125 c 0
 179.875 78.2578125 175.579101562 93.294921875 166.412109375 109.69140625 c 0
 157.020507812 126.490234375 143.243164062 147.15234375 125.178710938 171.416015625 c 1
 123.423828125 173.756835938 122.061523438 174.556640625 121.876953125 174.651367188 c 1
 117.4921875 172.290039062 109.868164062 152.791015625 107.264648438 143.629882812 c 0
 103.831054688 131.552734375 102.063476562 117.814453125 102.063476562 102.377929688 c 0
EndSplineSet
Validated: 1
EndChar

StartChar: nine
Encoding: 57 57 27
Width: 322
VWidth: 2048
GlyphClass: 2
Flags: MW
LayerCount: 2
Fore
SplineSet
26.919921875 159.146484375 m 0
 26.919921875 198.58203125 49.0654296875 227.688476562 73.291015625 249.720703125 c 0
 95.380859375 269.810546875 144.013671875 306.725585938 194.290039062 306.725585938 c 0
 221.341796875 306.725585938 243.033203125 288.477539062 263.254882812 257.494140625 c 0
 283.446289062 226.557617188 295.626953125 199.450195312 299.278320312 175.693359375 c 0
 302.705078125 153.385742188 304.462890625 139.458984375 304.462890625 132.287109375 c 0
 304.462890625 41.6630859375 252.084960938 -58.6201171875 203.876953125 -110.978515625 c 1
 167.124023438 -144.33203125 126.540039062 -170.991210938 89.697265625 -192.224609375 c 0
 87.8564453125 -193.145507812 85.7568359375 -193.994140625 83.0498046875 -193.994140625 c 0
 74.1865234375 -193.994140625 69.75 -186.853515625 69.75 -179.743164062 c 0
 69.75 -175.374023438 71.42578125 -171.016601562 74.7783203125 -168.333984375 c 0
 111.0078125 -139.244140625 145.794921875 -100.256835938 176.21484375 -51.0634765625 c 0
 206.7890625 -1.896484375 222.05078125 43.345703125 227.34765625 84.7001953125 c 0
 227.580078125 86.40625 227.693359375 87.845703125 227.763671875 89.0576171875 c 1
 206.892578125 76.546875 163.553710938 61.33984375 122.615234375 61.33984375 c 0
 105.162109375 61.33984375 90.57421875 64.1875 79.181640625 70.712890625 c 0
 55.8466796875 84.0810546875 26.919921875 121.65234375 26.919921875 159.146484375 c 0
102.063476562 178.57421875 m 0
 102.063476562 142.029296875 128.78125 118.536132812 178.235351562 118.536132812 c 0
 192.650390625 118.536132812 209.548828125 120.700195312 225.163085938 125.108398438 c 0
 226.400390625 125.481445312 228.985351562 126.423828125 227.7421875 136.244140625 c 0
 224.072265625 166.833984375 213.196289062 192.831054688 192.025390625 214.853515625 c 0
 168.506835938 238.118164062 151.576171875 246.673828125 144.619140625 246.673828125 c 0
 125.971679688 246.673828125 102.063476562 201.978515625 102.063476562 178.57421875 c 0
EndSplineSet
Validated: 1
EndChar

StartChar: colon
Encoding: 58 58 28
Width: 194
GlyphClass: 2
Flags: MW
LayerCount: 2
Fore
SplineSet
163 246 m 0
 163 226 154 182 124 182 c 0
 68 182 51 233 51 247 c 0
 51 263 79 293 104 293 c 0
 130 293 163 266 163 246 c 0
163 56 m 0
 163 36 154 -8 124 -8 c 0
 68 -8 51 43 51 57 c 0
 51 73 79 103 104 103 c 0
 130 103 163 76 163 56 c 0
EndSplineSet
Validated: 1
EndChar

StartChar: semicolon
Encoding: 59 59 29
Width: 234
GlyphClass: 2
Flags: MW
LayerCount: 2
Fore
SplineSet
183 246 m 0
 183 226 174 182 144 182 c 0
 88 182 71 233 71 247 c 0
 71 263 99 293 124 293 c 0
 150 293 183 266 183 246 c 0
183 56 m 0
 183 -11 104 -119 19 -186 c 0
 18.4755859375 -186.209960938 17.8408203125 -186.309570312 17.12109375 -186.309570312 c 0
 10.984375 -186.309570312 -1.314453125 -179.0546875 -4 -171 c 1
 33 -138 104 -50 112 -1 c 1
 81 13 71 46 71 57 c 0
 74 69 109 99 124 103 c 1
 150 103 183 69 183 56 c 0
EndSplineSet
Validated: 1
EndChar

StartChar: less
Encoding: 60 60 30
Width: 487
GlyphClass: 2
Flags: MW
LayerCount: 2
Fore
SplineSet
51 197 m 1
 145 246 240 293 335 341 c 1
 369 356 402 372 436 387 c 1
 443 374 l 1
 380 345 285 299 232 270 c 0
 191 248 181 243 134 220 c 1
 442 65 l 1
 448 52 l 1
 382 21 l 1
 57 184 l 1
 51 197 l 1
EndSplineSet
Validated: 1
EndChar

StartChar: equal
Encoding: 61 61 31
Width: 500
GlyphClass: 2
Flags: MW
LayerCount: 2
Fore
SplineSet
61 307 m 1
 128 338 l 1
 190 339 l 1
 380 336 l 1
 435 337 l 1
 442 323 l 1
 375 292 l 1
 320 292 l 1
 130 295 l 1
 68 293 l 1
 61 307 l 1
61 179 m 1
 128 210 l 1
 190 212 l 1
 380 208 l 1
 435 209 l 1
 442 196 l 1
 375 165 l 1
 320 164 l 1
 130 167 l 1
 68 166 l 1
 61 179 l 1
EndSplineSet
Validated: 1
EndChar

StartChar: greater
Encoding: 62 62 32
Width: 487
GlyphClass: 2
Flags: MW
LayerCount: 2
Fore
SplineSet
54 363 m 1
 120 394 l 1
 445 231 l 1
 451 218 l 1
 357 169 261 122 166 74 c 1
 133 59 100 43 66 28 c 1
 59 41 l 1
 122 70 217 117 270 146 c 0
 311 168 321 172 368 195 c 1
 60 350 l 1
 54 363 l 1
EndSplineSet
Validated: 1
EndChar

StartChar: question
Encoding: 63 63 33
Width: 328
GlyphClass: 2
Flags: MW
LayerCount: 2
Fore
SplineSet
309 478 m 0
 309 444 247 389.000976562 180 346.000976562 c 0
 162 335.000976562 153 321.000976562 147 298.000976562 c 0
 135 248.000976562 114 190.000976562 108 146.000976562 c 0
 104 140.000976562 84 140.000976562 79 144.000976562 c 1
 82.0625 181.368164062 83.2490234375 199.596679688 83.2490234375 222.365234375 c 0
 83.2490234375 236.764648438 82.7744140625 252.98046875 82 277 c 1
 88 300 100 320 116 332 c 0
 198 374 229 398 229 425 c 0
 229 460 190 481 142 481 c 0
 108 481 84 470 23 431 c 0
 20 430 14 433 14 436 c 0
 70 507 118 533 198 533 c 0
 247 533 309 525 309 478 c 0
139 48.0009765625 m 0
 139 31.0009765625 131 -6.9990234375 105 -6.9990234375 c 0
 58 -6.9990234375 43 37.0009765625 43 48.0009765625 c 0
 43 62.0009765625 67 88.0009765625 88 88.0009765625 c 0
 111 88.0009765625 139 65.0009765625 139 48.0009765625 c 0
EndSplineSet
Validated: 1
Substitution2: "'hist' Historical Forms lookup 4 subtable" uniF160
EndChar

StartChar: at
Encoding: 64 64 34
Width: 841
VWidth: 0
GlyphClass: 2
Flags: MW
LayerCount: 2
Fore
SplineSet
42 231.799804688 m 0
 42 312.799804688 62 379.799804688 102 433.799804688 c 0
 142 487.799804688 175 525.799804688 200 543.799804688 c 0
 225 561.799804688 266 581.799804688 321 603.799804688 c 0
 376 625.799804688 440 636.799804688 511 636.799804688 c 256
 581 636.799804688 637 620.799804688 680 587.799804688 c 0
 723 554.799804688 753 518.799804688 770 480.799804688 c 0
 787 442.799804688 796 404.799804688 796 366.799804688 c 256
 796 311.799804688 784 269.799804688 761 238.799804688 c 0
 714 176.799804688 668.090081054 145.550090194 588 116.799804688 c 0
 549 102.799804688 533 96.599609375 521 96.599609375 c 259
 486 96.599609375 480 136.599609375 479 150.599609375 c 1
 426 113.599609375 388 83.599609375 341 83.599609375 c 0
 292 83.599609375 291 185.599609375 291 185.599609375 c 1
 291 222.599609375 309 259.599609375 338 288.599609375 c 0
 390 340.599609375 493 400.599609375 502 400.599609375 c 0
 512 400.599609375 525.256778409 398.624442984 526 389.599609375 c 0
 533 304.599609375 537.851275743 202.702732788 548.666015625 165.932617188 c 0
 552.903859389 151.52394839 561.927289429 143.650087719 572.499999438 143.650087719 c 3
 591.693894874 143.650087719 614.411602474 155.940228422 624 161.799804688 c 0
 642 172.799804688 662 192.799804688 684 223.799804688 c 0
 706 254.799804688 718 296.799804688 718 347.799804688 c 256
 718 388.799804688 710 423.799804688 694 453.799804688 c 0
 678 483.799804688 649 514.799804688 610 544.799804688 c 0
 571 574.799804688 517 589.799804688 447 589.799804688 c 0
 358 589.799804688 280 560.799804688 216 501.799804688 c 0
 152 442.799804688 120 358.799804688 120 250.799804688 c 0
 120 130.799804688 146 62.7998046875 212 11.7998046875 c 0
 243 -12.2001953125 275 -31.2001953125 306 -46.2001953125 c 0
 337 -61.2001953125 367 -68.2001953125 398 -68.2001953125 c 256
 453 -68.2001953125 518 -58.2001953125 595 -38.2001953125 c 0
 608 -35.2001953125 611 -46.2001953125 601 -52.2001953125 c 0
 545 -86.2001953125 423 -115.200195312 334 -115.200195312 c 256
 266 -115.200195312 188 -71.2001953125 145 -36.2001953125 c 0
 85 12.7998046875 42 119.799804688 42 231.799804688 c 0
356 227.599609375 m 0
 356 171.599609375 406 152.599609375 425 152.599609375 c 0
 444 152.599609375 478 162.599609375 478 162.599609375 c 1
 476 180.599609375 478 276.599609375 472 323.599609375 c 0
 471 335.599609375 465 339.599609375 464 343.599609375 c 1
 432 323.599609375 356 281.599609375 356 227.599609375 c 0
EndSplineSet
Validated: 1
EndChar

StartChar: A
Encoding: 65 65 35
Width: 659
VWidth: 850
GlyphClass: 2
Flags: HMW
AnchorPoint: "Above" 349 595 basechar 0
AnchorPoint: "Below" 282 -42 basechar 0
LayerCount: 2
Fore
SplineSet
-16 11 m 0
 -16 15 -14 18 -9 20 c 0
 6 23 35 31 46 38 c 1
 56 49 59 60 62 69 c 0
 82 117 91 134 111 182 c 0
 125 215 207 427 207 427 c 2
 219 457 249 518 262 552 c 1
 215 552 229 553 182 553 c 0
 142 553 110 524 90 500 c 1
 90 502 90 504 90 506 c 0
 90 528 96 573 110 584 c 1
 203 584 l 2
 242 584 326 585 361 585 c 0
 371 585 382 582 389 562 c 0
 428 452 471 362 510 260 c 0
 536 195 559 119 592 43 c 1
 605 34 636 32 649 29 c 0
 652 26 655 20 655 15 c 0
 655 12 653 9 649 8 c 0
 629 1 587 -6 556 -6 c 0
 519 -6 462 -5 435 3 c 0
 429 4 426 9 426 13 c 3
 426 16 428 18 431 20 c 0
 438 20 475 32 482 37 c 1
 479 88 439 167 439 167 c 1
 334 167 265 172 184 258 c 1
 153 188 127 116 95 40 c 1
 104 28 127 27 144 23 c 1
 145 20 146 17 146 14 c 3
 146 10 145 7 142 5 c 0
 127 -3 96 -5 66 -5 c 3
 39 -5 9 0 -10 0 c 0
 -14 3 -16 7 -16 11 c 0
208 315 m 1
 250 241 321 217 419 217 c 1
 295 539 l 1
 268 479 234 379 208 315 c 1
EndSplineSet
Substitution2: "'salt' Stylistic Alternatives lookup 6 subtable" A.alt
EndChar

StartChar: B
Encoding: 66 66 36
Width: 547
VWidth: 850
GlyphClass: 2
Flags: HMW
AnchorPoint: "Above" 240 595 basechar 0
AnchorPoint: "Below" 235 -42 basechar 0
LayerCount: 2
Fore
SplineSet
522 176 m 0
 522 62 457 -8 272 -8 c 0
 249 -8 218 -10 180 -10 c 0
 135 -10 79 -7 14 5 c 0
 11 7 9 13 9 19 c 0
 9 24 10 29 14 32 c 0
 36 37 60 41 73 54 c 1
 73 235 71 458 68 532 c 1
 54 546 40 551 14 556 c 0
 11 557 10 562 10 566 c 0
 10 570 11 573 14 574 c 0
 63 581 74 582 100 582 c 0
 118 582 144 582 194 582 c 0
 216 582 242 582 274 582 c 0
 276 582 276 582 278 582 c 0
 396 582 462 520 462 456 c 0
 462 396 424 354 354 342 c 0
 351 341 338 337 355 332 c 0
 465 298 522 250 522 176 c 0
433 180 m 0
 433 251 393 297 297 329 c 0
 290 332 289 337 297 339 c 0
 351 354 377 394 377 434 c 0
 377 494 323 552 256 552 c 0
 255 552 254 552 253 552 c 0
 175 549 164 542 153 535 c 0
 153 533 153 529 153 525 c 0
 153 506 151 466 151 430 c 0
 151 426 151 421 151 417 c 0
 152 336 156 172 156 59 c 1
 188 33 220 32 277 32 c 0
 384 32 433 93 433 180 c 0
EndSplineSet
EndChar

StartChar: C
Encoding: 67 67 37
Width: 566
VWidth: 850
GlyphClass: 2
Flags: HMW
AnchorPoint: "Above" 316 595 basechar 0
AnchorPoint: "Below" 318 -42 basechar 0
LayerCount: 2
Fore
SplineSet
327 -15 m 0
 160 -15 20 119 20 293 c 0
 20 331 25 369 35 400 c 1
 100 495 205 584 332 584 c 0
 428 584 478 555 538 552 c 1
 538 544 519 469 515 431 c 0
 513 429 509 427 505 427 c 3
 500 427 495 429 495 431 c 0
 483 506 381 549 304 549 c 0
 210 549 142 479 116 382 c 0
 112 367 111 352 111 336 c 0
 111 99 259 25 341 25 c 0
 429 25 515 64 535 78 c 1
 542 78 549 71 549 65 c 1
 522 45 432 -15 327 -15 c 0
EndSplineSet
EndChar

StartChar: D
Encoding: 68 68 38
Width: 628
VWidth: 850
GlyphClass: 2
Flags: HMW
AnchorPoint: "Above" 255 595 basechar 0
AnchorPoint: "Below" 245 -42 basechar 0
LayerCount: 2
Fore
SplineSet
600 286 m 0
 600 164 507 57 395 12 c 0
 358 -3 312 -8 272 -8 c 0
 249 -8 218 -10 180 -10 c 0
 135 -10 79 -7 14 5 c 0
 11 7 9 13 9 19 c 0
 9 24 10 29 14 32 c 0
 35 37 62 37 73 49 c 1
 73 230 71 463 68 537 c 1
 53 551 36 553 14 556 c 0
 11 557 10 562 10 566 c 0
 10 570 11 573 14 574 c 0
 60 581 73 582 95 582 c 0
 111 582 132 581 173 581 c 0
 198 581 230 581 274 582 c 0
 276 582 279 582 281 582 c 0
 487 582 600 442 600 286 c 0
483 306 m 0
 483 427 375 552 259 552 c 0
 257 552 255 552 253 552 c 0
 179 549 168 545 153 537 c 0
 153 535 153 532 153 527 c 0
 153 507 151 466 151 430 c 0
 151 426 151 420 151 416 c 0
 152 335 156 164 156 51 c 1
 176 35 220 32 277 32 c 0
 309 32 335 39 360 49 c 0
 444 97 483 195 483 306 c 0
EndSplineSet
EndChar

StartChar: E
Encoding: 69 69 39
Width: 441
VWidth: 850
GlyphClass: 2
Flags: HMW
AnchorPoint: "Above" 245 595 basechar 0
AnchorPoint: "Below" 211 -42 basechar 0
LayerCount: 2
Fore
SplineSet
395 90 m 1
 395 87 395 83 395 78 c 0
 395 52 394 10 388 -1 c 1
 367 -1 352 -1 339 -1 c 0
 313 -1 294 -1 253 -1 c 0
 208 -1 176 -1 145 -1 c 0
 107 -1 71 0 20 2 c 1
 17 3 15 6 15 9 c 3
 15 13 17 19 20 20 c 1
 46 25 57 25 73 38 c 1
 73 220 71 469 68 543 c 1
 48 555 40 557 14 562 c 0
 11 563 10 568 10 572 c 0
 10 576 11 579 14 580 c 0
 65 582 102 583 140 583 c 0
 171 583 203 582 248 582 c 0
 289 582 308 583 334 583 c 0
 347 583 362 582 383 582 c 1
 389 571 390 529 390 503 c 0
 390 498 390 494 390 491 c 1
 388 487 384 484 379 484 c 3
 376 484 373 485 370 488 c 1
 362 503 331 535 315 546 c 1
 296 551 278 552 260 552 c 0
 249 552 239 552 228 552 c 0
 172 552 168 547 153 542 c 0
 153 540 153 538 153 534 c 0
 153 516 151 476 151 439 c 0
 151 431 151 424 151 417 c 2
 155 298 l 1
 178 298 197 297 215 297 c 0
 247 297 276 298 320 302 c 0
 347 305 366 338 368 346 c 1
 370 348 374 349 377 349 c 3
 381 349 385 348 386 345 c 1
 386 345 389 276 389 237 c 0
 389 223 389 213 388 211 c 1
 388 209 382 206 377 206 c 3
 373 206 369 208 368 210 c 1
 366 219 349 250 324 250 c 0
 312 250 231 251 156 251 c 1
 157 39 l 1
 171 34 180 30 233 30 c 0
 244 30 254 29 265 29 c 0
 283 29 301 31 320 36 c 1
 338 47 369 83 375 94 c 1
 378 96 381 97 384 97 c 3
 389 97 393 94 395 90 c 1
EndSplineSet
Substitution2: "'salt' Stylistic Alternatives lookup 6 subtable" E.alt
EndChar

StartChar: F
Encoding: 70 70 40
Width: 417
VWidth: 850
GlyphClass: 2
Flags: HMW
AnchorPoint: "Above" 214 595 basechar 0
AnchorPoint: "Below" 197 -42 basechar 0
LayerCount: 2
Fore
SplineSet
396 202 m 0
 395 198 381 195 378 201 c 0
 374 221 360 241 332 241 c 0
 320 241 231 183 156 183 c 1
 156 47 l 1
 183 31 212 27 236 27 c 1
 240 23 243 18 243 13 c 0
 243 9 241 5 237 1 c 1
 211 -2 154 -4 121 -4 c 0
 109 -4 99 -4 89 -4 c 0
 71 -4 50 -4 14 0 c 0
 11 2 9 6 9 11 c 0
 9 15 10 20 14 23 c 0
 42 25 61 33 73 45 c 1
 73 226 71 469 68 543 c 1
 54 557 39 559 14 562 c 0
 11 563 10 568 10 572 c 0
 10 576 11 579 14 580 c 0
 65 582 99 583 135 583 c 0
 164 583 195 582 240 582 c 0
 281 582 296 583 319 583 c 0
 331 583 345 582 366 582 c 1
 371 573 372 549 372 527 c 0
 372 515 371 504 371 496 c 0
 368 489 359 485 351 492 c 1
 345 506 315 533 296 545 c 1
 275 551 259 552 242 552 c 0
 235 552 227 552 219 552 c 0
 179 552 167 549 153 543 c 0
 153 541 153 538 153 533 c 0
 153 512 151 468 151 430 c 0
 151 425 151 420 151 416 c 2
 155 230 l 1
 219 230 283 266 331 295 c 0
 353 309 375 336 377 354 c 0
 380 358 391 359 394 354 c 2
 394 354 398 275 398 231 c 0
 398 215 397 204 396 202 c 0
EndSplineSet
EndChar

StartChar: G
Encoding: 71 71 41
Width: 471
VWidth: 850
GlyphClass: 2
Flags: HMW
AnchorPoint: "Above" 246 595 basechar 0
AnchorPoint: "Below" 221 -42 basechar 0
LayerCount: 2
Fore
SplineSet
429 235 m 1
 429 230 430 214 430 193 c 0
 430 128 428 10 422 -1 c 1
 401 -1 382 -1 364 -1 c 0
 328 -1 294 -1 253 -1 c 0
 208 -1 176 -1 145 -1 c 0
 107 -1 71 0 20 2 c 0
 13 5 15 17 20 20 c 0
 46 25 53 29 73 43 c 1
 73 225 71 465 68 539 c 1
 48 556 40 557 14 562 c 0
 11 563 10 568 10 572 c 0
 10 576 11 579 14 580 c 0
 65 582 102 583 140 583 c 0
 171 583 203 582 248 582 c 0
 289 582 323 583 359 583 c 0
 377 583 396 582 417 582 c 1
 423 569 424 528 424 503 c 0
 424 498 424 494 424 491 c 0
 422 486 411 482 404 488 c 0
 398 499 366 538 329 547 c 0
 314 551 294 552 275 552 c 0
 258 552 242 552 228 552 c 0
 189 552 167 548 153 541 c 1
 154 532 155 515 155 490 c 0
 155 463 154 426 154 381 c 0
 154 356 155 328 155 298 c 2
 157 47 l 1
 171 39 181 30 233 30 c 0
 243 30 259 29 278 29 c 0
 316 29 364 30 388 37 c 1
 391 49 389 160 390 208 c 1
 381 210 352 212 323 212 c 0
 297 212 273 210 263 207 c 0
 246 197 245 183 229 177 c 1
 229 189 229 235 230 238 c 0
 235 239 270 240 309 240 c 0
 363 240 424 238 429 235 c 1
EndSplineSet
Substitution2: "'salt' Stylistic Alternatives lookup 6 subtable" G.alt
EndChar

StartChar: H
Encoding: 72 72 42
Width: 514
VWidth: 850
GlyphClass: 2
Flags: HMW
AnchorPoint: "Above" 282 595 basechar 0
AnchorPoint: "Below" 175 -42 basechar 0
LayerCount: 2
Fore
SplineSet
495 186 m 0
 495 8 398 -47 327 -89 c 1
 314 -75 l 1
 383 -16 401 24 401 78 c 0
 401 153 363 269 274 269 c 0
 226 269 176 210 158 161 c 1
 159 54 l 1
 170 41 194 38 211 38 c 0
 215 38 219 38 222 38 c 0
 230 31 232 26 224 16 c 1
 142 2 127 -15 84 -15 c 0
 60 -15 28 -11 15 -6 c 0
 12 -3 10 4 10 11 c 0
 10 14 11 17 12 20 c 0
 33 22 54 27 69 40 c 1
 69 48 69 56 69 63 c 0
 69 93 68 119 68 147 c 0
 68 217 77 317 77 483 c 0
 77 497 76 511 76 526 c 1
 65 540 45 546 17 546 c 1
 14 550 12 554 12 559 c 0
 12 563 14 567 16 571 c 0
 24 575 44 584 60 584 c 2
 69 584 l 2
 104 584 141 583 212 564 c 0
 215 562 218 556 218 550 c 0
 218 546 217 541 214 539 c 0
 201 532 185 532 173 527 c 1
 167 493 157 416 157 307 c 0
 157 281 158 253 159 224 c 1
 219 299 288 326 343 326 c 0
 422 326 495 263 495 186 c 0
EndSplineSet
EndChar

StartChar: I
Encoding: 73 73 43
Width: 265
VWidth: 850
GlyphClass: 2
Flags: HMW
AnchorPoint: "Above" 114 595 basechar 0
AnchorPoint: "Below" 116 -42 basechar 0
LayerCount: 2
Fore
SplineSet
237 6 m 0
 214 -8 153 -12 121 -13 c 0
 119 -13 117 -13 115 -13 c 0
 86 -13 71 -6 14 5 c 0
 11 7 9 13 9 19 c 0
 9 24 10 29 14 32 c 0
 37 39 58 39 73 59 c 1
 73 240 71 461 68 535 c 1
 48 550 39 553 14 556 c 0
 11 557 10 562 10 566 c 0
 10 570 11 573 14 574 c 0
 35 578 92 587 108 587 c 0
 159 587 181 583 214 574 c 0
 216 572 217 569 217 566 c 7
 217 562 216 558 214 556 c 1
 194 554 179 549 160 528 c 1
 158 505 156 241 156 62 c 1
 186 31 208 35 236 32 c 1
 240 28 243 23 243 18 c 0
 243 14 241 10 237 6 c 0
EndSplineSet
EndChar

StartChar: J
Encoding: 74 74 44
Width: 265
VWidth: 850
GlyphClass: 2
Flags: HMW
AnchorPoint: "Above" 114 595 basechar 0
AnchorPoint: "Below" 134 -42 basechar 0
LayerCount: 2
Fore
SplineSet
156 162 m 0
 156 -16 70 -71 -1 -113 c 1
 -14 -99 l 1
 55 -40 73 0 73 54 c 0
 73 235 71 461 68 535 c 1
 48 550 39 553 14 556 c 0
 11 558 10 562 10 565 c 0
 10 569 11 573 14 574 c 0
 35 578 92 587 108 587 c 0
 159 587 181 583 214 574 c 0
 218 571 217 560 214 556 c 1
 194 554 179 549 160 528 c 1
 158 505 156 340 156 162 c 0
EndSplineSet
EndChar

StartChar: K
Encoding: 75 75 45
Width: 517
VWidth: 850
GlyphClass: 2
Flags: HMW
AnchorPoint: "Above" 222 595 basechar 0
AnchorPoint: "Below" 245 -42 basechar 0
LayerCount: 2
Fore
SplineSet
498 4 m 0
 484 -2 458 -3 418 -3 c 0
 390 -3 301 0 298 5 c 0
 293 13 291 22 296 28 c 1
 308 30 330 30 334 41 c 1
 326 52 308 70 301 83 c 0
 249 145 206 219 156 274 c 1
 156 54 l 1
 176 33 200 37 228 32 c 1
 232 28 234 23 234 18 c 0
 234 14 233 10 229 6 c 0
 205 -4 152 -2 120 -3 c 0
 111 -3 103 -3 96 -3 c 0
 79 -3 63 -2 23 5 c 0
 20 7 17 13 17 19 c 0
 17 24 19 29 23 32 c 0
 49 42 63 36 73 47 c 1
 73 228 71 461 68 535 c 1
 55 556 43 556 23 560 c 0
 20 561 18 566 18 571 c 0
 18 575 20 580 23 581 c 0
 44 584 92 587 108 587 c 0
 159 587 183 588 217 581 c 0
 221 578 219 564 216 560 c 1
 195 559 177 556 160 542 c 0
 157 407 l 0
 157 358 203 321 236 290 c 0
 236 289 240 289 241 292 c 0
 278 359 326 456 361 536 c 1
 353 555 344 558 326 562 c 1
 320 568 322 579 329 583 c 0
 337 585 382 587 417 587 c 0
 451 587 489 587 496 585 c 0
 499 583 500 579 500 575 c 0
 500 570 498 564 493 562 c 0
 460 562 439 551 427 539 c 1
 407 505 369 436 347 399 c 0
 318 351 291 303 269 252 c 1
 269 252 269 249 272 246 c 0
 326 179 383 101 446 39 c 1
 464 29 481 29 495 28 c 0
 500 25 502 19 502 13 c 0
 502 9 501 6 498 4 c 0
EndSplineSet
EndChar

StartChar: L
Encoding: 76 76 46
Width: 452
VWidth: 850
GlyphClass: 2
Flags: HMW
AnchorPoint: "Above" 235 595 basechar 0
AnchorPoint: "Below" 235 -42 basechar 0
LayerCount: 2
Fore
SplineSet
433 105 m 0
 433 101 433 95 433 88 c 0
 433 58 431 8 425 -4 c 1
 404 -4 388 -5 372 -5 c 0
 341 -5 315 -4 274 -4 c 0
 229 -4 190 -5 154 -5 c 0
 109 -5 65 -4 14 -2 c 0
 10 0 8 6 8 12 c 0
 8 17 10 23 14 25 c 0
 33 28 54 33 68 43 c 1
 71 117 73 352 73 533 c 1
 61 547 40 549 14 551 c 0
 10 554 9 559 9 564 c 0
 9 570 11 576 14 578 c 0
 50 582 71 582 89 582 c 0
 99 582 109 582 121 582 c 0
 154 582 211 580 237 577 c 1
 241 573 243 569 243 565 c 0
 243 560 240 555 236 551 c 1
 201 551 176 549 156 533 c 1
 156 504 155 348 155 348 c 2
 154 278 152 213 151 162 c 0
 151 158 151 153 151 148 c 0
 151 112 153 72 153 53 c 0
 153 49 153 45 153 43 c 0
 164 35 197 26 253 26 c 0
 264 26 274 26 285 26 c 0
 298 26 312 27 329 29 c 0
 365 39 404 93 412 109 c 1
 420 116 430 112 433 105 c 0
EndSplineSet
EndChar

StartChar: M
Encoding: 77 77 47
Width: 708
VWidth: 850
GlyphClass: 2
Flags: HMW
AnchorPoint: "Above" 326 595 basechar 0
AnchorPoint: "Below" 330 -42 basechar 0
LayerCount: 2
Fore
SplineSet
678 -20 m 0
 678 -40 622 -84 587 -84 c 0
 553 -84 531 -79 531 -17 c 0
 531 62 530 135 530 206 c 0
 530 270 536 334 539 401 c 1
 460 317 412 205 309 88 c 0
 304 87 299 86 295 86 c 0
 279 86 269 95 269 106 c 1
 285 128 l 1
 261 172 239 213 218 247 c 0
 185 301 159 343 133 391 c 1
 131 333 131 298 131 267 c 0
 131 225 131 188 133 112 c 0
 135 32 149 38 175 32 c 0
 179 28 182 23 182 18 c 0
 182 14 182 8 176 6 c 0
 155 -3 139 -5 107 -5 c 3
 84 -5 59 -4 54 5 c 1
 54 30 47 104 47 194 c 0
 47 313 51 505 54 545 c 1
 43 560 22 563 9 566 c 0
 6 567 4 572 4 576 c 0
 4 580 6 583 9 584 c 0
 34 587 83 587 99 587 c 0
 107 587 113 588 118 588 c 0
 127 588 133 587 155 582 c 0
 157 581 158 578 158 575 c 3
 158 571 157 566 155 564 c 1
 147 563 139 562 135 558 c 0
 134 554 134 547 134 541 c 0
 134 535 134 530 134 528 c 0
 170 460 229 379 276 306 c 0
 303 263 321 222 335 200 c 1
 419 299 452 384 539 467 c 1
 541 538 l 1
 531 548 515 553 496 556 c 0
 493 557 491 563 491 569 c 0
 491 574 493 580 496 581 c 0
 517 585 562 587 578 587 c 0
 613 587 635 579 673 577 c 0
 675 575 676 573 676 570 c 3
 676 566 675 561 673 559 c 1
 655 557 632 554 620 545 c 1
 614 399 610 207 610 46 c 0
 610 -33 678 26 678 -20 c 0
EndSplineSet
EndChar

StartChar: N
Encoding: 78 78 48
Width: 696
VWidth: 850
GlyphClass: 2
Flags: HMW
AnchorPoint: "Above" 333 595 basechar 0
AnchorPoint: "Below" 330 -42 basechar 0
LayerCount: 2
Fore
SplineSet
698 541 m 1
 694 542 689 541 684 541 c 0
 662 541 631 537 615 525 c 1
 615 492 615 433 615 370 c 0
 615 323 615 274 614 233 c 0
 612 187 605 143 605 111 c 0
 605 89 605 53 610 39 c 1
 618 35 627 34 637 34 c 1
 642 29 646 21 646 14 c 0
 646 8 644 4 637 2 c 0
 636 2 634 2 633 2 c 0
 599 2 556 -17 533 -17 c 0
 514 -17 488 -11 462 -2 c 0
 459 -1 459 2 459 5 c 3
 459 9 461 14 462 18 c 1
 477 22 494 21 502 29 c 1
 504 49 503 80 504 94 c 1
 467 129 404 158 344 216 c 0
 282 277 246 338 160 398 c 1
 152 393 149 369 149 332 c 0
 149 268 156 166 156 54 c 1
 183 32 213 36 236 32 c 1
 240 28 243 23 243 18 c 0
 243 14 241 10 237 6 c 0
 214 -8 153 -12 121 -13 c 0
 119 -13 117 -13 115 -13 c 0
 86 -13 71 -6 14 5 c 0
 11 7 9 13 9 19 c 0
 9 24 10 29 14 32 c 0
 31 36 59 37 73 48 c 1
 73 229 71 461 68 535 c 1
 53 552 36 552 14 556 c 1
 11 557 10 562 10 566 c 0
 10 570 11 573 14 574 c 1
 35 578 92 587 108 587 c 0
 159 587 181 583 214 574 c 1
 216 572 217 569 217 566 c 3
 217 562 216 558 214 556 c 1
 203 555 184 548 175 539 c 1
 175 539 174 531 174 524 c 0
 174 518 175 513 177 511 c 0
 295 402 351 341 404 288 c 0
 449 242 496 219 531 193 c 1
 540 243 536 296 539 356 c 0
 541 391 553 466 553 516 c 0
 553 524 553 531 552 537 c 1
 532 555 515 554 495 558 c 0
 492 560 491 565 491 571 c 3
 491 576 492 580 494 582 c 1
 526 583 540 591 561 591 c 0
 597 591 683 568 698 568 c 1
 700 566 701 560 701 554 c 0
 701 548 700 542 698 541 c 1
EndSplineSet
EndChar

StartChar: O
Encoding: 79 79 49
Width: 559
VWidth: 850
GlyphClass: 2
Flags: HMW
AnchorPoint: "Above" 274 595 basechar 0
AnchorPoint: "Below" 262 -42 basechar 0
LayerCount: 2
Fore
SplineSet
536 305 m 0
 536 240 464 -11 277 -11 c 0
 142 -11 20 124 20 258 c 0
 20 432 131 589 287 589 c 0
 457 589 536 436 536 305 c 0
472 252 m 0
 472 364 373 515 239 515 c 0
 132 515 90 451 90 342 c 0
 90 193 228 69 319 69 c 0
 457 69 472 194 472 252 c 0
EndSplineSet
EndChar

StartChar: P
Encoding: 80 80 50
Width: 479
VWidth: 850
GlyphClass: 2
Flags: HMW
AnchorPoint: "Above" 228 595 basechar 0
AnchorPoint: "Below" 199 -42 basechar 0
LayerCount: 2
Fore
SplineSet
462 439 m 0
 462 323 380 230 236 230 c 0
 211 230 185 231 156 237 c 1
 156 199 156 89 156 51 c 1
 182 33 209 32 236 30 c 1
 240 26 243 21 243 16 c 0
 243 12 241 7 237 3 c 0
 212 -6 153 -8 121 -8 c 0
 89 -8 51 -5 14 3 c 0
 11 5 9 10 9 16 c 0
 9 21 10 27 14 30 c 0
 34 34 58 36 73 48 c 1
 73 229 71 465 68 539 c 1
 55 549 33 556 14 556 c 0
 11 557 10 562 10 566 c 0
 10 570 11 573 14 574 c 0
 69 582 126 582 219 582 c 0
 236 582 254 582 274 582 c 0
 400 582 462 515 462 439 c 0
377 417 m 0
 377 488 318 552 245 552 c 0
 197 552 167 547 153 539 c 0
 153 537 153 534 153 529 c 0
 153 509 151 466 151 430 c 0
 151 425 151 421 151 417 c 0
 152 370 154 328 155 264 c 1
 175 261 195 259 212 259 c 0
 331 259 377 334 377 417 c 0
EndSplineSet
EndChar

StartChar: Q
Encoding: 81 81 51
Width: 559
VWidth: 850
GlyphClass: 2
Flags: HMW
AnchorPoint: "Above" 287 595 basechar 0
AnchorPoint: "Below" 272 -42 basechar 0
LayerCount: 2
Fore
SplineSet
779 -145 m 2
 718 -206 l 1
 681 -236 663 -254 604 -254 c 0
 565 -254 527 -235 492 -197 c 2
 320 -8 l 1
 306 -11 291 -11 277 -11 c 0
 142 -11 20 124 20 258 c 0
 20 433 128 589 287 589 c 0
 458 589 536 436 536 305 c 0
 536 213 494 85 405 24 c 1
 559 -141 l 2
 589 -173 614 -194 664 -194 c 0
 712 -194 747 -149 766 -134 c 0
 771 -133 781 -139 779 -145 c 2
471 252 m 0
 471 368 373 514 241 514 c 0
 176 514 89 491 89 346 c 0
 89 202 222 69 313 69 c 0
 464 69 471 182 471 252 c 0
EndSplineSet
EndChar

StartChar: R
Encoding: 82 82 52
Width: 640
VWidth: 850
GlyphClass: 2
Flags: HMW
AnchorPoint: "Above" 230 595 basechar 0
AnchorPoint: "Below" 243 -42 basechar 0
LayerCount: 2
Fore
SplineSet
643 55 m 0
 634 29 571 -14 537 -14 c 0
 468 -14 439 28 397 77 c 0
 345 140 312 170 264 230 c 1
 233 224 196 221 156 220 c 1
 156 182 156 85 156 47 c 1
 179 30 210 32 236 28 c 1
 240 24 243 19 243 14 c 0
 243 10 241 6 237 2 c 0
 214 -8 153 -9 121 -9 c 0
 89 -9 51 -5 14 1 c 0
 11 3 9 9 9 15 c 0
 9 20 10 25 14 28 c 0
 34 33 60 32 73 45 c 1
 73 226 71 461 68 535 c 1
 54 553 32 553 14 556 c 0
 11 557 10 562 10 566 c 0
 10 570 11 573 14 574 c 0
 63 581 74 582 100 582 c 0
 118 582 144 582 194 582 c 0
 216 582 242 582 274 582 c 0
 275 582 277 582 278 582 c 0
 396 582 462 514 462 439 c 0
 462 357 423 295 347 258 c 1
 385 216 412 192 457 138 c 0
 497 90 517 48 587 48 c 0
 605 48 622 52 635 65 c 0
 640 66 644 62 643 55 c 0
377 417 m 0
 377 488 326 552 253 552 c 0
 191 552 165 539 153 535 c 0
 153 533 153 529 153 525 c 0
 153 506 151 466 151 430 c 0
 151 426 151 421 151 417 c 0
 152 370 154 311 155 247 c 1
 317 253 377 322 377 417 c 0
EndSplineSet
EndChar

StartChar: S
Encoding: 83 83 53
Width: 562
VWidth: 850
GlyphClass: 2
Flags: HMW
AnchorPoint: "Above" 301 595 basechar 0
AnchorPoint: "Below" 292 -42 basechar 0
LayerCount: 2
Fore
SplineSet
545 156 m 0
 545 59 412 -26 262 -26 c 0
 191 -26 166 67 154 92 c 1
 167 116 190 125 212 125 c 0
 229 125 245 120 256 112 c 1
 268 89 294 37 338 37 c 0
 415 37 436 56 436 101 c 0
 436 139 395 206 235 206 c 0
 230 206 225 206 220 206 c 0
 132 206 11 208 11 294 c 0
 11 336 26 388 74 443 c 0
 173 559 292 589 336 589 c 0
 396 589 453 548 465 500 c 1
 460 473 422 446 401 446 c 0
 400 446 400 446 399 446 c 0
 366 477 326 508 282 508 c 0
 188 508 67 439 67 363 c 0
 67 290 191 288 303 288 c 0
 310 288 318 288 325 288 c 0
 409 288 545 261 545 156 c 0
EndSplineSet
EndChar

StartChar: T
Encoding: 84 84 54
Width: 581
VWidth: 850
GlyphClass: 2
Flags: HMW
AnchorPoint: "Above" 286 595 basechar 0
AnchorPoint: "Below" 282 -42 basechar 0
LayerCount: 2
Fore
SplineSet
570 483 m 0
 567 476 558 471 550 479 c 1
 544 493 521 519 503 535 c 1
 479 542 458 543 438 543 c 0
 428 543 418 543 408 543 c 0
 342 543 334 515 333 501 c 0
 330 427 328 235 328 54 c 1
 335 36 353 30 387 27 c 0
 391 24 392 19 392 14 c 0
 392 8 390 2 387 0 c 0
 351 -4 330 -4 312 -4 c 0
 302 -4 292 -4 280 -4 c 0
 247 -4 190 -2 164 1 c 1
 160 5 158 9 158 13 c 0
 158 18 161 23 165 27 c 1
 197 29 225 34 245 54 c 1
 245 83 246 230 246 230 c 2
 247 300 249 357 250 408 c 0
 250 412 250 417 250 421 c 0
 250 454 248 479 248 493 c 0
 248 496 248 499 248 501 c 0
 248 515 239 543 173 543 c 0
 163 543 154 543 144 543 c 0
 124 543 102 543 78 536 c 1
 60 521 37 493 31 479 c 1
 23 471 14 476 11 483 c 0
 11 486 11 491 11 496 c 0
 11 524 13 572 19 582 c 1
 81 583 227 583 289 583 c 0
 350 583 501 583 563 582 c 1
 569 572 571 525 571 498 c 0
 571 492 570 486 570 483 c 0
EndSplineSet
EndChar

StartChar: U
Encoding: 85 85 55
Width: 627
VWidth: 850
GlyphClass: 2
Flags: HMW
AnchorPoint: "Above" 298 595 basechar 0
AnchorPoint: "Below" 269 -42 basechar 0
LayerCount: 2
Fore
SplineSet
507 -33 m 0
 479 -33 454 3 454 32 c 0
 454 47 452 73 452 73 c 1
 398 22 338 -15 263 -15 c 0
 150 -15 10 48 10 208 c 0
 10 334 43 409 43 429 c 0
 43 457 19 475 -14 478 c 0
 -18 481 -19 485 -19 489 c 0
 -19 493 -18 497 -14 500 c 2
 -14 500 76 576 141 576 c 0
 158 576 162 566 162 550 c 0
 162 500 83 405 83 280 c 0
 83 168 188 56 333 56 c 0
 379 56 429 82 451 100 c 1
 451 100 450 132 450 147 c 0
 450 206 458 320 458 408 c 0
 458 455 442 461 382 477 c 0
 378 481 377 485 377 490 c 0
 377 494 379 498 382 502 c 0
 408 523 476 572 527 572 c 0
 547 572 552 563 552 547 c 0
 552 521 540 480 537 435 c 0
 532 375 532 330 532 287 c 0
 532 265 532 244 532 222 c 0
 532 182 536 158 536 104 c 0
 536 18 610 53 610 31 c 0
 610 10 555 -33 507 -33 c 0
EndSplineSet
EndChar

StartChar: V
Encoding: 86 86 56
Width: 623
VWidth: 850
GlyphClass: 2
Flags: HMW
AnchorPoint: "Above" 326 595 basechar 0
AnchorPoint: "Below" 314 -42 basechar 0
LayerCount: 2
Fore
SplineSet
632 568 m 1
 632 552 627 536 624 523 c 0
 613 471 585 409 564 366 c 0
 511 260 411 97 351 3 c 0
 343 -9 333 -21 316 -21 c 0
 302 -21 283 -16 277 -4 c 0
 223 106 179 189 127 283 c 0
 78 371 51 410 12 465 c 0
 6 473 0 475 -8 474 c 0
 -15 475 -20 486 -20 491 c 0
 -17 502 36 534 59 554 c 0
 80 571 102 584 105 586 c 0
 110 586 121 571 118 566 c 0
 112 561 89 544 89 528 c 0
 89 525 90 521 92 518 c 0
 129 465 154 437 205 343 c 0
 270 226 280 187 332 93 c 0
 337 85 341 78 347 78 c 0
 351 78 357 83 365 96 c 0
 430 204 454 245 518 372 c 0
 554 443 565 497 565 508 c 0
 565 529 515 538 507 545 c 0
 506 550 511 566 515 569 c 0
 517 570 537 571 559 571 c 0
 591 571 628 570 632 568 c 1
EndSplineSet
EndChar

StartChar: W
Encoding: 87 87 57
Width: 882
VWidth: 850
GlyphClass: 2
Flags: HMW
AnchorPoint: "Above" 449 595 basechar 0
AnchorPoint: "Below" 449 -42 basechar 0
LayerCount: 2
Fore
SplineSet
892 568 m 1
 892 552 887 536 884 523 c 0
 873 471 846 409 825 366 c 0
 772 260 671 97 611 3 c 0
 603 -9 593 -21 576 -21 c 0
 562 -21 543 -16 537 -4 c 2
 451 164 l 1
 351 3 l 2
 343 -9 333 -21 316 -21 c 0
 302 -21 283 -16 277 -4 c 0
 223 106 179 189 127 283 c 0
 78 371 51 410 12 465 c 0
 6 473 0 475 -8 474 c 0
 -15 475 -20 486 -20 491 c 0
 -17 502 36 534 59 554 c 0
 80 571 102 585 105 587 c 0
 110 587 121 571 118 566 c 0
 112 561 89 544 89 528 c 0
 89 525 90 521 92 518 c 0
 129 465 154 437 205 343 c 0
 270 226 280 188 332 94 c 0
 337 86 341 78 347 78 c 0
 351 78 357 83 365 96 c 2
 429 205 l 1
 387 283 l 2
 338 371 311 410 272 465 c 0
 266 473 260 475 252 474 c 0
 245 475 240 486 240 491 c 0
 243 502 296 534 319 554 c 0
 340 571 363 584 366 586 c 0
 371 586 381 571 378 566 c 0
 372 561 349 544 349 528 c 0
 349 525 350 521 352 518 c 0
 389 465 414 437 465 343 c 2
 485 306 l 1
 519 372 l 2
 555 443 565 497 565 508 c 0
 565 529 515 538 507 545 c 0
 506 550 511 566 515 569 c 0
 517 570 537 571 559 571 c 0
 591 571 628 570 632 568 c 1
 632 552 627 536 624 523 c 0
 613 471 585 409 564 366 c 0
 549 335 529 299 507 261 c 1
 538 200 555 161 592 93 c 0
 597 85 601 78 607 78 c 0
 611 78 617 83 625 96 c 0
 690 204 715 245 779 372 c 0
 815 443 826 497 826 508 c 0
 826 529 775 538 767 545 c 0
 766 550 771 566 775 569 c 0
 777 570 797 571 819 571 c 0
 851 571 888 570 892 568 c 1
EndSplineSet
Substitution2: "'hist' Historical Forms lookup 4 subtable" uni01F7
EndChar

StartChar: X
Encoding: 88 88 58
Width: 736
VWidth: 850
GlyphClass: 2
Flags: HMW
AnchorPoint: "Above" 379 595 basechar 0
AnchorPoint: "Below" 360 -42 basechar 0
LayerCount: 2
Fore
SplineSet
752 71 m 0
 724 39 670 -11 605 -11 c 0
 494 -11 429 127 360 263 c 1
 319 208 300 171 245 104 c 0
 220 74 162 -9 98 -9 c 0
 61 -9 33 15 20 51 c 1
 23 72 55 111 78 111 c 0
 79 111 79 111 80 111 c 0
 93 75 103 59 140 59 c 0
 174 59 199 93 224 128 c 2
 347 297 l 1
 305 390 201 518 103 518 c 0
 74 518 54 512 29 495 c 1
 19 498 15 507 15 516 c 0
 15 522 17 529 21 534 c 0
 52 568 112 581 161 581 c 0
 271 581 372 464 414 371 c 1
 452 417 538 505 561 520 c 0
 591 540 657 579 705 579 c 0
 729 579 738 556 741 541 c 1
 740 523 706 481 685 481 c 0
 684 481 682 481 681 481 c 0
 673 498 670 519 648 519 c 0
 577 519 471 402 426 345 c 1
 499 185 560 49 666 49 c 0
 688 49 721 65 745 85 c 0
 750 89 754 91 756 91 c 0
 758 91 760 89 760 87 c 0
 760 83 757 76 752 71 c 0
EndSplineSet
EndChar

StartChar: Y
Encoding: 89 89 59
Width: 481
VWidth: 850
GlyphClass: 2
Flags: HMW
AnchorPoint: "Above" 248 598 basechar 0
AnchorPoint: "Below" 235 -42 basechar 0
LayerCount: 2
Fore
SplineSet
486 558 m 0
 466 556 457 553 439 544 c 1
 390 441 327 267 279 161 c 1
 276 139 272 100 272 45 c 1
 291 26 309 27 335 24 c 1
 339 20 341 15 341 10 c 0
 341 6 340 1 336 -3 c 0
 311 -10 266 -10 234 -10 c 0
 202 -10 173 -7 133 -3 c 0
 130 -1 128 4 128 10 c 0
 128 15 129 21 133 24 c 0
 151 27 171 25 184 39 c 1
 184 118 183 149 167 191 c 0
 159 211 150 231 144 257 c 1
 113 339 56 477 31 544 c 1
 16 559 3 562 -11 562 c 0
 -14 563 -16 568 -16 572 c 0
 -16 576 -14 579 -11 580 c 0
 10 584 66 587 82 587 c 0
 90 587 98 587 104 587 c 0
 139 587 152 587 180 579 c 1
 182 577 183 574 183 571 c 3
 183 567 182 563 180 561 c 1
 154 561 127 555 112 541 c 1
 132 471 183 352 210 287 c 1
 226 264 233 233 250 213 c 1
 251 212 253 211 254 211 c 3
 255 211 256 211 257 213 c 1
 297 296 376 487 395 544 c 1
 382 557 367 557 346 559 c 1
 343 560 341 565 341 569 c 3
 341 573 343 576 346 577 c 1
 367 581 398 586 414 586 c 0
 465 586 453 584 486 575 c 0
 488 573 489 570 489 567 c 0
 489 563 488 560 486 558 c 0
EndSplineSet
EndChar

StartChar: Z
Encoding: 90 90 60
Width: 465
VWidth: 850
GlyphClass: 2
Flags: HMW
AnchorPoint: "Above" 238 595 basechar 0
AnchorPoint: "Below" 220 -42 basechar 0
LayerCount: 2
Fore
SplineSet
447 141 m 0
 443 82 443 27 434 -1 c 1
 350 -3 l 2
 245 -6 115 -3 25 -6 c 0
 23 -6 l 0
 15 -6 10 -1 10 6 c 0
 10 9 11 12 13 15 c 0
 146 191 246 374 356 559 c 1
 347 560 337 560 327 560 c 0
 313 560 298 559 284 559 c 0
 201 556 102 539 65 466 c 0
 51 439 51 426 45 400 c 1
 38 395 33 390 25 403 c 1
 26 442 27 547 35 584 c 1
 422 584 l 2
 448 584 457 579 457 573 c 0
 457 567 450 559 445 552 c 0
 326 384 241 208 132 35 c 0
 132 33 131 29 133 29 c 0
 155 28 180 27 204 27 c 0
 268 27 334 34 382 67 c 0
 394 75 411 101 426 145 c 0
 430 151 444 149 447 141 c 0
EndSplineSet
EndChar

StartChar: bracketleft
Encoding: 91 91 61
Width: 384
GlyphClass: 2
Flags: MW
LayerCount: 2
Fore
SplineSet
362 -137 m 0
 323 -141 212.999023438 -167 185.999023438 -167 c 0
 135.999023438 -167 135.999023438 -136 135.999023438 -75 c 0
 135.999023438 25 133.999023438 48 133.999023438 148 c 0
 133.999023438 323 141.999023438 421 141.999023438 596 c 0
 141.999023438 634 144.999023438 640 145.999023438 674 c 1
 154.999023438 710 176.999023438 728 216.999023438 740 c 1
 257.999023438 740 319.999023438 733 353.999023438 730 c 0
 362.73828125 727.669921875 367.404296875 719.909179688 367.404296875 712.452148438 c 0
 367.404296875 707.109375 365.008789062 701.921875 360 699 c 0
 337 694 274 680 213 673 c 1
 213 649 l 2
 213 474 205 394 205 219 c 0
 205 119 207 5 207 -94 c 1
 231.529296875 -97.84765625 257.21484375 -99.3818359375 282.611328125 -99.3818359375 c 0
 310.017578125 -99.3818359375 337.086914062 -97.5947265625 362.000976562 -95 c 0
 371.41796875 -96.9619140625 374.676757812 -103.541992188 374.676757812 -110.935546875 c 0
 374.676757812 -122.385742188 366.861328125 -135.78515625 362 -137 c 0
EndSplineSet
Validated: 1
EndChar

StartChar: backslash
Encoding: 92 92 62
Width: 344
GlyphClass: 2
Flags: MW
LayerCount: 2
Fore
SplineSet
349 23 m 1
 300 -13 l 1
 256 129 203 200 146 336 c 0
 109 425 86 472 48 560 c 0
 28 607 19 634 -5 678 c 1
 43 715 l 1
 70 671 77 644 97 597 c 0
 135 509 158 462 195 373 c 0
 252 237 305 167 349 23 c 1
EndSplineSet
Validated: 1
EndChar

StartChar: bracketright
Encoding: 93 93 63
Width: 384
GlyphClass: 2
Flags: MW
LayerCount: 2
Fore
SplineSet
244 424 m 0
 244 249 236.000976562 151.000976562 236.000976562 -23.9990234375 c 0
 236.000976562 -61.9990234375 233.000976562 -67.9990234375 232.000976562 -101.999023438 c 1
 223.000976562 -137.999023438 201.000976562 -155.999023438 161.000976562 -167.999023438 c 1
 120.000976562 -167.999023438 58.0009765625 -160.999023438 24.0009765625 -157.999023438 c 0
 15.2626953125 -155.668945312 10.5966796875 -147.908203125 10.5966796875 -140.451171875 c 0
 10.5966796875 -135.108398438 12.9921875 -129.921875 18.0009765625 -127 c 0
 41.0009765625 -122 104.000976562 -108 165.000976562 -101 c 1
 165.000976562 -77 l 2
 165.000976562 98 173.000976562 178 173.000976562 353 c 0
 173.000976562 453 171.000976562 567 171.000976562 666 c 1
 146.471679688 669.84765625 120.786132812 671.381835938 95.3896484375 671.381835938 c 0
 67.9833984375 671.381835938 40.9140625 669.594726562 16 667 c 0
 6.5830078125 668.961914062 3.32421875 675.541992188 3.32421875 682.935546875 c 0
 3.32421875 694.385742188 11.138671875 707.78515625 16 709 c 0
 55 713 165 739 192 739 c 0
 242 739 242 708 242 647 c 0
 242 547 244 524 244 424 c 0
EndSplineSet
Validated: 1
EndChar

StartChar: asciicircum
Encoding: 94 94 64
Width: 535
GlyphClass: 2
Flags: MW
LayerCount: 2
Fore
SplineSet
63 286 m 1
 232 639 l 1
 299 670 l 1
 467 311 l 1
 401 280 l 1
 264 571 l 1
 136 304 l 1
 70 273 l 1
 63 286 l 1
EndSplineSet
Validated: 1
EndChar

StartChar: underscore
Encoding: 95 95 65
Width: 500
GlyphClass: 2
Flags: MW
LayerCount: 2
Fore
SplineSet
500 -125 m 1
 0 -125 l 1
 0 -75 l 1
 500 -75 l 1
 500 -125 l 1
EndSplineSet
Validated: 1
EndChar

StartChar: grave
Encoding: 96 96 66
Width: 316
GlyphClass: 2
Flags: MW
LayerCount: 2
Fore
SplineSet
45.30078125 529.709960938 m 1
 58.8818359375 546.817382812 76.5810546875 554.094726562 95.7275390625 554.094726562 c 0
 128.374023438 554.094726562 146.692382812 538.333007812 170.254882812 512.75390625 c 0
 229.905273438 448 268.286132812 394.94140625 285.727539062 361.403320312 c 1
 281.905273438 357 l 1
 247.905273438 404 219.905273438 443 195.905273438 467 c 0
 173.262695312 489.642578125 160.676757812 500.139648438 134 500.139648438 c 0
 114.01953125 500.139648438 96.5322265625 488.705078125 73.517578125 488.178710938 c 1
 57.4443359375 495.854492188 45.212890625 514.852539062 45.212890625 527.852539062 c 0
 45.212890625 528.486328125 45.2412109375 529.106445312 45.30078125 529.709960938 c 1
EndSplineSet
Validated: 1
EndChar

StartChar: a
Encoding: 97 97 67
Width: 339
GlyphClass: 2
Flags: MW
AnchorPoint: "Above" 185 340 basechar 0
AnchorPoint: "Below" 174 -50 basechar 0
LayerCount: 2
Fore
SplineSet
365 74 m 1
 356 63 297 0 248 0 c 0
 213 0 207 40 206 54 c 1
 153 17 115 -13 68 -13 c 0
 19 -13 18 89 18 89 c 1
 18 126 36 163 65 192 c 0
 117 244 220 304 229 304 c 0
 239 304 252 302 253 293 c 0
 260 208 263 120 273 83 c 0
 278 66 289 62 302 62 c 0
 314 62 344 75 361 85 c 1
 365 74 l 1
205 66 m 1
 203 84 205 180 199 227 c 0
 198 239 192 243 191 247 c 1
 159 227 83 185 83 131 c 0
 83 75 133 56 152 56 c 0
 171 56 205 66 205 66 c 1
EndSplineSet
Validated: 1
EndChar

StartChar: b
Encoding: 98 98 68
Width: 334
GlyphClass: 2
Flags: MW
AnchorPoint: "Above" 185 720 basechar 0
AnchorPoint: "Below" 168 -50 basechar 0
LayerCount: 2
Fore
SplineSet
322 100 m 0
 322 27 127 -15 114 -15 c 0
 64 -15 23 51 23 73 c 0
 23 91 46 174 58 242 c 0
 77 351 78 390 78 507 c 0
 78 562 62 609 -2 609 c 0
 -5 611 -7 615 -7 620 c 0
 -7 626 -5 632 -2 635 c 0
 15 650 96 693 111 693 c 0
 139 693 166 660 166 614 c 0
 166 597 152 591 141 497 c 0
 126 367 123 307 123 191 c 1
 137 201 201 238 251 238 c 0
 310 238 322 159 322 100 c 0
245 129 m 0
 245 155 209 180 177 180 c 2
 164 180 l 2
 152 180 140 177 124 154 c 1
 124 104 l 2
 124 62 157 50 189 50 c 0
 235 50 245 67 245 129 c 0
EndSplineSet
Validated: 1
EndChar

StartChar: c
Encoding: 99 99 69
Width: 238
GlyphClass: 2
Flags: MW
AnchorPoint: "Above" 133 350 basechar 0
AnchorPoint: "Below" 119 -50 basechar 0
LayerCount: 2
Fore
SplineSet
233 44 m 0
 206 15 171 -11 114 -11 c 0
 93 -11 21 19 21 143 c 0
 21 232 110 297 140 297 c 0
 182 297 213 263 213 226 c 1
 209 213 178 185 165 185 c 0
 139 192 132 233 101 233 c 0
 81 233 59 213 59 186 c 0
 59 146 125 43 168 43 c 0
 198 43 221 51 233 55 c 0
 234.5 53.5 235.25 51.75 235.25 49.875 c 0
 235.25 48 234.5 46 233 44 c 0
EndSplineSet
Validated: 1
EndChar

StartChar: d
Encoding: 100 100 70
Width: 274
GlyphClass: 2
Flags: MW
AnchorPoint: "Above" 141 561 basechar 0
AnchorPoint: "Below" 131 -50 basechar 0
LayerCount: 2
Fore
SplineSet
264 127 m 0
 264 21 136 -17 104 -17 c 0
 84 -17 16 1 16 85 c 0
 16 154 127 222 143 230 c 1
 114 291 55 399 -2 490 c 1
 -2 502 5 528 20 528 c 0
 39 528 44 527 52 523 c 1
 123 422 264 218 264 127 c 0
201 83 m 0
 201 122 177 171 161 196 c 1
 138 196 78 153 78 127 c 0
 78 85 95 26 150 26 c 0
 181 26 201 54 201 83 c 0
EndSplineSet
Validated: 1
EndChar

StartChar: e
Encoding: 101 101 71
Width: 321
GlyphClass: 2
Flags: MW
AnchorPoint: "Above" 191 350 basechar 0
AnchorPoint: "Below" 132 -50 basechar 0
LayerCount: 2
Fore
SplineSet
344 189 m 0
 319 168 280 145 214 145 c 0
 173 145 118 145 91 140 c 1
 96 110 132 46 186 46 c 0
 212 46 239 56 254 61 c 0
 259 60 261 55 258 49 c 0
 225 16 191 -15 131 -15 c 0
 55 -15 22 84 22 132 c 0
 22 150 24 167 28 181 c 0
 64 268 142 297 195 297 c 0
 231 297 254 276 254 244 c 0
 254 230 248 209 233 191 c 1
 247 191 l 2
 301 191 319 201 343 205 c 0
 345 204 347 200 347 197 c 0
 347 194 346 191 344 189 c 0
188 214 m 0
 188 237 175 248 145 248 c 0
 111 248 82 231 82 177 c 1
 109 184 141 189 184 190 c 1
 187 198 188 207 188 214 c 0
EndSplineSet
Validated: 1
Substitution2: "'swsh' Swash lookup 7 subtable" e.swash
EndChar

StartChar: f
Encoding: 102 102 72
Width: 282
GlyphClass: 2
Flags: MW
AnchorPoint: "Above" 131 350 basechar 0
AnchorPoint: "Below" 211 -50 basechar 0
LayerCount: 2
Fore
SplineSet
295 40 m 0
 228 14 206 2.001953125 116 -10.998046875 c 1
 116 -224.998046875 l 2
 116 -255.998046875 103 -258.998046875 83 -274.998046875 c 1
 75 -274.998046875 l 1
 67 -145.998046875 60 64.001953125 60 127.001953125 c 0
 60 146.001953125 45 194.001953125 -9 205.001953125 c 0
 -11.201171875 205.881835938 -12.0458984375 207.538085938 -12.0458984375 209.37109375 c 0
 -12.0458984375 211.703125 -10.6796875 214.323242188 -9 216.001953125 c 0
 3 226.001953125 62 269.001953125 96 269.001953125 c 0
 107 269.001953125 107 269.001953125 116 251.001953125 c 1
 143 277.001953125 185 299.001953125 207 299.001953125 c 0
 238 299.001953125 257 269.001953125 259 256.001953125 c 0
 259 236.001953125 239 205.001953125 223 204.001953125 c 1
 195 213.001953125 192 233.001953125 165 233.001953125 c 0
 143 233.001953125 116 219.001953125 116 200.001953125 c 2
 116 52.001953125 l 1
 161 52.001953125 232 54.001953125 295 64.001953125 c 0
 297.362304688 63.056640625 298.385742188 58.31640625 298.385742188 53.26171875 c 0
 298.385742188 47.6181640625 297.110351562 41.5830078125 295 40 c 0
EndSplineSet
Validated: 1
EndChar

StartChar: g
Encoding: 103 103 73
Width: 422
GlyphClass: 2
Flags: MW
AnchorPoint: "Above" 219 350 basechar 0
AnchorPoint: "Below" 205 -253 basechar 0
LayerCount: 2
Fore
SplineSet
431 289 m 0
 432.6953125 287.870117188 433.453125 286.240234375 433.453125 284.256835938 c 0
 433.453125 272.196289062 405.458984375 247.010742188 390.000976562 241 c 0
 330.000976562 232 284.000976562 224 218.000976562 221 c 1
 203.000976562 208 85.0009765625 135 85.0009765625 97 c 0
 85.0009765625 77.296875 107.899414062 74.634765625 132.322265625 74.634765625 c 0
 141.368164062 74.634765625 150.623046875 75 159.000976562 75 c 0
 334.000976562 75 414.000976562 -13 414.000976562 -74 c 0
 414.000976562 -152 274.000976562 -222 238.000976562 -222 c 0
 184.000976562 -222 148.000976562 -192 148.000976562 -160 c 0
 148.000976562 -132 151.000976562 -118 157.000976562 -101 c 0
 162.000976562 -92 183.000976562 -77 193.000976562 -77 c 0
 207.000976562 -77 220.000976562 -78 228.000976562 -83 c 1
 224.000976562 -91 221.000976562 -104 221.000976562 -117 c 0
 221.000976562 -141 235.000976562 -166 288.000976562 -166 c 0
 308.000976562 -166 360.000976562 -137 360.000976562 -110 c 0
 360.000976562 -52 284.000976562 10 142.000976562 10 c 0
 22.0009765625 10 7.0009765625 25 7.0009765625 36 c 0
 7.0009765625 45 12.0009765625 67 24.0009765625 84 c 0
 58.302734375 131.640625 141.629882812 180.189453125 141.629882812 213.211914062 c 0
 141.629882812 214.845703125 141.42578125 216.442382812 141.000976562 217.999023438 c 0
 110.000976562 218.999023438 61.0009765625 216.999023438 32.0009765625 224.999023438 c 0
 23.0009765625 226.999023438 6.0009765625 234.999023438 -1.9990234375 242.999023438 c 0
 -2.505859375 244.8984375 -2.740234375 247.24609375 -2.740234375 249.901367188 c 0
 -2.740234375 268.21484375 8.392578125 301.126953125 18 302 c 0
 34 297 39 280 54 278 c 0
 89 274 137 272 181 272 c 0
 225 272 376 284 431 289 c 0
EndSplineSet
Validated: 1
Substitution2: "'salt' Stylistic Alternatives lookup 6 subtable" g.alt
EndChar

StartChar: h
Encoding: 104 104 74
Width: 303
GlyphClass: 2
Flags: MW
AnchorPoint: "Above" 165 720 basechar 0
AnchorPoint: "Below" 140 -50 basechar 0
LayerCount: 2
Fore
SplineSet
280 44 m 0
 280 33 252 -15.0009765625 208 -15.0009765625 c 0
 200 -15.0009765625 193 -11.0009765625 189 -3.0009765625 c 1
 189 30.9990234375 214 161.999023438 214 201.999023438 c 0
 214 211.999023438 212 220.999023438 201 220.999023438 c 0
 142 220.999023438 101 189.999023438 99 160.999023438 c 0
 98 141.999023438 92 64.9990234375 92 6.9990234375 c 1
 82 -1.0009765625 73 -6.0009765625 60 -6.0009765625 c 0
 49 -6.0009765625 36 -0.0009765625 23 6.9990234375 c 1
 55 189.999023438 57 392.999023438 57 497.999023438 c 0
 57 540.999023438 1 580.999023438 -19 580.999023438 c 0
 -22.4501953125 584.44921875 -23.8544921875 591.43359375 -23.8544921875 598.502929688 c 0
 -23.8544921875 607.825195312 -21.412109375 617.293945312 -18 619 c 0
 -8 627 80 693 110 693 c 0
 124 693 126 676 126 652 c 0
 126 522 113 315 102 215 c 1
 139 249 187 283 233 283 c 0
 244 283 274 271 274 239 c 0
 274 229 253 143 253 77 c 0
 253 54 280 55 280 44 c 0
EndSplineSet
Validated: 1
EndChar

StartChar: i
Encoding: 105 105 75
Width: 180
GlyphClass: 2
Flags: MW
AnchorPoint: "Above" 96 540 basechar 0
AnchorPoint: "Below" 97 -50 basechar 0
LayerCount: 2
Fore
SplineSet
153 446 m 0
 153 426 144 382 114 382 c 0
 58 382 41 433 41 447 c 0
 41 463 69 493 94 493 c 0
 120 493 153 466 153 446 c 0
158 60 m 0
 158 35 126 8.001953125 113 -4.998046875 c 0
 109 -8.998046875 98 -13.998046875 87 -13.998046875 c 0
 77 -13.998046875 68 -6.998046875 62 3.001953125 c 1
 71 47.001953125 78 136.001953125 78 161.001953125 c 0
 78 188.001953125 47 201.001953125 15 215.001953125 c 0
 12.9814453125 215.80859375 12.103515625 218.409179688 12.103515625 221.486328125 c 0
 12.103515625 226.03125 14.0185546875 231.616210938 17 234.000976562 c 0
 44 255.000976562 85 293.000976562 119 293.000976562 c 0
 140.16015625 293.000976562 141.005859375 266.762695312 141.005859375 246.990234375 c 0
 141.005859375 207.4921875 126 136.397460938 126 89 c 0
 126 66 158 70 158 60 c 0
EndSplineSet
Validated: 1
Substitution2: "Single Substitution lookup 11 subtable" dotlessi
Substitution2: "'hist' Historical Forms lookup 4 subtable" dotlessi
EndChar

StartChar: j
Encoding: 106 106 76
Width: 175
GlyphClass: 2
Flags: MW
AnchorPoint: "Above" 92 534 basechar 0
AnchorPoint: "Below" 100 -312 basechar 0
LayerCount: 2
Fore
SplineSet
153 446 m 0
 153 426 144 382 114 382 c 0
 58 382 41 433 41 447 c 0
 41 463 69 493 94 493 c 0
 120 493 153 466 153 446 c 0
126 33 m 0
 126 3 129 -46.9990234375 129 -86.9990234375 c 0
 129 -96.1240234375 129.015625 -105.530273438 129.015625 -115.045898438 c 0
 129.015625 -181.655273438 128.25 -253.624023438 116 -271.999023438 c 2
 102 -292.999023438 l 1
 91 -292.999023438 l 1
 86 -279.999023438 73 -213.999023438 73 -158.999023438 c 2
 73 161.000976562 l 2
 73 188.000976562 42 201.000976562 10 215.000976562 c 0
 7.9814453125 215.807617188 7.103515625 218.408203125 7.103515625 221.485351562 c 0
 7.103515625 226.030273438 9.0185546875 231.615234375 12 234 c 0
 39 255 80 293 114 293 c 0
 135.16015625 293 136.005859375 266.76171875 136.005859375 246.989257812 c 0
 136.005859375 209.015625 126 87.849609375 126 33 c 0
EndSplineSet
Validated: 1
Substitution2: "'hist' Historical Forms lookup 4 subtable" dotlessi
EndChar

StartChar: k
Encoding: 107 107 77
Width: 374
GlyphClass: 2
Flags: MW
AnchorPoint: "Above" 184 720 basechar 0
AnchorPoint: "Below" 172 -50 basechar 0
LayerCount: 2
Fore
SplineSet
380 254 m 1
 379 235 352.999023438 208.997070312 334.999023438 208.997070312 c 1
 314.999023438 213.997070312 309.999023438 238.997070312 291.999023438 238.997070312 c 0
 284.999023438 238.997070312 274.999023438 235.997070312 266.999023438 228.997070312 c 2
 205.999023438 175.997070312 l 1
 228.999023438 112.997070312 266.999023438 44.9970703125 315.999023438 44.9970703125 c 0
 332.999023438 44.9970703125 346.999023438 56.9970703125 360.999023438 64.9970703125 c 0
 366.999023438 64.9970703125 372.999023438 58.9970703125 368.999023438 51.9970703125 c 0
 353.999023438 34.9970703125 311.999023438 -11.0029296875 264.999023438 -11.0029296875 c 0
 216.999023438 -11.0029296875 190.999023438 44.9970703125 153.999023438 140.997070312 c 1
 142.999023438 133.997070312 118.999023438 124.997070312 100.999023438 120.997070312 c 1
 100.999023438 106.815429688 100.106445312 82.5185546875 100.106445312 53.623046875 c 0
 100.106445312 29.5439453125 100.7265625 2.271484375 103 -25.0009765625 c 1
 95 -33.0009765625 82 -38.0009765625 67 -38.0009765625 c 0
 56 -38.0009765625 47 -38.0009765625 34 -29.0009765625 c 1
 42 92.9990234375 50 419.999023438 50 496.999023438 c 0
 50 539.999023438 -6 579.999023438 -26 579.999023438 c 0
 -29.4501953125 583.44921875 -30.8544921875 590.43359375 -30.8544921875 597.502929688 c 0
 -30.8544921875 606.825195312 -28.412109375 616.293945312 -25 618 c 0
 -15 626 77 692 107 692 c 0
 121 692 123 675 123 651 c 0
 123 521 107 239 102 155 c 1
 147 170 193 202 229 237 c 0
 246 254 291 297 315 297 c 0
 342 297 372 283 380 254 c 1
EndSplineSet
Validated: 1
Substitution2: "'swsh' Swash lookup 7 subtable" k.swash
EndChar

StartChar: l
Encoding: 108 108 78
Width: 225
GlyphClass: 2
Flags: MW
AnchorPoint: "Above" 125 720 basechar 0
AnchorPoint: "Below" 116 -50 basechar 0
LayerCount: 2
Fore
SplineSet
268 78 m 0
 219 7 140.000976562 -12 87.0009765625 -12 c 0
 57.0009765625 -12 25.0009765625 12 25.0009765625 61 c 0
 25.0009765625 75 46.0009765625 198 61.0009765625 317 c 0
 72.0009765625 405 77.0009765625 453 77.0009765625 529 c 0
 77.0009765625 558 32.0009765625 612 -4.9990234375 612 c 0
 -9.6552734375 614.328125 -12.279296875 621.059570312 -12.279296875 627.857421875 c 0
 -12.279296875 632.739257812 -10.92578125 637.65625 -8 641 c 0
 18 659 88 700 115 700 c 0
 145 700 145 631 145 591 c 0
 145 421 100 232 100 142 c 0
 100 76 127 57 162 57 c 0
 194 57 241 71 261 92 c 0
 266 92 269 82 268 78 c 0
EndSplineSet
Validated: 1
EndChar

StartChar: m
Encoding: 109 109 79
Width: 486
GlyphClass: 2
Flags: MW
AnchorPoint: "Above" 241 350 basechar 0
AnchorPoint: "Below" 226 -50 basechar 0
LayerCount: 2
Fore
SplineSet
457 223 m 0
 457 198 431 102.999023438 429 69.9990234375 c 0
 428 51.9990234375 443 58.9990234375 443 51.9990234375 c 0
 443 19.9990234375 409 -12.0009765625 383 -12.0009765625 c 0
 374 -12.0009765625 361 -3.0009765625 363 6.9990234375 c 0
 373 60.9990234375 389 122.999023438 389 159.999023438 c 0
 389 187.999023438 383 208.999023438 358 208.999023438 c 0
 311 208.999023438 277 173.999023438 272 143.999023438 c 0
 268 121.999023438 263 52.9990234375 257 17.9990234375 c 0
 255 5.9990234375 232 -12.0009765625 219 -12.0009765625 c 0
 201 -12.0009765625 199 7.9990234375 199 40.9990234375 c 0
 199 56.9990234375 205 74.9990234375 207 88.9990234375 c 0
 211 120.999023438 213 160.999023438 213 195.999023438 c 0
 213 211.999023438 201 212.999023438 191 212.999023438 c 0
 159 212.999023438 101 157.999023438 101 130.999023438 c 2
 101 53.9990234375 l 2
 101 38.9990234375 116 44.9990234375 116 37.9990234375 c 0
 116 15.9990234375 91 -10.0009765625 67 -10.0009765625 c 0
 53 -10.0009765625 43 5.9990234375 43 19.9990234375 c 0
 43 40.9990234375 53 134.999023438 53 160.999023438 c 0
 53 187.999023438 32 212.999023438 21 212.999023438 c 0
 16.3935546875 214.53515625 13.62109375 223.14453125 13.62109375 232.122070312 c 0
 13.62109375 240.685546875 16.142578125 249.583007812 22 253 c 0
 41 264 58 272 83 272 c 0
 98.20703125 272 100.303710938 256.79296875 100.303710938 235.872070312 c 0
 100.303710938 227.90234375 100 219.103515625 100 210.000976562 c 1
 145 251.000976562 231 286.000976562 261 286.000976562 c 0
 280.612304688 286.000976562 284.21484375 259.18359375 284.21484375 239.481445312 c 0
 284.21484375 228.041015625 283 219 283 219 c 1
 318 238 383 272 414 272 c 0
 435 272 457 234 457 223 c 0
EndSplineSet
Validated: 1
EndChar

StartChar: n
Encoding: 110 110 80
Width: 347
GlyphClass: 2
Flags: MW
AnchorPoint: "Above" 201 350 basechar 0
AnchorPoint: "Below" 176 -50 basechar 0
LayerCount: 2
Fore
SplineSet
318 257 m 0
 318 229 288 66.9990234375 288 52.9990234375 c 0
 288 39.9990234375 318 37.9990234375 318 20.9990234375 c 0
 318 -1.0009765625 280 -12.0009765625 252 -12.0009765625 c 0
 244 -12.0009765625 217 2.9990234375 217 35.9990234375 c 0
 217 102.999023438 245 172.999023438 245 202.999023438 c 0
 245 217.999023438 233 230.999023438 217 230.999023438 c 0
 189 230.999023438 137 192.999023438 129 170.999023438 c 0
 120 146.999023438 103 72.9990234375 103 52.9990234375 c 0
 103 45.9990234375 118 43.9990234375 118 29.9990234375 c 0
 118 5.9990234375 78 -12.0009765625 64 -12.0009765625 c 0
 53 -12.0009765625 32 8.9990234375 32 51.9990234375 c 0
 32 68.9990234375 72 145.999023438 72 177.999023438 c 0
 72 193.999023438 66 227.999023438 24 227.999023438 c 0
 18.3486328125 227.999023438 15.251953125 235.025390625 15.251953125 242.219726562 c 0
 15.251953125 247.755859375 17.0859375 253.390625 21 256 c 0
 46 272 82 298 98 298 c 0
 113 298 132 279 132 263 c 0
 132 246 129 220 129 220 c 1
 196 242 253 285 289 285 c 0
 312 285 318 271 318 257 c 0
EndSplineSet
Validated: 1
EndChar

StartChar: o
Encoding: 111 111 81
Width: 289
GlyphClass: 2
Flags: MW
AnchorPoint: "Above" 179 350 basechar 0
AnchorPoint: "Below" 148 -50 basechar 0
LayerCount: 2
Fore
SplineSet
278 151 m 0
 278 133 272 94 250 68 c 0
 233 48 164 -12 114 -12 c 0
 56 -12 22 14 22 104 c 0
 22 198 71 294 187 294 c 0
 256 294 278 186 278 151 c 0
209 139 m 0
 209 170 165 251 133 251 c 0
 101 251 86 222 86 184 c 0
 86 141 104 58 166 58 c 0
 203 58 209 109 209 139 c 0
EndSplineSet
Validated: 1
EndChar

StartChar: p
Encoding: 112 112 82
Width: 331
GlyphClass: 2
Flags: MW
AnchorPoint: "Above" 163 350 basechar 0
AnchorPoint: "Below" 206 -50 basechar 0
LayerCount: 2
Fore
SplineSet
315 159 m 0
 315 92 280 -5.9990234375 111 -18.9990234375 c 1
 112 -86.9990234375 l 2
 112.2109375 -102.393554688 112.376953125 -118.590820312 112.376953125 -134.76171875 c 0
 112.376953125 -195.268554688 110.046875 -255.427734375 99 -271.999023438 c 2
 85 -292.999023438 l 1
 74 -292.999023438 l 1
 69 -279.999023438 56 -213.999023438 56 -158.999023438 c 2
 57 130.000976562 l 2
 57 166.000976562 41 209.000976562 16 213.000976562 c 0
 12.884765625 213.51953125 11.1171875 220.237304688 11.1171875 227.137695312 c 0
 11.1171875 233.529296875 12.6337890625 240.077148438 16 242 c 0
 47 259 69 275 92 275 c 0
 120 275 123 265 127 235 c 1
 157 250 172 291 205 291 c 0
 241 291 315 248 315 159 c 0
241 107.000976562 m 0
 241 146.000976562 187 229.000976562 150 229.000976562 c 0
 132 229.000976562 113 200.000976562 113 171.000976562 c 2
 113 86.0009765625 l 2
 113 58.0009765625 151 50.0009765625 196 50.0009765625 c 0
 234 50.0009765625 241 65.0009765625 241 107.000976562 c 0
EndSplineSet
Validated: 1
EndChar

StartChar: q
Encoding: 113 113 83
Width: 323
GlyphClass: 2
Flags: MW
AnchorPoint: "Above" 169 350 basechar 0
AnchorPoint: "Below" 104 -50 basechar 0
LayerCount: 2
Fore
SplineSet
285 170 m 0
 285 17 283 -69 277 -215 c 0
 276 -244 246 -299 232 -299 c 0
 223 -299 218 -289 218 -271 c 0
 218 -182 226 -54 226 37 c 1
 216 23 167 -11 134 -11 c 0
 51 -11 24 35 24 120 c 0
 24 221 103 291 174 291 c 0
 199 291 224 278 240 267 c 1
 250 290 272 319 276 323 c 0
 279.608398438 325.885742188 296.229492188 330.333984375 304.83203125 330.333984375 c 0
 307.95703125 330.333984375 310.024414062 329.747070312 310.024414062 328.284179688 c 0
 310.024414062 317.670898438 285 239.965820312 285 170 c 0
224 102 m 2
 224 159 l 2
 224 206 171 247 141 247 c 0
 114 247 93 223 93 174 c 0
 93 116 115 56 165 56 c 0
 186 56 224 65 224 102 c 2
EndSplineSet
Validated: 1
EndChar

StartChar: r
Encoding: 114 114 84
Width: 308
GlyphClass: 2
Flags: HMW
AnchorPoint: "Above" 161 350 basechar 0
AnchorPoint: "Below" 218 -50 basechar 0
LayerCount: 2
Fore
SplineSet
-1 231 m 0
 -1 235 1 239 3 241 c 0
 21 256 64 286 79 286 c 0
 88 286 109 280 109 253 c 2
 109 196 l 1
 158 226 159 245 180 263 c 0
 204 283 220 287 230 287 c 0
 253 287 265 273 265 201 c 0
 265 184 275 173 288 173 c 0
 311 173 327 185 340 194 c 1
 345 182 l 1
 332 154 308 105 255 105 c 0
 230 105 214 127 214 173 c 0
 214 199 194 206 178 206 c 0
 147 206 112 133 112 113 c 0
 112 106 117 57 117 34 c 0
 117 0 107 -104 105 -112 c 0
 97 -139 81 -153 71 -153 c 0
 55 -153 49 -142 49 -137 c 0
 49 -93 59 -4 59 55 c 0
 59 87 58 125 54 145 c 0
 48 177 39 222 4 222 c 0
 1 223 -1 227 -1 231 c 0
EndSplineSet
Substitution2: "'hist' Historical Forms lookup 4 subtable" uniA783
EndChar

StartChar: s
Encoding: 115 115 85
Width: 327
GlyphClass: 2
Flags: MW
AnchorPoint: "Above" 180 350 basechar 0
AnchorPoint: "Below" 162 -50 basechar 0
LayerCount: 2
Fore
SplineSet
319 111 m 0
 319 97 318 73 300 57 c 0
 259 21 184 -22 166 -22 c 0
 116 -22 94 0 81 18 c 1
 83 34 100 65 118 70 c 1
 140 70 178 37 213 37 c 0
 232 37 245 47 245 70 c 0
 245 91 222 115 174 115 c 0
 123 115 13 137 13 192 c 0
 13 228 112 312 220 312 c 0
 253 312 275 306 282 288 c 1
 281 276 272 241 253 234 c 1
 230 234 212 278 157 278 c 0
 112 278 68 247 68 218 c 0
 68 193 149 192 179 192 c 0
 211 192 319 177 319 111 c 0
EndSplineSet
Validated: 1
Substitution2: "'hist' Historical Forms lookup 4 subtable" uniA785
EndChar

StartChar: t
Encoding: 116 116 86
Width: 394
GlyphClass: 2
Flags: MW
AnchorPoint: "Above" 202 350 basechar 0
AnchorPoint: "Below" 172 -50 basechar 0
LayerCount: 2
Fore
SplineSet
400 254 m 0
 363 229 255 212 197 212 c 1
 169 200 137 162 137 130 c 0
 137 82 169 49 211 49 c 0
 260 49 317 62 337 71 c 0
 339 70 341 63 337 58 c 0
 301 26 256 -22 175 -22 c 0
 114 -22 64 25 64 66 c 0
 64 134 114 193 150 214 c 1
 111 215 33 232 4 243 c 0
 1.640625 246.669921875 0.5869140625 251.234375 0.5869140625 256.04296875 c 0
 0.5869140625 269.576171875 8.9326171875 285.048828125 20 288 c 1
 49 280 119 268 181 268 c 0
 237 268 365 271 400 275 c 0
 403.366210938 274.038085938 404.881835938 270.99609375 404.881835938 267.206054688 c 0
 404.881835938 263.115234375 403.115234375 258.153320312 400 254 c 0
EndSplineSet
Validated: 1
EndChar

StartChar: u
Encoding: 117 117 87
Width: 358
GlyphClass: 2
Flags: MW
AnchorPoint: "Above" 209 350 basechar 0
AnchorPoint: "Below" 174 -50 basechar 0
LayerCount: 2
Fore
SplineSet
330 28 m 1
 319 18 276 -18 248 -18 c 0
 233.123046875 -18 227.848632812 0.2919921875 227.848632812 20.1767578125 c 0
 227.848632812 29.6962890625 229.056640625 39.5810546875 231 47.9990234375 c 1
 214 27.9990234375 136 -17.0009765625 98 -17.0009765625 c 0
 50 -17.0009765625 39 44.9990234375 39 64.9990234375 c 0
 39 83.9990234375 64 154.999023438 64 188.999023438 c 0
 64 215.999023438 33 227.999023438 33 254.999023438 c 0
 33 267.999023438 94 298.999023438 106 298.999023438 c 0
 116 298.999023438 123 288.999023438 123 278.999023438 c 0
 123 238.999023438 106 191.999023438 106 137.999023438 c 0
 106 96.9990234375 124 58.9990234375 158 58.9990234375 c 0
 192 58.9990234375 233 86.9990234375 243 95.9990234375 c 1
 248 107.999023438 257 146.999023438 257 177.999023438 c 0
 257 181.666015625 257.111328125 185.666015625 257.111328125 189.740234375 c 0
 257.111328125 197.888671875 256.666992188 206.333007812 254 213 c 0
 251 220 215 223 202 225 c 1
 199.458297041 228.558384142 198.251043482 233.925462258 198.251043482 238.999999773 c 3
 198.251043482 243.908016469 199.541702959 248.541702959 202 251 c 0
 214 257 255 284 284 284 c 0
 302 284 315 273 315 260 c 0
 315 236 304 138 304 86 c 0
 304 37 319 41 330 40 c 1
 330 28 l 1
EndSplineSet
Validated: 1
EndChar

StartChar: v
Encoding: 118 118 88
Width: 330
GlyphClass: 2
Flags: MW
AnchorPoint: "Above" 167 350 basechar 0
AnchorPoint: "Below" 160 -50 basechar 0
LayerCount: 2
Fore
SplineSet
323 242 m 0
 323 200 274 118 220 56 c 0
 164 -10 134 -19 114 -19 c 0
 108 -19 102 -17 99 -14 c 0
 94 40 81 144 33 213 c 0
 18 235 9 255 -12 267 c 1
 -12 267 27 294 37 294 c 0
 48 294 59 285 66 278 c 0
 104 240 141 119 157 42 c 1
 184 67 214 103 227 121 c 0
 239 138 254 171 254 207 c 1
 249 219 228 219 216 224 c 0
 210 230 209 245 214 252 c 1
 229 259 258 280 288 280 c 0
 323 280 323 256 323 242 c 0
EndSplineSet
Validated: 1
EndChar

StartChar: w
Encoding: 119 119 89
Width: 487
GlyphClass: 2
Flags: MW
AnchorPoint: "Above" 239 350 basechar 0
AnchorPoint: "Below" 222 -50 basechar 0
LayerCount: 2
Fore
SplineSet
482 242 m 0
 482 200 433 118 379 56 c 0
 323 -10 293 -19 273 -19 c 0
 267 -19 261 -17 258 -14 c 0
 255 17 250 64 237 112 c 1
 223 93 208 74 193 56 c 0
 137 -10 107 -19 87 -19 c 0
 81 -19 75 -17 72 -14 c 0
 67 40 68 136 33 222 c 0
 23 246 9 264 -12 276 c 1
 -12 276 31 293 41 293 c 0
 52 293 64 287 70 280 c 0
 106 239 114 119 130 42 c 1
 157 67 187 103 200 121 c 0
 212 138 227 171 227 207 c 1
 222 219 201 219 189 224 c 0
 183 230 182 245 187 252 c 1
 202 259 231 280 261 280 c 0
 296 280 296 256 296 242 c 0
 296 226 289 204 277 180 c 1
 294 134 308 82 316 42 c 1
 343 67 373 103 386 121 c 0
 398 138 413 171 413 207 c 1
 408 219 387 219 375 224 c 0
 369 230 368 245 373 252 c 1
 388 259 417 280 447 280 c 0
 482 280 482 256 482 242 c 0
EndSplineSet
Validated: 1
Substitution2: "'hist' Historical Forms lookup 4 subtable" uni01BF
EndChar

StartChar: x
Encoding: 120 120 90
Width: 342
GlyphClass: 2
Flags: MW
AnchorPoint: "Above" 165 350 basechar 0
AnchorPoint: "Below" 160 -50 basechar 0
LayerCount: 2
Fore
SplineSet
378 101 m 1
 366 48 251 -21 191 -21 c 0
 158 -21 120 1 104 36 c 1
 73 -9 0 -82 -52 -131 c 0
 -84 -161 -107 -183 -124 -206 c 1
 -120 -215 -113 -224 -113 -236 c 0
 -116 -244 -126 -254 -136 -256 c 0
 -145 -256 -169 -246 -169 -232 c 1
 -164 -220 -142 -184 -104 -144 c 0
 -77 -115 -35 -76 -12 -47 c 0
 6 -25 56 61 90 110 c 1
 90 110 89 121 89 135 c 0
 89 162 45 229 11 229 c 1
 11 251 l 1
 27 261 47 274 68 274 c 0
 112 274 140 239 140 215 c 1
 196 279 269 303 287 303 c 0
 304 303 319 287 332 269 c 1
 332 244 298 191 281 189 c 1
 264 196 238 208 225 245 c 0
 224.165039062 245.104492188 223.287109375 245.155273438 222.369140625 245.155273438 c 0
 196.899414062 245.155273438 141 205.783203125 141 172 c 0
 141 108 230 47 275 47 c 0
 311 47 353 89 368 111 c 1
 378 101 l 1
EndSplineSet
Validated: 1
EndChar

StartChar: y
Encoding: 121 121 91
Width: 330
GlyphClass: 2
Flags: MW
AnchorPoint: "Above" 192 350 basechar 0
AnchorPoint: "Below" 200 -50 basechar 0
LayerCount: 2
Fore
SplineSet
325 238 m 0
 325 196 274.999023438 114.999023438 221.999023438 51.9990234375 c 0
 164.999023438 -14.0009765625 194.999023438 11.9990234375 66.9990234375 -110.000976562 c 0
 20.9990234375 -155.000976562 -10.0009765625 -193.000976562 -40.0009765625 -268.000976562 c 0
 -43.74609375 -273.885742188 -54.07421875 -278.053710938 -64.0947265625 -278.053710938 c 0
 -72.8037109375 -278.053710938 -81.2802734375 -274.905273438 -85 -267 c 1
 -70 -238 -32 -162 0 -124 c 0
 32 -85 79 -43 101 -18 c 1
 98 39 98 143 39 215 c 0
 22 236 21 246 -10 263 c 1
 -10 263 32 293 42 293 c 0
 53 293 67 289 74 282 c 0
 112 244 146 120 162 43 c 1
 190 66 216 99 229 117 c 0
 241 134 256 167 256 203 c 1
 251 215 230 215 218 220 c 0
 214.558390306 223.441609694 212.799178843 229.844275675 212.799178843 235.999999755 c 3
 212.799178843 240.575981988 213.868008078 245.01521131 216 248 c 1
 231 255 260 276 290 276 c 0
 325 276 325 252 325 238 c 0
EndSplineSet
Validated: 1
Substitution2: "'salt' Stylistic Alternatives lookup 6 subtable" y.alt
Substitution2: "'ss10' Style Set 10 lookup 5 subtable" y.alt
Substitution2: "'hist' Historical Forms lookup 4 subtable" uni1E8F
EndChar

StartChar: z
Encoding: 122 122 92
Width: 283
GlyphClass: 2
Flags: MW
AnchorPoint: "Above" 171 350 basechar 0
AnchorPoint: "Below" 134 -50 basechar 0
LayerCount: 2
Fore
SplineSet
287 260 m 2
 239.000976562 212.998046875 l 1
 230.000976562 209.998046875 224.000976562 208.998046875 215.000976562 207.998046875 c 1
 174.000976562 160.998046875 157.000976562 127.998046875 114.000976562 79.998046875 c 0
 109.000976562 73.998046875 98.0009765625 65.998046875 98.0009765625 65.998046875 c 1
 114.000976562 69.998046875 128.000976562 74.998046875 146.000976562 74.998046875 c 0
 173.000976562 74.998046875 202.000976562 40.998046875 241.000976562 40.998046875 c 0
 242.250976562 40.998046875 244.625976562 40.935546875 247.689453125 40.935546875 c 0
 256.875976562 40.935546875 272.250976562 41.498046875 282.000976562 45.998046875 c 0
 286.942382812 48.1943359375 290.075195312 47.3759765625 290.075195312 44.37109375 c 0
 290.075195312 41.90234375 287.961914062 37.958984375 283.000976562 32.998046875 c 2
 243.000976562 -8.001953125 l 2
 233.000976562 -19.001953125 219.000976562 -23.001953125 203.000976562 -23.001953125 c 0
 162.000976562 -23.001953125 120.000976562 10.998046875 82.0009765625 10.998046875 c 0
 63.0009765625 10.998046875 37.0009765625 6.998046875 10.0009765625 -4.001953125 c 0
 3.5205078125 -6.7021484375 0.8310546875 -5.02734375 0.8310546875 -1.8125 c 0
 0.8310546875 0.9248046875 2.78125 4.779296875 6.0009765625 7.9990234375 c 2
 38.0009765625 39.9990234375 l 2
 45.0009765625 44.9990234375 52.0009765625 48.9990234375 59.0009765625 52.9990234375 c 0
 64.0009765625 56.9990234375 67.0009765625 62.9990234375 70.0009765625 66.9990234375 c 0
 108.000976562 115.999023438 149.000976562 171.999023438 181.000976562 204.999023438 c 1
 161.000976562 204.999023438 139.000976562 214.999023438 112.000976562 214.999023438 c 0
 105.819335938 214.999023438 99.8359375 215.032226562 93.978515625 215.032226562 c 0
 67.62109375 215.032226562 43.8193359375 214.36328125 16.0009765625 206.999023438 c 0
 8.3076171875 205.076171875 4.724609375 207.672851562 4.724609375 211.3671875 c 0
 4.724609375 213.435546875 5.84765625 215.846679688 8.0009765625 218 c 0
 24.0009765625 235 53.0009765625 263 53.0009765625 263 c 1
 96.0009765625 278 129.000976562 278 176.000976562 278 c 0
 210.000976562 278 227.000976562 268 250.000976562 268 c 0
 260.000976562 268 269.000976562 270 282.000976562 272 c 0
 288.42578125 273.16796875 291.439453125 271.607421875 291.439453125 268.512695312 c 0
 291.439453125 266.30859375 289.911132812 263.327148438 287 260 c 2
EndSplineSet
Validated: 1
EndChar

StartChar: braceleft
Encoding: 123 123 93
Width: 400
GlyphClass: 2
Flags: MW
LayerCount: 2
Fore
SplineSet
72 297 m 0
 72 299 81 305 98 316 c 0
 132 338 139 359 139 415 c 2
 137 555 l 2
 137 559 137 563 137 567 c 0
 137 601 141 628 149 646 c 0
 166 685 188 694 226 709 c 0
 254 720 301 733 334 738 c 0
 348 740 357 741 359 741 c 256
 368 741 372 739 372 736 c 0
 372 731 366 727 355 724 c 0
 319 716 271 702 244 686 c 0
 213 667 209 647 209 599 c 0
 209 591 209 582 209 572 c 2
 211 433 l 2
 211 378 206 360 175 337 c 0
 164 329 159 323 159 318 c 0
 159 316 160 314 162 312 c 0
 179 294 189 281 200 251 c 0
 206 234 210 222 210 216 c 2
 211 98 l 2
 212 26 214 -20 216 -40 c 0
 221 -84 236 -90 275 -102 c 0
 296 -108 317 -114 339 -116 c 0
 361 -118 372 -122 372 -127 c 0
 372 -130 368 -133 361 -136 c 2
 327 -152 l 2
 314 -158 298 -161 279 -161 c 256
 238 -161 190 -147 170 -124 c 0
 147 -98 140 -37 140 14 c 2
 138 124 l 2
 136 189 137 197 130 229 c 0
 126 247 104 268 88 278 c 0
 77 285 72 292 72 297 c 0
EndSplineSet
Validated: 1
EndChar

StartChar: bar
Encoding: 124 124 94
Width: 262
GlyphClass: 2
Flags: MW
LayerCount: 2
Fore
SplineSet
103 70 m 0
 103 130 105 150 105 226 c 0
 105 280 109 523 109 573 c 2
 109 625 l 18
 109 642 113 653 122 657 c 2
 160 674 l 2
 165 677 170 678 173 678 c 0
 179 678 182 675 181 668 c 0
 181 646 182 605 182 578 c 0
 182 536 180 481 180 436 c 0
 180 379 176 165 176 104 c 0
 176 59 179 -6 179 -83 c 0
 179 -98 173 -107 163 -112 c 2
 131 -127 l 2
 125 -130 120 -131 116 -131 c 0
 110 -131 107 -128 107 -122 c 8
 106 -60 103 15 103 70 c 0
EndSplineSet
Validated: 1
EndChar

StartChar: braceright
Encoding: 125 125 95
Width: 400
GlyphClass: 2
Flags: MW
LayerCount: 2
Fore
SplineSet
12 702 m 256
 12 707 16 711 25 715 c 2
 58 730 l 2
 71 736 81 739 87 739 c 0
 141 739 195 723 220 697 c 0
 227 690 233 676 240 657 c 0
 246 640 250 613 250 578 c 0
 250 574 250 570 250 566 c 2
 247 427 l 2
 247 423 247 419 247 415 c 0
 247 372 253 356 286 339 c 0
 305 329 314 322 314 318 c 0
 314 316 309 311 300 303 c 0
 251 261 247 239 247 155 c 0
 247 138 247 119 247 96 c 0
 247 23 247 -24 246 -46 c 0
 244 -99 178 -126 130 -141 c 0
 98 -151 74 -158 59 -160 c 0
 44 -162 34 -163 30 -163 c 0
 20 -163 15 -161 15 -157 c 0
 15 -153 23 -149 40 -145 c 2
 80 -136 l 2
 107 -130 126 -124 140 -116 c 0
 166 -101 170 -89 172 -54 c 0
 173 -38 174 -17 175 11 c 2
 178 144 l 2
 179 201 186 236 196 250 c 0
 206 264 215 275 223 282 c 0
 231 289 231 294 224 297 c 0
 202 308 198 314 186 344 c 0
 179 361 175 380 175 402 c 0
 175 404 175 406 175 409 c 2
 177 549 l 2
 177 551 177 553 177 555 c 0
 177 603 165 656 138 670 c 0
 116 682 74 694 40 695 c 0
 21 696 12 698 12 702 c 256
EndSplineSet
Validated: 1
EndChar

StartChar: asciitilde
Encoding: 126 126 96
Width: 330
GlyphClass: 2
Flags: MW
LayerCount: 2
Fore
SplineSet
1 188 m 1
 24 210 81 251 125 251 c 0
 143 251 165 246 192 236 c 0
 219 226 239 220 250 220 c 256
 260 220 282 229 317 248 c 1
 323 235 l 1
 298 216 276 202 256 191 c 0
 236 180 218 175 205 175 c 0
 190 175 168 180 140 190 c 0
 112 200 91 206 74 206 c 256
 57 206 35 196 7 175 c 1
 1 188 l 1
EndSplineSet
Validated: 1
EndChar

StartChar: macron
Encoding: 175 175 98
Width: 390
GlyphClass: 2
Flags: MW
LayerCount: 2
Fore
SplineSet
338 471 m 0
 338 455 308 412 280 412 c 0
 266 412 263 434 252 434 c 0
 224 434 109 415 82 415 c 0
 59 415 45 417 45 435 c 0
 45 452 74 489 98 489 c 0
 114 489 111 468 135 468 c 0
 174 468 262 489 294 489 c 0
 314 489 338 489 338 471 c 0
EndSplineSet
Validated: 1
EndChar

StartChar: acute
Encoding: 180 180 99
Width: 331
GlyphClass: 2
Flags: MW
LayerCount: 2
Fore
SplineSet
288.604492188 529.709960938 m 1
 288.663675293 529.106411353 288.692779938 528.486576134 288.692779938 527.852465897 c 0
 288.692779938 514.85294714 276.461065943 495.854113215 260.387695312 488.178710938 c 1
 237.372586474 488.705128315 219.885361299 500.140019564 199.905269318 500.140019564 c 0
 173.228036559 500.140019564 160.642304531 489.642304531 138 467 c 0
 114 443 86 404 52 357 c 1
 48.177734375 361.403320312 l 1
 65.619140625 394.94140625 104 448 163.650390625 512.75390625 c 0
 187.213170136 538.332649313 205.531579303 554.094869364 238.177420878 554.094869364 c 0
 257.323941654 554.094869364 275.023642078 546.817705773 288.604492188 529.709960938 c 1
EndSplineSet
Validated: 1
EndChar

StartChar: periodcentered
Encoding: 183 183 100
Width: 194
GlyphClass: 2
Flags: MW
LayerCount: 2
Fore
SplineSet
163 182 m 0
 163 162 154 118 124 118 c 0
 68 118 51 169 51 183 c 0
 51 199 79 229 104 229 c 0
 130 229 163 202 163 182 c 0
EndSplineSet
Validated: 1
EndChar

StartChar: Aacute
Encoding: 193 193 101
Width: 659
VWidth: 850
GlyphClass: 2
Flags: HMW
LayerCount: 2
Fore
SplineSet
591 709 m 1
 590 698 564 672 549 668 c 1
 528 672 507 715 490 715 c 0
 471 715 454 708 428 700 c 0
 351 678 312 664 241 632 c 1
 238 636 l 1
 284 666 409 703 483 725 c 0
 507 732 522 738 540 738 c 0
 561 738 580 729 591 709 c 1
649 8 m 0
 629 1 587 -6 556 -6 c 0
 519 -6 462 -5 435 3 c 0
 425 6 423 16 431 20 c 0
 438 20 475 32 482 37 c 1
 479 88 439 167 439 167 c 1
 334 167 265 172 184 258 c 1
 153 188 127 116 95 40 c 1
 104 28 127 27 144 23 c 1
 147 17 147 8 142 5 c 0
 127 -3 96 -4 66 -5 c 0
 64 -5 63 -5 61 -5 c 0
 35 -5 7 0 -10 0 c 0
 -14 3 -16 7 -16 11 c 0
 -16 15 -14 18 -9 20 c 0
 6 23 35 31 46 38 c 1
 56 49 59 60 62 69 c 0
 82 117 91 134 111 182 c 0
 125 215 207 427 207 427 c 2
 219 457 249 518 262 552 c 1
 215 552 229 553 182 553 c 0
 142 553 110 524 90 500 c 1
 90 502 90 504 90 506 c 0
 90 528 96 573 110 584 c 1
 203 584 l 2
 242 584 326 585 361 585 c 0
 371 585 382 582 389 562 c 0
 428 452 471 362 510 260 c 0
 536 195 559 119 592 43 c 1
 605 34 636 32 649 29 c 0
 652 26 655 20 655 15 c 0
 655 12 653 9 649 8 c 0
419 217 m 1
 295 539 l 1
 268 479 234 379 208 315 c 1
 250 241 321 217 419 217 c 1
EndSplineSet
MultipleSubs2: "'ccmp' Glyph Composition/Decomposition lookup 1 subtable" A CapAcute
EndChar

StartChar: AE
Encoding: 198 198 102
Width: 722
VWidth: 850
GlyphClass: 2
Flags: HMW
AnchorPoint: "Above" 406 595 basechar 0
AnchorPoint: "Below" 386 -42 basechar 0
LayerCount: 2
Fore
SplineSet
678 90 m 0
 678 85 679 78 679 70 c 0
 679 45 677 10 671 -1 c 1
 650 -1 635 -1 622 -1 c 0
 596 -1 577 -1 536 -1 c 0
 491 -1 459 -1 428 -1 c 0
 390 -1 354 0 303 2 c 0
 296 5 298 17 303 20 c 0
 323 21 344 23 356 34 c 1
 356 69 358 124 358 173 c 0
 358 203 357 231 355 252 c 1
 200 252 l 1
 164 201 121 100 82 45 c 1
 95 34 109 32 128 30 c 1
 132 26 135 21 135 16 c 0
 135 12 133 8 129 4 c 0
 99 -4 70 -4 38 -4 c 0
 30 -4 24 -4 19 -4 c 0
 4 -4 -3 -4 -30 0 c 0
 -33 2 -35 8 -35 14 c 0
 -35 19 -34 24 -30 27 c 0
 -12 31 7 29 21 39 c 1
 66 108 77 135 105 181 c 2
 224 385 l 2
 251 431 296 508 299 534 c 1
 289 548 264 551 251 551 c 0
 247 554 244 561 244 567 c 0
 244 574 247 580 254 582 c 0
 355 581 318 580 419 580 c 0
 474 580 577 582 643 582 c 0
 651 582 659 582 666 582 c 1
 672 571 674 536 674 511 c 0
 674 503 673 496 673 491 c 0
 670 484 660 482 653 488 c 0
 643 507 614 536 597 547 c 1
 577 552 560 552 544 552 c 0
 533 552 523 552 511 552 c 0
 469 552 450 545 436 535 c 0
 436 533 437 528 437 522 c 0
 437 499 434 454 434 417 c 0
 434 366 437 368 438 298 c 1
 502 298 534 297 603 303 c 0
 634 306 648 331 651 346 c 0
 654 350 666 350 669 345 c 2
 669 345 672 276 672 237 c 0
 672 223 672 213 671 211 c 0
 670 207 652 204 649 210 c 0
 645 225 634 250 607 250 c 0
 595 250 514 251 439 251 c 1
 440 222 439 65 440 38 c 1
 455 32 474 30 516 30 c 0
 527 30 535 30 544 30 c 0
 559 30 574 30 596 34 c 1
 615 42 648 75 658 94 c 0
 665 100 675 97 678 90 c 0
355 298 m 1
 354 311 355 327 355 344 c 0
 355 397 357 461 357 501 c 0
 357 510 356 518 356 524 c 1
 344 524 l 1
 313 474 254 336 225 298 c 1
 355 298 l 1
EndSplineSet
EndChar

StartChar: Eacute
Encoding: 201 201 103
Width: 441
VWidth: 850
GlyphClass: 2
Flags: HMW
LayerCount: 2
Fore
SplineSet
497 709 m 1
 496 698 471 672 456 668 c 1
 435 672 414 715 397 715 c 0
 378 715 360 708 334 700 c 0
 257 678 218 664 147 632 c 1
 144 636 l 1
 190 666 315 703 389 725 c 0
 413 732 428 738 446 738 c 0
 467 738 486 729 497 709 c 1
395 90 m 0
 395 87 395 83 395 78 c 0
 395 52 394 10 388 -1 c 1
 367 -1 352 -1 339 -1 c 0
 313 -1 294 -1 253 -1 c 0
 208 -1 176 -1 145 -1 c 0
 107 -1 71 0 20 2 c 0
 13 5 15 17 20 20 c 0
 46 25 57 25 73 38 c 1
 73 220 71 469 68 543 c 1
 48 555 40 557 14 562 c 0
 11 563 10 568 10 572 c 0
 10 576 11 579 14 580 c 0
 65 582 102 583 140 583 c 0
 171 583 203 582 248 582 c 0
 289 582 308 583 334 583 c 0
 347 583 362 582 383 582 c 1
 389 571 390 529 390 503 c 0
 390 498 390 494 390 491 c 0
 387 484 378 480 370 488 c 1
 362 503 331 535 315 546 c 1
 296 551 278 552 260 552 c 0
 249 552 239 552 228 552 c 0
 172 552 168 547 153 542 c 0
 153 540 153 538 153 534 c 0
 153 516 151 476 151 439 c 0
 151 431 151 424 151 417 c 2
 155 298 l 1
 178 298 197 297 215 297 c 0
 247 297 276 298 320 302 c 0
 347 305 366 338 368 346 c 0
 371 350 383 350 386 345 c 2
 386 345 389 276 389 237 c 0
 389 223 389 213 388 211 c 0
 387 207 371 204 368 210 c 0
 366 219 349 250 324 250 c 0
 312 250 231 251 156 251 c 1
 157 39 l 1
 171 34 180 30 233 30 c 0
 244 30 254 29 265 29 c 0
 283 29 301 31 320 36 c 1
 338 47 369 83 375 94 c 0
 382 100 392 97 395 90 c 0
EndSplineSet
MultipleSubs2: "'ccmp' Glyph Composition/Decomposition lookup 1 subtable" E CapAcute
EndChar

StartChar: Iacute
Encoding: 205 205 104
Width: 265
VWidth: 850
GlyphClass: 2
Flags: HMW
LayerCount: 2
Fore
SplineSet
387 709 m 1
 386 698 360 672 345 668 c 1
 324 672 303 715 286 715 c 0
 267 715 250 708 224 700 c 0
 147 678 108 664 37 632 c 1
 34 636 l 1
 80 666 205 703 279 725 c 0
 303 732 318 738 336 738 c 0
 357 738 376 729 387 709 c 1
237 6 m 0
 214 -8 153 -12 121 -13 c 0
 119 -13 117 -13 115 -13 c 0
 86 -13 71 -6 14 5 c 0
 11 7 9 13 9 19 c 0
 9 24 10 29 14 32 c 0
 37 39 58 39 73 59 c 1
 73 240 71 461 68 535 c 1
 48 550 39 553 14 556 c 0
 11 557 10 562 10 566 c 0
 10 570 11 573 14 574 c 0
 35 578 92 587 108 587 c 0
 159 587 181 583 214 574 c 0
 218 571 217 560 214 556 c 1
 194 554 179 549 160 528 c 1
 158 505 156 241 156 62 c 1
 186 31 208 35 236 32 c 1
 240 28 243 23 243 18 c 0
 243 14 241 10 237 6 c 0
EndSplineSet
EndChar

StartChar: Eth
Encoding: 208 208 105
Width: 628
VWidth: 850
GlyphClass: 2
Flags: HMW
AnchorPoint: "Above" 248 595 basechar 0
AnchorPoint: "Below" 240 -42 basechar 0
LayerCount: 2
Fore
SplineSet
600 286 m 0
 600 164 507 57 395 12 c 0
 358 -3 312 -8 272 -8 c 0
 249 -8 218 -10 180 -10 c 0
 135 -10 79 -7 14 5 c 0
 11 7 9 13 9 19 c 0
 9 24 10 29 14 32 c 0
 31 35 62 37 73 47 c 1
 73 117 73 201 72 265 c 1
 20 265 l 2
 6 265 -11 249 -13 240 c 0
 -16 237 -23 237 -25 240 c 0
 -27 243 -27 267 -27 291 c 0
 -27 315 -27 338 -25 343 c 0
 -24 346 -14 346 -13 343 c 0
 -10 332 6 318 20 318 c 2
 71 318 l 1
 70 398 70 502 68 539 c 1
 52 555 37 553 14 556 c 0
 9 559 7 571 14 574 c 0
 60 581 73 582 95 582 c 0
 111 582 132 581 173 581 c 0
 198 581 230 581 274 582 c 0
 276 582 279 582 281 582 c 0
 487 582 600 442 600 286 c 0
483 306 m 0
 483 429 381 552 253 552 c 0
 213 552 168 546 153 538 c 0
 153 536 153 531 153 525 c 0
 153 501 151 453 151 416 c 0
 151 386 152 355 153 318 c 1
 198 318 l 2
 216 318 232 333 235 343 c 0
 237 346 244 346 247 343 c 0
 248 341 250 308 250 279 c 0
 250 260 249 243 247 240 c 0
 246 237 237 237 235 240 c 0
 231 253 213 265 198 265 c 2
 155 265 l 1
 156 213 156 105 156 51 c 1
 187 35 222 32 277 32 c 0
 309 32 335 39 360 49 c 0
 444 97 483 195 483 306 c 0
EndSplineSet
EndChar

StartChar: Oacute
Encoding: 211 211 106
Width: 559
VWidth: 850
GlyphClass: 2
Flags: HMW
LayerCount: 2
Fore
SplineSet
540 709 m 1
 539 698 513 672 498 668 c 1
 477 672 456 715 439 715 c 0
 420 715 403 708 377 700 c 0
 300 678 261 664 190 632 c 1
 187 636 l 1
 233 666 358 703 432 725 c 0
 456 732 471 738 489 738 c 0
 510 738 529 729 540 709 c 1
536 305 m 0
 536 240 464 -11 277 -11 c 0
 142 -11 20 124 20 258 c 0
 20 432 131 589 287 589 c 0
 457 589 536 436 536 305 c 0
472 252 m 0
 472 364 373 515 239 515 c 0
 132 515 90 451 90 342 c 0
 90 193 228 69 319 69 c 0
 457 69 472 194 472 252 c 0
EndSplineSet
EndChar

StartChar: Odieresis
Encoding: 214 214 107
Width: 559
VWidth: 850
GlyphClass: 2
Flags: HMW
LayerCount: 2
Fore
SplineSet
189 669 m 0
 189 686 200 701 221 712 c 0
 227 715 232 717 236 717 c 0
 247 717 253 706 253 684 c 0
 253 662 252 659 238 650 c 0
 229 644 221 641 213 641 c 0
 196 641 189 655 189 669 c 0
307 669 m 0
 307 686 318 701 339 712 c 0
 345 715 351 717 355 717 c 0
 366 717 371 706 371 684 c 0
 371 662 371 659 357 650 c 0
 348 644 340 641 332 641 c 0
 315 641 307 655 307 669 c 0
536 305 m 0
 536 240 464 -11 277 -11 c 0
 142 -11 20 124 20 258 c 0
 20 432 131 589 287 589 c 0
 457 589 536 436 536 305 c 0
472 252 m 0
 472 364 373 515 239 515 c 0
 132 515 90 451 90 342 c 0
 90 193 228 69 319 69 c 0
 457 69 472 194 472 252 c 0
EndSplineSet
EndChar

StartChar: Uacute
Encoding: 218 218 108
Width: 627
VWidth: 850
GlyphClass: 2
Flags: HMW
LayerCount: 2
Fore
SplineSet
591 709 m 1
 590 698 564 672 549 668 c 1
 528 672 507 715 490 715 c 0
 471 715 454 708 428 700 c 0
 351 678 312 664 241 632 c 1
 238 636 l 1
 284 666 409 703 483 725 c 0
 507 732 522 738 540 738 c 0
 561 738 580 729 591 709 c 1
507 -33 m 0
 479 -33 454 3 454 32 c 0
 454 47 452 73 452 73 c 1
 398 22 338 -15 263 -15 c 0
 150 -15 10 48 10 208 c 0
 10 334 43 409 43 429 c 0
 43 457 19 475 -14 478 c 0
 -18 481 -19 485 -19 489 c 0
 -19 493 -18 497 -14 500 c 2
 -14 500 76 576 141 576 c 0
 158 576 162 566 162 550 c 0
 162 500 83 405 83 280 c 0
 83 168 188 56 333 56 c 0
 379 56 429 82 451 100 c 1
 451 100 450 132 450 147 c 0
 450 206 458 320 458 408 c 0
 458 455 442 461 382 477 c 0
 378 481 377 485 377 490 c 0
 377 494 379 498 382 502 c 0
 408 523 476 572 527 572 c 0
 547 572 552 563 552 547 c 0
 552 521 540 480 537 435 c 0
 532 375 532 330 532 287 c 0
 532 265 532 244 532 222 c 0
 532 182 536 158 536 104 c 0
 536 18 610 53 610 31 c 0
 610 10 555 -33 507 -33 c 0
EndSplineSet
EndChar

StartChar: Udieresis
Encoding: 220 220 109
Width: 627
VWidth: 850
GlyphClass: 2
Flags: HMW
LayerCount: 2
Fore
SplineSet
507 -33 m 0
 479 -33 454 3 454 32 c 0
 454 47 452 73 452 73 c 1
 398 22 338 -15 263 -15 c 0
 150 -15 10 48 10 208 c 0
 10 334 43 409 43 429 c 0
 43 457 19 475 -14 478 c 0
 -18 481 -19 485 -19 489 c 0
 -19 493 -18 497 -14 500 c 2
 -14 500 76 576 141 576 c 0
 158 576 162 566 162 550 c 0
 162 500 83 405 83 280 c 0
 83 168 188 56 333 56 c 0
 379 56 429 82 451 100 c 1
 451 100 450 132 450 147 c 0
 450 206 458 320 458 408 c 0
 458 455 442 461 382 477 c 0
 378 481 377 485 377 490 c 0
 377 494 379 498 382 502 c 0
 408 523 476 572 527 572 c 0
 547 572 552 563 552 547 c 0
 552 521 540 480 537 435 c 0
 532 375 532 330 532 287 c 0
 532 265 532 244 532 222 c 0
 532 182 536 158 536 104 c 0
 536 18 610 53 610 31 c 0
 610 10 555 -33 507 -33 c 0
192 669 m 0
 192 686 204 701 225 712 c 0
 231 715 236 717 240 717 c 0
 251 717 256 706 256 684 c 0
 256 662 256 659 242 650 c 0
 233 644 225 641 217 641 c 0
 200 641 192 655 192 669 c 0
311 669 m 0
 311 686 322 701 343 712 c 0
 349 715 354 717 358 717 c 0
 369 717 374 706 374 684 c 0
 374 662 374 659 360 650 c 0
 351 644 343 641 335 641 c 0
 318 641 311 655 311 669 c 0
EndSplineSet
EndChar

StartChar: Yacute
Encoding: 221 221 110
Width: 481
VWidth: 850
GlyphClass: 2
Flags: HMW
LayerCount: 2
Fore
SplineSet
486 558 m 0
 466 556 457 553 439 544 c 1
 390 441 327 267 279 161 c 1
 276 139 272 100 272 45 c 1
 291 26 309 27 335 24 c 1
 339 20 341 15 341 10 c 0
 341 6 340 1 336 -3 c 0
 311 -10 266 -10 234 -10 c 0
 202 -10 173 -7 133 -3 c 0
 130 -1 128 4 128 10 c 0
 128 15 129 21 133 24 c 0
 151 27 171 25 184 39 c 1
 184 118 183 149 167 191 c 0
 159 211 150 231 144 257 c 1
 113 339 56 477 31 544 c 1
 16 559 3 562 -11 562 c 0
 -14 563 -16 568 -16 572 c 0
 -16 576 -14 579 -11 580 c 0
 10 584 66 587 82 587 c 0
 90 587 98 587 104 587 c 0
 139 587 152 587 180 579 c 1
 182 577 183 574 183 571 c 3
 183 567 182 563 180 561 c 1
 154 561 127 555 112 541 c 1
 132 471 183 352 210 287 c 1
 226 264 233 233 250 213 c 1
 251 212 253 211 254 211 c 7
 255 211 256 211 257 213 c 1
 297 296 376 487 395 544 c 1
 382 557 367 557 346 559 c 1
 343 560 341 565 341 569 c 3
 341 573 343 576 346 577 c 1
 367 581 398 586 414 586 c 0
 465 586 453 584 486 575 c 0
 488 573 489 570 489 567 c 0
 489 563 488 560 486 558 c 0
548 709 m 1
 547 698 522 672 507 668 c 1
 486 672 465 715 448 715 c 0
 429 715 411 708 385 700 c 0
 308 678 269 664 198 632 c 1
 196 636 l 1
 242 666 366 703 440 725 c 0
 464 732 479 738 497 738 c 0
 518 738 537 729 548 709 c 1
EndSplineSet
EndChar

StartChar: Thorn
Encoding: 222 222 111
Width: 470
VWidth: 850
GlyphClass: 2
Flags: HMW
AnchorPoint: "Above" 264 595 basechar 0
AnchorPoint: "Below" 274 -42 basechar 0
LayerCount: 2
Fore
SplineSet
456 368 m 0
 456 181 260 67 150 -3 c 1
 147 -58 140 -148 134 -210 c 1
 128 -229 81 -246 62 -246 c 1
 62 -154 67 -109 67 -21 c 0
 67 72 68 147 68 228 c 0
 68 279 68 331 66 392 c 0
 64 460 70 528 -11 528 c 0
 -14 529 -16 532 -16 536 c 0
 -16 540 -14 544 -11 546 c 0
 16 564 77 589 104 589 c 0
 124 589 150 589 150 548 c 0
 150 543 148 405 148 405 c 1
 202 431 269 454 334 454 c 0
 399 454 456 428 456 368 c 0
343 304 m 0
 343 353 328 411 263 411 c 0
 223 411 194 401 147 377 c 1
 147 369 147 360 147 352 c 0
 147 318 146 285 146 267 c 0
 146 157 150 162 150 28 c 1
 243 117 343 173 343 304 c 0
EndSplineSet
EndChar

StartChar: aacute
Encoding: 225 225 112
Width: 339
GlyphClass: 2
Flags: MW
LayerCount: 2
Fore
SplineSet
368.69921875 529.709960938 m 1
 368.758789062 529.106445312 368.787109375 528.486328125 368.787109375 527.852539062 c 0
 368.787109375 514.852539062 356.555664062 495.853515625 340.482421875 488.178710938 c 1
 317.467773438 488.705078125 299.98046875 500.139648438 280 500.139648438 c 0
 253.323242188 500.139648438 240.737304688 489.641601562 218.094726562 467 c 0
 194.094726562 443 166.094726562 404 132.094726562 357 c 1
 128.272460938 361.403320312 l 1
 145.713867188 394.94140625 184.094726562 448 243.745117188 512.75390625 c 0
 267.307617188 538.33203125 285.625976562 554.094726562 318.272460938 554.094726562 c 0
 337.418945312 554.094726562 355.118164062 546.817382812 368.69921875 529.709960938 c 1
365 74 m 1
 356 63 297 0 248 0 c 0
 213 0 207 40 206 54 c 1
 153 17 115 -13 68 -13 c 0
 19 -13 18 89 18 89 c 1
 18 126 36 163 65 192 c 0
 117 244 220 304 229 304 c 0
 239 304 252 302 253 293 c 0
 260 208 263 120 273 83 c 0
 278 66 289 62 302 62 c 0
 314 62 344 75 361 85 c 1
 365 74 l 1
205 66 m 1
 203 84 205 180 199 227 c 0
 198 239 192 243 191 247 c 1
 159 227 83 185 83 131 c 0
 83 75 133 56 152 56 c 0
 171 56 205 66 205 66 c 1
EndSplineSet
Validated: 1
EndChar

StartChar: ae
Encoding: 230 230 113
Width: 481
GlyphClass: 2
Flags: MW
AnchorPoint: "Above" 233 350 basechar 0
AnchorPoint: "Below" 221 -50 basechar 0
LayerCount: 2
Fore
SplineSet
503 179 m 0
 504 178 504.75 176.000976562 504.75 173.625976562 c 0
 504.75 171.250976562 504 168.500976562 502 166.000976562 c 0
 495 159.000976562 465 136.000976562 450 133.000976562 c 0
 419 127.000976562 366 127.000976562 313 127.000976562 c 0
 302 127.000976562 287 124.000976562 278 119.000976562 c 1
 278 85.0009765625 l 2
 278 55.0009765625 312 35.0009765625 342 35.0009765625 c 0
 367 35.0009765625 410 51.0009765625 417 53.0009765625 c 0
 422 51.0009765625 424 45.0009765625 420 40.0009765625 c 0
 401 23.0009765625 342 -16.9990234375 293 -16.9990234375 c 0
 270 -16.9990234375 227 0.0009765625 210 49.0009765625 c 1
 185 28.0009765625 148 -3.9990234375 94 -3.9990234375 c 0
 34 -3.9990234375 7 9.0009765625 7 62.0009765625 c 0
 7 139.000976562 158 247.000976562 280 262.000976562 c 1
 296 272.000976562 336 298.000976562 360 298.000976562 c 0
 407 298.000976562 426 270.000976562 426 236.000976562 c 0
 426 205.000976562 417 192.000976562 406 175.000976562 c 1
 420.640625 174.268554688 432.870117188 173.8046875 444.208984375 173.8046875 c 0
 463.846679688 173.8046875 480.810546875 175.196289062 503 179 c 0
374 226.000976562 m 0
 374 246.000976562 374 268.000976562 344 268.000976562 c 0
 333 268.000976562 295 254.000976562 278 239.000976562 c 1
 278 155.000976562 l 1
 299 165.000976562 341 172.000976562 360 173.000976562 c 1
 360 173.000976562 374 201.000976562 374 226.000976562 c 0
206 67.0009765625 m 1
 206 206.000976562 l 1
 144 190.000976562 83 147.000976562 83 109.000976562 c 0
 83 58.0009765625 123 49.0009765625 141 49.0009765625 c 0
 178 49.0009765625 174 53.0009765625 206 67.0009765625 c 1
EndSplineSet
Validated: 1
EndChar

StartChar: eacute
Encoding: 233 233 114
Width: 321
GlyphClass: 2
Flags: MW
LayerCount: 2
Fore
SplineSet
334.69921875 529.709960938 m 1
 334.758789062 529.106445312 334.787109375 528.486328125 334.787109375 527.852539062 c 0
 334.787109375 514.852539062 322.555664062 495.853515625 306.482421875 488.178710938 c 1
 283.467773438 488.705078125 265.98046875 500.139648438 246 500.139648438 c 0
 219.323242188 500.139648438 206.737304688 489.641601562 184.094726562 467 c 0
 160.094726562 443 132.094726562 404 98.0947265625 357 c 1
 94.2724609375 361.403320312 l 1
 111.713867188 394.94140625 150.094726562 448 209.745117188 512.75390625 c 0
 233.307617188 538.33203125 251.625976562 554.094726562 284.272460938 554.094726562 c 0
 303.418945312 554.094726562 321.118164062 546.817382812 334.69921875 529.709960938 c 1
344 189 m 0
 319 168 280 145 214 145 c 0
 173 145 118 145 91 140 c 1
 96 110 132 46 186 46 c 0
 212 46 239 56 254 61 c 0
 259 60 261 55 258 49 c 0
 225 16 191 -15 131 -15 c 0
 55 -15 22 84 22 132 c 0
 22 150 24 167 28 181 c 0
 64 268 142 297 195 297 c 0
 231 297 254 276 254 244 c 0
 254 230 248 209 233 191 c 1
 237.938476562 190.84765625 242.610351562 190.776367188 247.040039062 190.776367188 c 0
 300.926757812 190.776367188 318.974609375 201.303710938 343 205 c 0
 345.24609375 203.876953125 346.545898438 200.231445312 346.545898438 196.541992188 c 0
 346.545898438 193.661132812 345.75390625 190.75390625 344 189 c 0
188 214 m 0
 188 237 175 248 145 248 c 0
 111 248 82 231 82 177 c 1
 109 184 141 189 184 190 c 1
 187 198 188 207 188 214 c 0
EndSplineSet
Validated: 1
MultipleSubs2: "'ccmp' Glyph Composition/Decomposition lookup 1 subtable" e acutecomb
EndChar

StartChar: iacute
Encoding: 237 237 115
Width: 185
GlyphClass: 2
Flags: MW
LayerCount: 2
Fore
SplineSet
272.604492188 529.709960938 m 1
 272.6640625 529.106445312 272.692382812 528.486328125 272.692382812 527.852539062 c 0
 272.692382812 514.852539062 260.4609375 495.854492188 244.387695312 488.178710938 c 1
 221.373046875 488.705078125 203.885742188 500.139648438 183.905273438 500.139648438 c 0
 157.228515625 500.139648438 144.642578125 489.642578125 122 467 c 0
 98 443 70 404 36 357 c 1
 32.177734375 361.403320312 l 1
 49.619140625 394.94140625 88 448 147.650390625 512.75390625 c 0
 171.212890625 538.333007812 189.53125 554.094726562 222.177734375 554.094726562 c 0
 241.32421875 554.094726562 259.0234375 546.817382812 272.604492188 529.709960938 c 1
158 60 m 0
 158 35 126 8.001953125 113 -4.998046875 c 0
 109 -8.998046875 98 -13.998046875 87 -13.998046875 c 0
 77 -13.998046875 68 -6.998046875 62 3.001953125 c 1
 71 47.001953125 78 136.001953125 78 161.001953125 c 0
 78 188.001953125 47 201.001953125 15 215.001953125 c 0
 12.9814453125 215.80859375 12.103515625 218.409179688 12.103515625 221.486328125 c 0
 12.103515625 226.03125 14.0185546875 231.616210938 17 234.000976562 c 0
 44 255.000976562 85 293.000976562 119 293.000976562 c 0
 140.16015625 293.000976562 141.005859375 266.762695312 141.005859375 246.990234375 c 0
 141.005859375 207.4921875 126 136.397460938 126 89 c 0
 126 66 158 70 158 60 c 0
EndSplineSet
Validated: 1
MultipleSubs2: "'ccmp' Glyph Composition/Decomposition lookup 1 subtable" i acutecomb
EndChar

StartChar: eth
Encoding: 240 240 116
Width: 293
GlyphClass: 2
Flags: MW
AnchorPoint: "Above" 163 634 basechar 0
AnchorPoint: "Below" 151 -50 basechar 0
LayerCount: 2
Fore
SplineSet
351 398 m 0
 351 377 339 353 320 353 c 0
 307.774414062 353 274.32421875 361.3046875 245.03515625 361.3046875 c 0
 231.205078125 361.3046875 218.301757812 359.453125 209 354 c 1
 228 314 281 153 281 96 c 0
 281 4 183 -11 116 -11 c 0
 38 -11 29 56 29 80 c 0
 29 177 127 226 178 241 c 1
 173 261 165 283 155 305 c 1
 3 196 l 1
 -30 202 l 1
 -13 246 41 294 52 299 c 0
 63 306 99 307 143 329 c 1
 119 419 56 517 41 555 c 1
 41 582 53 592 65 592 c 0
 74 592 85 590 85 590 c 1
 111 561 182 427 199 373 c 1
 213 384 293 440 306 448 c 1
 327 448 351 422 351 398 c 0
215 97 m 0
 215 140 202 181 186 215 c 1
 166 215 81 184 81 123 c 0
 81 77 142 23 182 23 c 0
 212 23 215 32 215 97 c 0
EndSplineSet
Validated: 1
Substitution2: "Single Substitution lookup 11 subtable" eth.alt
Substitution2: "'salt' Stylistic Alternatives lookup 6 subtable" eth.alt
EndChar

StartChar: oacute
Encoding: 243 243 117
Width: 289
GlyphClass: 2
Flags: MW
LayerCount: 2
Fore
SplineSet
318.604492188 529.709960938 m 1
 318.6640625 529.106445312 318.692382812 528.486328125 318.692382812 527.852539062 c 0
 318.692382812 514.852539062 306.4609375 495.854492188 290.387695312 488.178710938 c 1
 267.373046875 488.705078125 249.885742188 500.139648438 229.905273438 500.139648438 c 0
 203.228515625 500.139648438 190.642578125 489.642578125 168 467 c 0
 144 443 116 404 82 357 c 1
 78.177734375 361.403320312 l 1
 95.619140625 394.94140625 134 448 193.650390625 512.75390625 c 0
 217.212890625 538.333007812 235.53125 554.094726562 268.177734375 554.094726562 c 0
 287.32421875 554.094726562 305.0234375 546.817382812 318.604492188 529.709960938 c 1
278 151 m 0
 278 133 272 94 250 68 c 0
 233 48 164 -12 114 -12 c 0
 56 -12 22 14 22 104 c 0
 22 198 71 294 187 294 c 0
 256 294 278 186 278 151 c 0
209 139 m 0
 209 170 165 251 133 251 c 0
 101 251 86 222 86 184 c 0
 86 141 104 58 166 58 c 0
 203 58 209 109 209 139 c 0
EndSplineSet
Validated: 1
EndChar

StartChar: uacute
Encoding: 250 250 118
Width: 333
GlyphClass: 2
Flags: MW
LayerCount: 2
Fore
SplineSet
349.69921875 529.709960938 m 1
 349.758789062 529.106445312 349.787109375 528.486328125 349.787109375 527.852539062 c 0
 349.787109375 514.852539062 337.555664062 495.854492188 321.482421875 488.178710938 c 1
 298.467773438 488.705078125 280.98046875 500.139648438 261 500.139648438 c 0
 234.323242188 500.139648438 221.737304688 489.642578125 199.094726562 467 c 0
 175.094726562 443 147.094726562 404 113.094726562 357 c 1
 109.272460938 361.403320312 l 1
 126.713867188 394.94140625 165.094726562 448 224.745117188 512.75390625 c 0
 248.307617188 538.333007812 266.625976562 554.094726562 299.272460938 554.094726562 c 0
 318.418945312 554.094726562 336.118164062 546.817382812 349.69921875 529.709960938 c 1
330 28 m 1
 319 18 276 -18 248 -18 c 0
 233.123046875 -18 227.848632812 0.2919921875 227.848632812 20.1767578125 c 0
 227.848632812 29.6962890625 229.056640625 39.5810546875 231 47.9990234375 c 1
 214 27.9990234375 136 -17.0009765625 98 -17.0009765625 c 0
 50 -17.0009765625 39 44.9990234375 39 64.9990234375 c 0
 39 83.9990234375 64 154.999023438 64 188.999023438 c 0
 64 215.999023438 33 227.999023438 33 254.999023438 c 0
 33 267.999023438 94 298.999023438 106 298.999023438 c 0
 116 298.999023438 123 288.999023438 123 278.999023438 c 0
 123 238.999023438 106 191.999023438 106 137.999023438 c 0
 106 96.9990234375 124 58.9990234375 158 58.9990234375 c 0
 192 58.9990234375 233 86.9990234375 243 95.9990234375 c 1
 248 107.999023438 257 146.999023438 257 177.999023438 c 0
 257 181.666015625 257.111328125 185.666015625 257.111328125 189.740234375 c 0
 257.111328125 197.888671875 256.666992188 206.333007812 254 213 c 0
 251 220 215 223 202 225 c 1
 197 232 197 246 202 251 c 0
 214 257 255 284 284 284 c 0
 302 284 315 273 315 260 c 0
 315 236 304 138 304 86 c 0
 304 37 319 41 330 40 c 1
 330 28 l 1
EndSplineSet
Validated: 1
EndChar

StartChar: yacute
Encoding: 253 253 119
Width: 340
GlyphClass: 2
Flags: MW
LayerCount: 2
Fore
SplineSet
352.69921875 529.709960938 m 1
 352.758789062 529.106445312 352.787109375 528.486328125 352.787109375 527.852539062 c 0
 352.787109375 514.852539062 340.555664062 495.854492188 324.482421875 488.178710938 c 1
 301.467773438 488.705078125 283.98046875 500.139648438 264 500.139648438 c 0
 237.323242188 500.139648438 224.737304688 489.642578125 202.094726562 467 c 0
 178.094726562 443 150.094726562 404 116.094726562 357 c 1
 112.272460938 361.403320312 l 1
 129.713867188 394.94140625 168.094726562 448 227.745117188 512.75390625 c 0
 251.307617188 538.333007812 269.625976562 554.094726562 302.272460938 554.094726562 c 0
 321.418945312 554.094726562 339.118164062 546.817382812 352.69921875 529.709960938 c 1
325 238 m 0
 325 196 274.999023438 114.999023438 221.999023438 51.9990234375 c 0
 164.999023438 -14.0009765625 194.999023438 11.9990234375 66.9990234375 -110.000976562 c 0
 20.9990234375 -155.000976562 -10.0009765625 -193.000976562 -40.0009765625 -268.000976562 c 0
 -43.74609375 -273.885742188 -54.07421875 -278.053710938 -64.0947265625 -278.053710938 c 0
 -72.8037109375 -278.053710938 -81.2802734375 -274.905273438 -85 -267 c 1
 -70 -238 -32 -162 0 -124 c 0
 32 -85 79 -43 101 -18 c 1
 98 39 98 143 39 215 c 0
 22 236 21 246 -10 263 c 1
 -10 263 32 293 42 293 c 0
 53 293 67 289 74 282 c 0
 112 244 146 120 162 43 c 1
 190 66 216 99 229 117 c 0
 241 134 256 167 256 203 c 1
 251 215 230 215 218 220 c 0
 214.558390306 223.441609694 212.799178843 229.844275675 212.799178843 235.999999755 c 3
 212.799178843 240.575981988 213.868008078 245.01521131 216 248 c 1
 231 255 260 276 290 276 c 0
 325 276 325 252 325 238 c 0
EndSplineSet
Validated: 1
EndChar

StartChar: thorn
Encoding: 254 254 120
Width: 271
GlyphClass: 2
Flags: MW
AnchorPoint: "Above" 138 720 basechar 0
AnchorPoint: "Below" 198 -50 basechar 0
LayerCount: 2
Fore
SplineSet
252 215 m 0
 252 174 204 47.9990234375 102 -18.0009765625 c 1
 96.580078125 -78.1650390625 95.8603515625 -118.939453125 95.8603515625 -145.737304688 c 0
 95.8603515625 -155.426757812 95.9541015625 -163.2890625 95.9541015625 -169.580078125 c 0
 95.9541015625 -177.9921875 95.7861328125 -183.594726562 95 -187.000976562 c 0
 83 -231.000976562 80 -251.000976562 60 -284.000976562 c 0
 57.3623046875 -286.111328125 51.94140625 -287.38671875 46.8212890625 -287.38671875 c 0
 42.2353515625 -287.38671875 37.8896484375 -286.36328125 36 -284.000976562 c 0
 36 -188.000976562 34.7197265625 -78.560546875 34.7197265625 -1.7607421875 c 0
 34.7197265625 17.439453125 34.7998046875 34.599609375 35 49 c 0
 37 122 52 244 55 290 c 0
 58 325 65 456 65 519 c 0
 65 557 -10 581 -20 588 c 0
 -21.18359375 590.3671875 -21.744140625 593.356445312 -21.744140625 596.415039062 c 0
 -21.744140625 601.111328125 -20.421875 605.97265625 -18 609.000976562 c 0
 6 625.000976562 49 661.000976562 78 661.000976562 c 0
 116 661.000976562 131 634.000976562 131 622.000976562 c 0
 131 606.76953125 132.916992188 556.604492188 132.916992188 492.936523438 c 0
 132.916992188 418.657226562 130.307617188 326 119 249 c 1
 134 257 161 284 200 284 c 0
 242 284 252 253 252 215 c 0
179 158.999023438 m 0
 179 174.999023438 168.999023438 219.999023438 142.999023438 219.999023438 c 2
 114.999023438 219.999023438 l 1
 111.522460938 187.834960938 101.244140625 97.486328125 101.244140625 44.19921875 c 0
 101.244140625 36.1865234375 101.4765625 29.01171875 102 22.9990234375 c 1
 132 47.9990234375 179 114.999023438 179 158.999023438 c 0
EndSplineSet
Validated: 1
EndChar

StartChar: Amacron
Encoding: 256 256 121
Width: 659
VWidth: 850
GlyphClass: 2
Flags: HMW
LayerCount: 2
Fore
SplineSet
491.900390625 706.349609375 m 0
 491.900390625 692.75 464.700195312 656.200195312 442.599609375 656.200195312 c 0
 430.700195312 656.200195312 428.150390625 674.900390625 418.799804688 674.900390625 c 0
 395 674.900390625 212.25 658.75 189.299804688 658.75 c 0
 169.75 658.75 157.849609375 659.599609375 157.849609375 675.75 c 0
 157.849609375 691.900390625 184.200195312 721.650390625 202.900390625 721.650390625 c 0
 216.5 721.650390625 213.950195312 703.799804688 234.349609375 703.799804688 c 0
 267.5 703.799804688 427.299804688 721.650390625 454.5 721.650390625 c 0
 471.5 721.650390625 491.900390625 721.650390625 491.900390625 706.349609375 c 0
649 8 m 0
 629 1 587 -6 556 -6 c 0
 519 -6 462 -5 435 3 c 0
 425 6 423 16 431 20 c 0
 438 20 475 32 482 37 c 1
 479 88 439 167 439 167 c 1
 334 167 265 172 184 258 c 1
 153 188 127 116 95 40 c 1
 104 28 127 27 144 23 c 1
 147 17 147 8 142 5 c 0
 127 -3 96 -4 66 -5 c 0
 64 -5 63 -5 61 -5 c 0
 35 -5 7 0 -10 0 c 0
 -14 3 -16 7 -16 11 c 0
 -16 15 -14 18 -9 20 c 0
 6 23 35 31 46 38 c 1
 56 49 59 60 62 69 c 0
 82 117 91 134 111 182 c 0
 125 215 207 427 207 427 c 2
 219 457 249 518 262 552 c 1
 215 552 229 553 182 553 c 0
 142 553 110 524 90 500 c 1
 90 502 90 504 90 506 c 0
 90 528 96 573 110 584 c 1
 203 584 l 2
 242 584 326 585 361 585 c 0
 371 585 382 582 389 562 c 0
 428 452 471 362 510 260 c 0
 536 195 559 119 592 43 c 1
 605 34 636 32 649 29 c 0
 652 26 655 20 655 15 c 0
 655 12 653 9 649 8 c 0
419 217 m 1
 295 539 l 1
 268 479 234 379 208 315 c 1
 250 241 321 217 419 217 c 1
EndSplineSet
MultipleSubs2: "'ccmp' Glyph Composition/Decomposition lookup 1 subtable" A CapMacron
EndChar

StartChar: amacron
Encoding: 257 257 122
Width: 339
GlyphClass: 2
Flags: MW
LayerCount: 2
Fore
SplineSet
338 471 m 0
 338 455 308 412 280 412 c 0
 266 412 263 434 252 434 c 0
 224 434 109 415 82 415 c 0
 59 415 45 417 45 435 c 0
 45 452 74 489 98 489 c 0
 114 489 111 468 135 468 c 0
 174 468 262 489 294 489 c 0
 314 489 338 489 338 471 c 0
365 74 m 1
 356 63 297 0 248 0 c 0
 213 0 207 40 206 54 c 1
 153 17 115 -13 68 -13 c 0
 19 -13 18 89 18 89 c 1
 18 126 36 163 65 192 c 0
 117 244 220 304 229 304 c 0
 239 304 252 302 253 293 c 0
 260 208 263 120 273 83 c 0
 278 66 289 62 302 62 c 0
 314 62 344 75 361 85 c 1
 365 74 l 1
205 66 m 1
 203 84 205 180 199 227 c 0
 198 239 192 243 191 247 c 1
 159 227 83 185 83 131 c 0
 83 75 133 56 152 56 c 0
 171 56 205 66 205 66 c 1
EndSplineSet
Validated: 1
EndChar

StartChar: Emacron
Encoding: 274 274 123
Width: 441
VWidth: 850
GlyphClass: 2
Flags: HMW
LayerCount: 2
Fore
SplineSet
381.900390625 706.349609375 m 0
 381.900390625 692.75 354.700195312 656.200195312 332.599609375 656.200195312 c 0
 320.700195312 656.200195312 318.150390625 674.900390625 308.799804688 674.900390625 c 0
 285 674.900390625 102.25 658.75 79.2998046875 658.75 c 0
 59.75 658.75 47.849609375 659.599609375 47.849609375 675.75 c 0
 47.849609375 691.900390625 74.2001953125 721.650390625 92.900390625 721.650390625 c 0
 106.5 721.650390625 103.950195312 703.799804688 124.349609375 703.799804688 c 0
 157.5 703.799804688 317.299804688 721.650390625 344.5 721.650390625 c 0
 361.5 721.650390625 381.900390625 721.650390625 381.900390625 706.349609375 c 0
395 90 m 0
 395 87 395 83 395 78 c 0
 395 52 394 10 388 -1 c 1
 367 -1 352 -1 339 -1 c 0
 313 -1 294 -1 253 -1 c 0
 208 -1 176 -1 145 -1 c 0
 107 -1 71 0 20 2 c 0
 13 5 15 17 20 20 c 0
 46 25 57 25 73 38 c 1
 73 220 71 469 68 543 c 1
 48 555 40 557 14 562 c 0
 11 563 10 568 10 572 c 0
 10 576 11 579 14 580 c 0
 65 582 102 583 140 583 c 0
 171 583 203 582 248 582 c 0
 289 582 308 583 334 583 c 0
 347 583 362 582 383 582 c 1
 389 571 390 529 390 503 c 0
 390 498 390 494 390 491 c 0
 387 484 378 480 370 488 c 1
 362 503 331 535 315 546 c 1
 296 551 278 552 260 552 c 0
 249 552 239 552 228 552 c 0
 172 552 168 547 153 542 c 0
 153 540 153 538 153 534 c 0
 153 516 151 476 151 439 c 0
 151 431 151 424 151 417 c 2
 155 298 l 1
 178 298 197 297 215 297 c 0
 247 297 276 298 320 302 c 0
 347 305 366 338 368 346 c 0
 371 350 383 350 386 345 c 2
 386 345 389 276 389 237 c 0
 389 223 389 213 388 211 c 0
 387 207 371 204 368 210 c 0
 366 219 349 250 324 250 c 0
 312 250 231 251 156 251 c 1
 157 39 l 1
 171 34 180 30 233 30 c 0
 244 30 254 29 265 29 c 0
 283 29 301 31 320 36 c 1
 338 47 369 83 375 94 c 0
 382 100 392 97 395 90 c 0
EndSplineSet
MultipleSubs2: "'ccmp' Glyph Composition/Decomposition lookup 1 subtable" E CapMacron
EndChar

StartChar: emacron
Encoding: 275 275 124
Width: 321
GlyphClass: 2
Flags: MW
LayerCount: 2
Fore
SplineSet
344 189 m 0
 319 168 280 145 214 145 c 0
 173 145 118 145 91 140 c 1
 96 110 132 46 186 46 c 0
 212 46 239 56 254 61 c 0
 259 60 261 55 258 49 c 0
 225 16 191 -15 131 -15 c 0
 55 -15 22 84 22 132 c 0
 22 150 24 167 28 181 c 0
 64 268 142 297 195 297 c 0
 231 297 254 276 254 244 c 0
 254 230 248 209 233 191 c 1
 237.938476562 190.84765625 242.610351562 190.776367188 247.040039062 190.776367188 c 0
 300.926757812 190.776367188 318.974609375 201.303710938 343 205 c 0
 345.24609375 203.876953125 346.545898438 200.231445312 346.545898438 196.541992188 c 0
 346.545898438 193.661132812 345.75390625 190.75390625 344 189 c 0
188 214 m 0
 188 237 175 248 145 248 c 0
 111 248 82 231 82 177 c 1
 109 184 141 189 184 190 c 1
 187 198 188 207 188 214 c 0
318 471 m 0
 318 455 288 412 260 412 c 0
 246 412 243 434 232 434 c 0
 204 434 89 415 62 415 c 0
 39 415 25 417 25 435 c 0
 25 452 54 489 78 489 c 0
 94 489 91 468 115 468 c 0
 154 468 242 489 274 489 c 0
 294 489 318 489 318 471 c 0
EndSplineSet
Validated: 1
MultipleSubs2: "'ccmp' Glyph Composition/Decomposition lookup 1 subtable" e uni0304
EndChar

StartChar: eogonek
Encoding: 281 281 125
Width: 321
GlyphClass: 2
Flags: MW
AnchorPoint: "Above" 164 350 basechar 0
AnchorPoint: "Below" 186 -50 basechar 0
LayerCount: 2
Fore
SplineSet
344 189 m 0
 319 168 280 145 214 145 c 0
 173 145 118 145 91 140 c 1
 96 110 132 46 186 46 c 0
 212 46 239 56 254 61 c 0
 259 60 261 55 258 49 c 0
 229 20 210 4 185 -4 c 1
 168 -26 101 -88 35 -129 c 0
 14 -142 -15 -153 -40 -153 c 0
 -61 -153 -87 -147 -87 -124 c 0
 -87 -94 -52 -57 -26 -43 c 0
 8 -25 33 -12 84 0 c 1
 38 29 22 100 22 132 c 0
 22 150 24 167 28 181 c 0
 64 268 142 297 195 297 c 0
 231 297 254 276 254 244 c 0
 254 230 248 209 233 191 c 1
 237.938476562 190.84765625 242.610351562 190.776367188 247.040039062 190.776367188 c 0
 300.926757812 190.776367188 318.974609375 201.303710938 343 205 c 0
 345.24609375 203.876953125 346.545898438 200.231445312 346.545898438 196.541992188 c 0
 346.545898438 193.661132812 345.75390625 190.75390625 344 189 c 0
188 214 m 0
 188 237 175 248 145 248 c 0
 111 248 82 231 82 177 c 1
 109 184 141 189 184 190 c 1
 187 198 188 207 188 214 c 0
152 -13 m 1
 147 -14 141 -15 134 -15 c 0
 116 -15 115 -14 109 -12 c 0
 55 -24 40 -32 3 -50 c 0
 -19 -61 -38 -87 -38 -102 c 0
 -38 -117 -22 -123 -9 -123 c 0
 3 -123 19 -115 33 -107 c 0
 67 -87 121 -49 152 -13 c 1
EndSplineSet
Validated: 1
EndChar

StartChar: Imacron
Encoding: 298 298 126
Width: 265
VWidth: 850
GlyphClass: 2
Flags: HMW
LayerCount: 2
Fore
SplineSet
291.900390625 706.349609375 m 0
 291.900390625 692.75 264.700195312 656.200195312 242.599609375 656.200195312 c 0
 230.700195312 656.200195312 228.150390625 674.900390625 218.799804688 674.900390625 c 0
 195 674.900390625 12.25 658.75 -10.7001953125 658.75 c 0
 -30.25 658.75 -42.150390625 659.599609375 -42.150390625 675.75 c 0
 -42.150390625 691.900390625 -15.7998046875 721.650390625 2.900390625 721.650390625 c 0
 16.5 721.650390625 13.9501953125 703.799804688 34.349609375 703.799804688 c 0
 67.5 703.799804688 227.299804688 721.650390625 254.5 721.650390625 c 0
 271.5 721.650390625 291.900390625 721.650390625 291.900390625 706.349609375 c 0
237 6 m 0
 214 -8 153 -12 121 -13 c 0
 119 -13 117 -13 115 -13 c 0
 86 -13 71 -6 14 5 c 0
 11 7 9 13 9 19 c 0
 9 24 10 29 14 32 c 0
 37 39 58 39 73 59 c 1
 73 240 71 461 68 535 c 1
 48 550 39 553 14 556 c 0
 11 557 10 562 10 566 c 0
 10 570 11 573 14 574 c 0
 35 578 92 587 108 587 c 0
 159 587 181 583 214 574 c 0
 218 571 217 560 214 556 c 1
 194 554 179 549 160 528 c 1
 158 505 156 241 156 62 c 1
 186 31 208 35 236 32 c 1
 240 28 243 23 243 18 c 0
 243 14 241 10 237 6 c 0
EndSplineSet
EndChar

StartChar: imacron
Encoding: 299 299 127
Width: 185
GlyphClass: 2
Flags: MW
LayerCount: 2
Fore
SplineSet
158 60 m 0
 158 35 126 8.0009765625 113 -4.9990234375 c 0
 109 -8.9990234375 98 -13.9990234375 87 -13.9990234375 c 0
 77 -13.9990234375 68 -6.9990234375 62 3.0009765625 c 1
 71 47.0009765625 78 136.000976562 78 161.000976562 c 0
 78 188.000976562 47 201.000976562 15 215.000976562 c 0
 10 217.000976562 12 230.000976562 17 234.000976562 c 0
 44 255.000976562 85 293.000976562 119 293.000976562 c 0
 140.16015625 293.000976562 141.005859375 266.762695312 141.005859375 246.990234375 c 0
 141.005859375 207.4921875 126 136.397460938 126 89 c 0
 126 66 158 70 158 60 c 0
248 471.000976562 m 0
 248 455.000976562 218 412.000976562 190 412.000976562 c 0
 176 412.000976562 173 434.000976562 162 434.000976562 c 0
 134 434.000976562 19 415.000976562 -8 415.000976562 c 0
 -31 415.000976562 -45 417.000976562 -45 435.000976562 c 0
 -45 452.000976562 -16 489.000976562 8 489.000976562 c 0
 24 489.000976562 21 468.000976562 45 468.000976562 c 0
 84 468.000976562 172 489.000976562 204 489.000976562 c 0
 224 489.000976562 248 489.000976562 248 471.000976562 c 0
EndSplineSet
Validated: 1
MultipleSubs2: "'ccmp' Glyph Composition/Decomposition lookup 1 subtable" i uni0304
EndChar

StartChar: dotlessi
Encoding: 305 305 128
Width: 175
GlyphClass: 2
Flags: MW
AnchorPoint: "Above" 100 350 basechar 0
AnchorPoint: "Below" 90 -50 basechar 0
LayerCount: 2
Fore
SplineSet
153 60 m 0
 153 35 121 8.001953125 108 -4.998046875 c 0
 104 -8.998046875 93 -13.998046875 82 -13.998046875 c 0
 72 -13.998046875 63 -6.998046875 57 3.001953125 c 1
 66 47.001953125 73 136.001953125 73 161.001953125 c 0
 73 188.001953125 42 201.001953125 10 215.001953125 c 0
 7.9814453125 215.80859375 7.103515625 218.409179688 7.103515625 221.486328125 c 0
 7.103515625 226.03125 9.0185546875 231.616210938 12 234.000976562 c 0
 39 255.000976562 80 293.000976562 114 293.000976562 c 0
 135.16015625 293.000976562 136.005859375 266.762695312 136.005859375 246.990234375 c 0
 136.005859375 207.4921875 121 136.397460938 121 89 c 0
 121 66 153 70 153 60 c 0
EndSplineSet
Validated: 1
EndChar

StartChar: Omacron
Encoding: 332 332 129
Width: 559
VWidth: 850
GlyphClass: 2
Flags: HMW
LayerCount: 2
Fore
SplineSet
461.900390625 706.349609375 m 0
 461.900390625 692.75 434.700195312 656.200195312 412.599609375 656.200195312 c 0
 400.700195312 656.200195312 398.150390625 674.900390625 388.799804688 674.900390625 c 0
 365 674.900390625 182.25 658.75 159.299804688 658.75 c 0
 139.75 658.75 127.849609375 659.599609375 127.849609375 675.75 c 0
 127.849609375 691.900390625 154.200195312 721.650390625 172.900390625 721.650390625 c 0
 186.5 721.650390625 183.950195312 703.799804688 204.349609375 703.799804688 c 0
 237.5 703.799804688 397.299804688 721.650390625 424.5 721.650390625 c 0
 441.5 721.650390625 461.900390625 721.650390625 461.900390625 706.349609375 c 0
536 305 m 0
 536 240 464 -11 277 -11 c 0
 142 -11 20 124 20 258 c 0
 20 432 131 589 287 589 c 0
 457 589 536 436 536 305 c 0
472 252 m 0
 472 364 373 515 239 515 c 0
 132 515 90 451 90 342 c 0
 90 193 228 69 319 69 c 0
 457 69 472 194 472 252 c 0
EndSplineSet
EndChar

StartChar: omacron
Encoding: 333 333 130
Width: 289
GlyphClass: 2
Flags: MW
LayerCount: 2
Fore
SplineSet
278 151 m 0
 278 133 272 94 250 68 c 0
 233 48 164 -12 114 -12 c 0
 56 -12 22 14 22 104 c 0
 22 198 71 294 187 294 c 0
 256 294 278 186 278 151 c 0
209 139 m 0
 209 170 165 251 133 251 c 0
 101 251 86 222 86 184 c 0
 86 141 104 58 166 58 c 0
 203 58 209 109 209 139 c 0
298 471 m 0
 298 455 268 412 240 412 c 0
 226 412 223 434 212 434 c 0
 184 434 69 415 42 415 c 0
 19 415 5 417 5 435 c 0
 5 452 34 489 58 489 c 0
 74 489 71 468 95 468 c 0
 134 468 222 489 254 489 c 0
 274 489 298 489 298 471 c 0
EndSplineSet
Validated: 1
EndChar

StartChar: Umacron
Encoding: 362 362 131
Width: 627
VWidth: 850
GlyphClass: 2
Flags: HMW
LayerCount: 2
Fore
SplineSet
471.900390625 706.349609375 m 0
 471.900390625 692.75 444.700195312 656.200195312 422.599609375 656.200195312 c 0
 410.700195312 656.200195312 408.150390625 674.900390625 398.799804688 674.900390625 c 0
 375 674.900390625 192.25 658.75 169.299804688 658.75 c 0
 149.75 658.75 137.849609375 659.599609375 137.849609375 675.75 c 0
 137.849609375 691.900390625 164.200195312 721.650390625 182.900390625 721.650390625 c 0
 196.5 721.650390625 193.950195312 703.799804688 214.349609375 703.799804688 c 0
 247.5 703.799804688 407.299804688 721.650390625 434.5 721.650390625 c 0
 451.5 721.650390625 471.900390625 721.650390625 471.900390625 706.349609375 c 0
507 -33 m 0
 479 -33 454 3 454 32 c 0
 454 47 452 73 452 73 c 1
 398 22 338 -15 263 -15 c 0
 150 -15 10 48 10 208 c 0
 10 334 43 409 43 429 c 0
 43 457 19 475 -14 478 c 0
 -18 481 -19 485 -19 489 c 0
 -19 493 -18 497 -14 500 c 2
 -14 500 76 576 141 576 c 0
 158 576 162 566 162 550 c 0
 162 500 83 405 83 280 c 0
 83 168 188 56 333 56 c 0
 379 56 429 82 451 100 c 1
 451 100 450 132 450 147 c 0
 450 206 458 320 458 408 c 0
 458 455 442 461 382 477 c 0
 378 481 377 485 377 490 c 0
 377 494 379 498 382 502 c 0
 408 523 476 572 527 572 c 0
 547 572 552 563 552 547 c 0
 552 521 540 480 537 435 c 0
 532 375 532 330 532 287 c 0
 532 265 532 244 532 222 c 0
 532 182 536 158 536 104 c 0
 536 18 610 53 610 31 c 0
 610 10 555 -33 507 -33 c 0
EndSplineSet
EndChar

StartChar: umacron
Encoding: 363 363 132
Width: 333
GlyphClass: 2
Flags: MW
LayerCount: 2
Fore
SplineSet
318 471 m 0
 318 455 288 412 260 412 c 0
 246 412 243 434 232 434 c 0
 204 434 89 415 62 415 c 0
 39 415 25 417 25 435 c 0
 25 452 54 489 78 489 c 0
 94 489 91 468 115 468 c 0
 154 468 242 489 274 489 c 0
 294 489 318 489 318 471 c 0
330 28 m 1
 319 18 276 -18 248 -18 c 0
 233.123046875 -18 227.848632812 0.2919921875 227.848632812 20.1767578125 c 0
 227.848632812 29.6962890625 229.056640625 39.5810546875 231 47.9990234375 c 1
 214 27.9990234375 136 -17.0009765625 98 -17.0009765625 c 0
 50 -17.0009765625 39 44.9990234375 39 64.9990234375 c 0
 39 83.9990234375 64 154.999023438 64 188.999023438 c 0
 64 215.999023438 33 227.999023438 33 254.999023438 c 0
 33 267.999023438 94 298.999023438 106 298.999023438 c 0
 116 298.999023438 123 288.999023438 123 278.999023438 c 0
 123 238.999023438 106 191.999023438 106 137.999023438 c 0
 106 96.9990234375 124 58.9990234375 158 58.9990234375 c 0
 192 58.9990234375 233 86.9990234375 243 95.9990234375 c 1
 248 107.999023438 257 146.999023438 257 177.999023438 c 0
 257 181.666015625 257.111328125 185.666015625 257.111328125 189.740234375 c 0
 257.111328125 197.888671875 256.666992188 206.333007812 254 213 c 0
 251 220 215 223 202 225 c 1
 197 232 197 246 202 251 c 0
 214 257 255 284 284 284 c 0
 302 284 315 273 315 260 c 0
 315 236 304 138 304 86 c 0
 304 37 319 41 330 40 c 1
 330 28 l 1
EndSplineSet
Validated: 1
EndChar

StartChar: longs
Encoding: 383 383 133
Width: 214
GlyphClass: 2
Flags: MW
AnchorPoint: "Above" 196 550 basechar 0
AnchorPoint: "Below" 131 -230 basechar 0
LayerCount: 2
Fore
SplineSet
364 471 m 4
 364 444 338 399 311 399 c 4
 300 399 279 440 240 440 c 4
 203 440 118 365 118 322 c 4
 118 211 128 201 143 88 c 4
 153 17 160 -63 174 -128 c 4
 175 -132 176 -137 176 -141 c 4
 176 -171 154 -201 133 -201 c 4
 114 -201 102 -190 102 -190 c 5
 102 -147 89 -74 89 -3 c 4
 89 49 43 90 26 118 c 4
 23 122 22 134 22 140 c 4
 22 149 27 156 32 159 c 4
 38 163 53 165 53 210 c 4
 53 255 57 296 72 332 c 4
 90 375 173 468 194 484 c 4
 237 518 255 519 298 519 c 4
 355 519 364 480 364 471 c 4
EndSplineSet
Validated: 1
EndChar

StartChar: uni01BF
Encoding: 447 447 134
Width: 275
GlyphClass: 2
Flags: MW
AnchorPoint: "Above" 152 350 basechar 0
AnchorPoint: "Below" 190 -50 basechar 0
LayerCount: 2
Fore
SplineSet
256 225 m 0
 256 124 182 29.0009765625 114 -20.9990234375 c 1
 114 -121.999023438 l 2
 114 -154.999023438 92 -246.999023438 78 -273.999023438 c 0
 75.6904296875 -275.731445312 71.0478515625 -277.463867188 66.380859375 -277.463867188 c 0
 62.96484375 -277.463867188 59.5361328125 -276.536132812 57 -274 c 2
 57 180 l 2
 57 206 40 236 2 236 c 0
 -0.3623046875 237.416992188 -1.3857421875 239.951171875 -1.3857421875 242.65234375 c 0
 -1.3857421875 245.666992188 -0.1103515625 248.889648438 2 251 c 0
 31 267 67 296 98 296 c 0
 114.766601562 296 124.525390625 285.875976562 124.525390625 260.12890625 c 0
 124.525390625 256.701171875 124.352539062 252.995117188 124 249 c 1
 141 261 183 283 213 283 c 0
 253 283 256 252 256 225 c 0
186 182.000976562 m 0
 186 229.000976562 178.000976562 249.000976562 164.000976562 249.000976562 c 0
 141.000976562 249.000976562 112.000976562 202.000976562 112.000976562 175.000976562 c 2
 114.000976562 42.0009765625 l 2
 114.829101562 41.7939453125 116.086914062 41.6728515625 117.603515625 41.6728515625 c 0
 123.413085938 41.6728515625 133.036132812 43.451171875 137 49.0009765625 c 0
 161 75.0009765625 186 95.0009765625 186 182.000976562 c 0
EndSplineSet
Validated: 1
EndChar

StartChar: uni01E2
Encoding: 482 482 135
Width: 722
VWidth: 850
GlyphClass: 2
Flags: HMW
LayerCount: 2
Fore
SplineSet
631.900390625 706.349609375 m 0
 631.900390625 692.75 604.700195312 656.200195312 582.599609375 656.200195312 c 0
 570.700195312 656.200195312 568.150390625 674.900390625 558.799804688 674.900390625 c 0
 535 674.900390625 352.25 658.75 329.299804688 658.75 c 0
 309.75 658.75 297.849609375 659.599609375 297.849609375 675.75 c 0
 297.849609375 691.900390625 324.200195312 721.650390625 342.900390625 721.650390625 c 0
 356.5 721.650390625 353.950195312 703.799804688 374.349609375 703.799804688 c 0
 407.5 703.799804688 567.299804688 721.650390625 594.5 721.650390625 c 0
 611.5 721.650390625 631.900390625 721.650390625 631.900390625 706.349609375 c 0
678 90 m 0
 678 85 679 78 679 70 c 0
 679 45 677 10 671 -1 c 1
 650 -1 635 -1 622 -1 c 0
 596 -1 577 -1 536 -1 c 0
 491 -1 459 -1 428 -1 c 0
 390 -1 354 0 303 2 c 0
 296 5 298 17 303 20 c 0
 323 21 344 23 356 34 c 1
 356 69 358 124 358 173 c 0
 358 203 357 231 355 252 c 1
 200 252 l 1
 164 201 121 100 82 45 c 1
 95 34 109 32 128 30 c 1
 132 26 135 21 135 16 c 0
 135 12 133 8 129 4 c 0
 99 -4 70 -4 38 -4 c 0
 30 -4 24 -4 19 -4 c 0
 4 -4 -3 -4 -30 0 c 0
 -33 2 -35 8 -35 14 c 0
 -35 19 -34 24 -30 27 c 0
 -12 31 7 29 21 39 c 1
 66 108 77 135 105 181 c 2
 224 385 l 2
 251 431 296 508 299 534 c 1
 289 548 264 551 251 551 c 0
 247 554 244 561 244 567 c 0
 244 574 247 580 254 582 c 0
 355 581 318 580 419 580 c 0
 474 580 577 582 643 582 c 0
 651 582 659 582 666 582 c 1
 672 571 674 536 674 511 c 0
 674 503 673 496 673 491 c 0
 670 484 660 482 653 488 c 0
 643 507 614 536 597 547 c 1
 577 552 560 552 544 552 c 0
 533 552 523 552 511 552 c 0
 469 552 450 545 436 535 c 0
 436 533 437 528 437 522 c 0
 437 499 434 454 434 417 c 0
 434 366 437 368 438 298 c 1
 502 298 534 297 603 303 c 0
 634 306 648 331 651 346 c 0
 654 350 666 350 669 345 c 2
 669 345 672 276 672 237 c 0
 672 223 672 213 671 211 c 0
 670 207 652 204 649 210 c 0
 645 225 634 250 607 250 c 0
 595 250 514 251 439 251 c 1
 440 222 439 65 440 38 c 1
 455 32 474 30 516 30 c 0
 527 30 535 30 544 30 c 0
 559 30 574 30 596 34 c 1
 615 42 648 75 658 94 c 0
 665 100 675 97 678 90 c 0
355 298 m 1
 354 311 355 327 355 344 c 0
 355 397 357 461 357 501 c 0
 357 510 356 518 356 524 c 1
 344 524 l 1
 313 474 254 336 225 298 c 1
 355 298 l 1
EndSplineSet
EndChar

StartChar: uni01E3
Encoding: 483 483 136
Width: 481
GlyphClass: 2
Flags: MW
LayerCount: 2
Fore
SplineSet
503 179 m 0
 504 178 504.75 176.000976562 504.75 173.625976562 c 0
 504.75 171.250976562 504 168.500976562 502 166.000976562 c 0
 495 159.000976562 465 136.000976562 450 133.000976562 c 0
 419 127.000976562 366 127.000976562 313 127.000976562 c 0
 302 127.000976562 287 124.000976562 278 119.000976562 c 1
 278 85.0009765625 l 2
 278 55.0009765625 312 35.0009765625 342 35.0009765625 c 0
 367 35.0009765625 410 51.0009765625 417 53.0009765625 c 0
 422 51.0009765625 424 45.0009765625 420 40.0009765625 c 0
 401 23.0009765625 342 -16.9990234375 293 -16.9990234375 c 0
 270 -16.9990234375 227 0.0009765625 210 49.0009765625 c 1
 185 28.0009765625 148 -3.9990234375 94 -3.9990234375 c 0
 34 -3.9990234375 7 9.0009765625 7 62.0009765625 c 0
 7 139.000976562 158 247.000976562 280 262.000976562 c 1
 296 272.000976562 336 298.000976562 360 298.000976562 c 0
 407 298.000976562 426 270.000976562 426 236.000976562 c 0
 426 205.000976562 417 192.000976562 406 175.000976562 c 1
 420.640625 174.268554688 432.870117188 173.8046875 444.208984375 173.8046875 c 0
 463.846679688 173.8046875 480.810546875 175.196289062 503 179 c 0
374 226.000976562 m 0
 374 246.000976562 374 268.000976562 344 268.000976562 c 0
 333 268.000976562 295 254.000976562 278 239.000976562 c 1
 278 155.000976562 l 1
 299 165.000976562 341 172.000976562 360 173.000976562 c 1
 360 173.000976562 374 201.000976562 374 226.000976562 c 0
206 67.0009765625 m 1
 206 206.000976562 l 1
 144 190.000976562 83 147.000976562 83 109.000976562 c 0
 83 58.0009765625 123 49.0009765625 141 49.0009765625 c 0
 178 49.0009765625 174 53.0009765625 206 67.0009765625 c 1
408 471.000976562 m 0
 408 455.000976562 378 412.000976562 350 412.000976562 c 0
 336 412.000976562 333 434.000976562 322 434.000976562 c 0
 294 434.000976562 179 415.000976562 152 415.000976562 c 0
 129 415.000976562 115 417.000976562 115 435.000976562 c 0
 115 452.000976562 144 489.000976562 168 489.000976562 c 0
 184 489.000976562 181 468.000976562 205 468.000976562 c 0
 244 468.000976562 332 489.000976562 364 489.000976562 c 0
 384 489.000976562 408 489.000976562 408 471.000976562 c 0
EndSplineSet
Validated: 1
MultipleSubs2: "'ccmp' Glyph Composition/Decomposition lookup 1 subtable" ae uni0304
EndChar

StartChar: uni01F7
Encoding: 503 503 137
Width: 450
VWidth: 850
GlyphClass: 2
Flags: HMW
AnchorPoint: "Above" 230 595 basechar 0
AnchorPoint: "Below" 184 -42 basechar 0
LayerCount: 2
Fore
SplineSet
436 439 m 0
 436 300 273 149 156 101 c 1
 156 82 157 50 159 41 c 1
 173 27 191 30 219 24 c 1
 222 20 226 13 220 6 c 0
 198 -5 160 -6 129 -6 c 0
 125 -6 121 -6 117 -6 c 0
 85 -6 68 -5 31 3 c 0
 25 7 24 17 31 24 c 1
 48 28 63 29 73 42 c 1
 73 223 71 448 68 522 c 1
 54 539 34 543 14 547 c 0
 11 548 10 554 10 559 c 0
 10 564 11 569 14 570 c 0
 45 577 62 583 121 583 c 0
 151 583 148 566 152 549 c 1
 174 563 211 582 257 582 c 0
 378 582 436 515 436 439 c 0
352 417 m 0
 352 488 306 552 236 552 c 0
 167 552 153 523 153 509 c 0
 153 507 153 503 153 499 c 0
 153 483 151 453 151 416 c 0
 151 369 154 192 155 128 c 1
 264 182 352 322 352 417 c 0
EndSplineSet
Substitution2: "'salt' Stylistic Alternatives lookup 6 subtable" uni01F7.alt
EndChar

StartChar: AEacute
Encoding: 508 508 138
Width: 722
VWidth: 850
GlyphClass: 2
Flags: HMW
LayerCount: 2
Fore
SplineSet
718.25 708.900390625 m 1
 717.400390625 697.849609375 691.900390625 672.349609375 676.599609375 668.099609375 c 1
 655.349609375 672.349609375 634.950195312 714.849609375 617.950195312 714.849609375 c 0
 599.25 714.849609375 580.549804688 708.049804688 555.049804688 700.400390625 c 0
 477.700195312 678.299804688 439.450195312 663.849609375 368.049804688 631.549804688 c 1
 365.5 635.799804688 l 1
 411.400390625 665.549804688 536.349609375 702.950195312 610.299804688 725.049804688 c 0
 634.099609375 731.849609375 649.400390625 737.799804688 667.25 737.799804688 c 0
 688.5 737.799804688 707.200195312 729.299804688 718.25 708.900390625 c 1
678.299804688 90.099609375 m 0
 678.50390625 84.9951171875 678.658203125 77.9296875 678.658203125 69.9365234375 c 0
 678.658203125 44.66015625 677.10546875 10.130859375 670.6484375 -0.84765625 c 1
 649.96484375 -1.130859375 635.04296875 -1.2255859375 622.041015625 -1.2255859375 c 0
 596.037109375 -1.2255859375 577.715820312 -0.84765625 536.349609375 -0.84765625 c 0
 491.393554688 -0.84765625 458.52734375 -1.18359375 427.75 -1.18359375 c 0
 389.278320312 -1.18359375 354.072265625 -0.6591796875 302.599609375 1.701171875 c 0
 295.799804688 4.251953125 297.5 17.001953125 302.599609375 19.5517578125 c 0
 322.150390625 20.4013671875 344.25 22.951171875 356.150390625 34.001953125 c 1
 356.150390625 69.064453125 357.810546875 123.052734375 357.810546875 172.516601562 c 0
 357.810546875 202.1953125 357.212890625 230.245117188 355.299804688 251.6015625 c 1
 199.75 251.6015625 l 1
 164.049804688 200.6015625 121.549804688 100.301757812 82.4501953125 45.0517578125 c 1
 95.2001953125 34.001953125 109.650390625 31.451171875 128.349609375 29.751953125 c 1
 132.181640625 25.44140625 134.93359375 21.130859375 134.93359375 16.3642578125 c 0
 134.93359375 12.6708984375 133.28125 8.7041015625 129.200195312 4.251953125 c 0
 99.4501953125 -4.248046875 70.5498046875 -4.248046875 38.25 -4.248046875 c 0
 30.1748046875 -4.248046875 24.171875 -4.3017578125 19.138671875 -4.3017578125 c 0
 4.037109375 -4.3017578125 -2.337890625 -3.8232421875 -29.75 0.001953125 c 0
 -32.9814453125 2.310546875 -35.2099609375 7.8779296875 -35.2099609375 13.7099609375 c 0
 -35.2099609375 18.6142578125 -33.6328125 23.7060546875 -29.75 27.201171875 c 0
 -11.900390625 31.451171875 6.7998046875 28.900390625 21.25 39.1005859375 c 1
 66.2998046875 107.951171875 76.5 135.150390625 104.549804688 181.05078125 c 2
 223.549804688 385.05078125 l 2
 250.75 430.951171875 295.799804688 507.451171875 299.200195312 533.80078125 c 1
 289 547.400390625 263.5 550.80078125 250.75 550.80078125 c 0
 246.7578125 553.995117188 244.452148438 560.376953125 244.452148438 566.6015625 c 0
 244.452148438 573.625 247.388671875 580.448242188 254.150390625 582.250976562 c 0
 355.299804688 581.400390625 317.900390625 579.701171875 419.049804688 579.701171875 c 0
 474.205078125 579.701171875 577.044921875 582.387695312 642.796875 582.387695312 c 0
 651.015625 582.387695312 658.655273438 582.345703125 665.549804688 582.250976562 c 1
 672.006835938 571.272460938 673.559570312 536.743164062 673.559570312 511.466796875 c 0
 673.559570312 503.473632812 673.404296875 496.405273438 673.200195312 491.299804688 c 0
 670.650390625 484.5 659.599609375 481.950195312 652.799804688 487.900390625 c 0
 642.599609375 506.599609375 613.700195312 535.5 596.700195312 546.549804688 c 1
 576.809570312 551.140625 560.28515625 552.05859375 544.005859375 552.05859375 c 0
 533.153320312 552.05859375 522.41015625 551.650390625 510.849609375 551.650390625 c 0
 468.349609375 551.650390625 450.5 544.850585938 436.049804688 534.650390625 c 0
 436.390625 532.271484375 436.526367188 527.987304688 436.526367188 522.282226562 c 0
 436.526367188 499.4609375 434.350585938 453.901367188 434.350585938 416.501953125 c 0
 434.350585938 365.501953125 436.900390625 367.201171875 437.750976562 297.501953125 c 1
 501.500976562 297.501953125 533.80078125 297.501953125 602.650390625 303.451171875 c 0
 633.250976562 306.001953125 648.55078125 330.651367188 651.100585938 345.951171875 c 0
 654.500976562 350.201171875 666.400390625 350.201171875 668.951171875 345.1015625 c 2
 668.951171875 345.1015625 672.181640625 276.337890625 672.181640625 237.086914062 c 0
 672.181640625 223.068359375 671.768554688 212.813476562 670.650390625 210.80078125 c 0
 669.799804688 206.55078125 651.950195312 204.000976562 648.549804688 209.951171875 c 0
 644.299804688 225.250976562 634.099609375 249.900390625 606.900390625 249.900390625 c 0
 595 249.900390625 513.400390625 250.750976562 438.599609375 250.750976562 c 1
 439.450195312 221.850585938 439.450195312 65.451171875 440.299804688 38.2509765625 c 1
 455.599609375 32.30078125 473.450195312 29.7509765625 515.950195312 29.7509765625 c 0
 526.459960938 29.7509765625 535.39453125 29.525390625 544.146484375 29.525390625 c 0
 559.4609375 29.525390625 574.212890625 30.2138671875 595.849609375 34 c 1
 614.549804688 41.650390625 647.700195312 74.7998046875 657.900390625 93.5 c 0
 664.700195312 99.4501953125 675.75 96.900390625 678.299804688 90.099609375 c 0
355.298828125 298.352539062 m 1
 354.76953125 311.563476562 354.569335938 327.217773438 354.569335938 344.1015625 c 0
 354.569335938 396.603515625 356.502929688 460.977539062 356.502929688 500.606445312 c 0
 356.502929688 509.733398438 356.400390625 517.547851562 356.1484375 523.602539062 c 1
 344.248046875 523.602539062 l 1
 313.6484375 473.452148438 254.1484375 336.602539062 225.248046875 298.352539062 c 1
 355.298828125 298.352539062 l 1
EndSplineSet
EndChar

StartChar: aeacute
Encoding: 509 509 139
Width: 481
GlyphClass: 2
Flags: MW
LayerCount: 2
Fore
SplineSet
433.69921875 529.709960938 m 1
 433.758789062 529.106445312 433.787109375 528.486328125 433.787109375 527.852539062 c 0
 433.787109375 514.852539062 421.555664062 495.853515625 405.482421875 488.178710938 c 1
 382.467773438 488.705078125 364.98046875 500.139648438 345 500.139648438 c 0
 318.323242188 500.139648438 305.737304688 489.641601562 283.094726562 467 c 0
 259.094726562 443 231.094726562 404 197.094726562 357 c 1
 193.272460938 361.403320312 l 1
 210.713867188 394.94140625 249.094726562 448 308.745117188 512.75390625 c 0
 332.307617188 538.33203125 350.625976562 554.094726562 383.272460938 554.094726562 c 0
 402.418945312 554.094726562 420.118164062 546.817382812 433.69921875 529.709960938 c 1
503 179 m 0
 504 178 504.75 176.000976562 504.75 173.625976562 c 0
 504.75 171.250976562 504 168.500976562 502 166.000976562 c 0
 495 159.000976562 465 136.000976562 450 133.000976562 c 0
 419 127.000976562 366 127.000976562 313 127.000976562 c 0
 302 127.000976562 287 124.000976562 278 119.000976562 c 1
 278 85.0009765625 l 2
 278 55.0009765625 312 35.0009765625 342 35.0009765625 c 0
 367 35.0009765625 410 51.0009765625 417 53.0009765625 c 0
 422 51.0009765625 424 45.0009765625 420 40.0009765625 c 0
 401 23.0009765625 342 -16.9990234375 293 -16.9990234375 c 0
 270 -16.9990234375 227 0.0009765625 210 49.0009765625 c 1
 185 28.0009765625 148 -3.9990234375 94 -3.9990234375 c 0
 34 -3.9990234375 7 9.0009765625 7 62.0009765625 c 0
 7 139.000976562 158 247.000976562 280 262.000976562 c 1
 296 272.000976562 336 298.000976562 360 298.000976562 c 0
 407 298.000976562 426 270.000976562 426 236.000976562 c 0
 426 205.000976562 417 192.000976562 406 175.000976562 c 1
 420.640625 174.268554688 432.870117188 173.8046875 444.208984375 173.8046875 c 0
 463.846679688 173.8046875 480.810546875 175.196289062 503 179 c 0
374 226.000976562 m 0
 374 246.000976562 374 268.000976562 344 268.000976562 c 0
 333 268.000976562 295 254.000976562 278 239.000976562 c 1
 278 155.000976562 l 1
 299 165.000976562 341 172.000976562 360 173.000976562 c 1
 360 173.000976562 374 201.000976562 374 226.000976562 c 0
206 67.0009765625 m 1
 206 206.000976562 l 1
 144 190.000976562 83 147.000976562 83 109.000976562 c 0
 83 58.0009765625 123 49.0009765625 141 49.0009765625 c 0
 178 49.0009765625 174 53.0009765625 206 67.0009765625 c 1
EndSplineSet
Validated: 1
MultipleSubs2: "'ccmp' Glyph Composition/Decomposition lookup 1 subtable" ae acutecomb
EndChar

StartChar: uni0232
Encoding: 562 562 140
Width: 481
VWidth: 850
GlyphClass: 2
Flags: HMW
LayerCount: 2
Fore
SplineSet
411.900390625 706.349609375 m 0
 411.900390625 692.75 384.700195312 656.200195312 362.599609375 656.200195312 c 0
 350.700195312 656.200195312 348.150390625 674.900390625 338.799804688 674.900390625 c 0
 315 674.900390625 132.25 658.75 109.299804688 658.75 c 0
 89.75 658.75 77.849609375 659.599609375 77.849609375 675.75 c 0
 77.849609375 691.900390625 104.200195312 721.650390625 122.900390625 721.650390625 c 0
 136.5 721.650390625 133.950195312 703.799804688 154.349609375 703.799804688 c 0
 187.5 703.799804688 347.299804688 721.650390625 374.5 721.650390625 c 0
 391.5 721.650390625 411.900390625 721.650390625 411.900390625 706.349609375 c 0
486 558 m 0
 466 556 457 553 439 544 c 1
 390 441 327 267 279 161 c 1
 276 139 272 100 272 45 c 1
 291 26 309 27 335 24 c 1
 339 20 341 15 341 10 c 0
 341 6 340 1 336 -3 c 0
 311 -10 266 -9 234 -10 c 0
 231 -10 227 -10 224 -10 c 0
 196 -10 169 -7 133 -3 c 0
 130 -1 128 4 128 10 c 0
 128 15 129 21 133 24 c 0
 151 27 171 25 184 39 c 1
 184 118 183 149 167 191 c 0
 159 211 150 231 144 257 c 1
 113 339 56 477 31 544 c 1
 16 559 3 562 -11 562 c 0
 -14 563 -16 568 -16 572 c 0
 -16 576 -14 579 -11 580 c 0
 10 584 66 587 82 587 c 0
 90 587 98 587 104 587 c 0
 139 587 152 587 180 579 c 0
 184 576 183 565 180 561 c 1
 154 561 127 555 112 541 c 1
 132 471 183 352 210 287 c 1
 226 263 234 232 252 212 c 0
 252 210 256 210 257 213 c 0
 297 296 376 487 395 544 c 1
 382 557 367 557 346 559 c 0
 341 562 339 574 346 577 c 0
 367 581 398 586 414 586 c 0
 465 586 453 584 486 575 c 0
 488 573 489 570 489 567 c 0
 489 563 488 560 486 558 c 0
EndSplineSet
EndChar

StartChar: uni0233
Encoding: 563 563 141
Width: 340
GlyphClass: 2
Flags: MW
LayerCount: 2
Fore
SplineSet
338 471 m 0
 338 455 308 412 280 412 c 0
 266 412 263 434 252 434 c 0
 224 434 109 415 82 415 c 0
 59 415 45 417 45 435 c 0
 45 452 74 489 98 489 c 0
 114 489 111 468 135 468 c 0
 174 468 262 489 294 489 c 0
 314 489 338 489 338 471 c 0
325 238 m 0
 325 196 274.999023438 114.999023438 221.999023438 51.9990234375 c 0
 164.999023438 -14.0009765625 194.999023438 11.9990234375 66.9990234375 -110.000976562 c 0
 20.9990234375 -155.000976562 -10.0009765625 -193.000976562 -40.0009765625 -268.000976562 c 0
 -43.74609375 -273.885742188 -54.07421875 -278.053710938 -64.0947265625 -278.053710938 c 0
 -72.8037109375 -278.053710938 -81.2802734375 -274.905273438 -85 -267 c 1
 -70 -238 -32 -162 0 -124 c 0
 32 -85 79 -43 101 -18 c 1
 98 39 98 143 39 215 c 0
 22 236 21 246 -10 263 c 1
 -10 263 32 293 42 293 c 0
 53 293 67 289 74 282 c 0
 112 244 146 120 162 43 c 1
 190 66 216 99 229 117 c 0
 241 134 256 167 256 203 c 1
 251 215 230 215 218 220 c 0
 212 226 211 241 216 248 c 1
 231 255 260 276 290 276 c 0
 325 276 325 252 325 238 c 0
EndSplineSet
Validated: 1
EndChar

StartChar: uni0237
Encoding: 567 567 142
Width: 175
GlyphClass: 2
Flags: MW
AnchorPoint: "Above" 98 350 basechar 0
AnchorPoint: "Below" 97 -305 basechar 0
LayerCount: 2
Fore
SplineSet
126 33 m 0
 126 3 129 -46.9990234375 129 -86.9990234375 c 0
 129 -96.1240234375 129.015625 -105.530273438 129.015625 -115.045898438 c 0
 129.015625 -181.655273438 128.25 -253.624023438 116 -271.999023438 c 2
 102 -292.999023438 l 1
 91 -292.999023438 l 1
 86 -279.999023438 73 -213.999023438 73 -158.999023438 c 2
 73 161.000976562 l 2
 73 188.000976562 42 201.000976562 10 215.000976562 c 0
 7.9814453125 215.807617188 7.103515625 218.408203125 7.103515625 221.485351562 c 0
 7.103515625 226.030273438 9.0185546875 231.615234375 12 234 c 0
 39 255 80 293 114 293 c 0
 135.16015625 293 136.005859375 266.76171875 136.005859375 246.989257812 c 0
 136.005859375 209.015625 126 87.849609375 126 33 c 0
EndSplineSet
Validated: 1
EndChar

StartChar: ogonek
Encoding: 731 731 143
Width: 321
GlyphClass: 2
Flags: MW
LayerCount: 2
Fore
SplineSet
205 17 m 0
 207.447265625 17 213.006835938 15.322265625 213.006835938 11.96875 c 0
 213.006835938 8.470703125 206.954101562 3.1474609375 184.999023438 -4.0009765625 c 1
 167.999023438 -26.0009765625 100.999023438 -88.0009765625 34.9990234375 -129.000976562 c 0
 13.9990234375 -142.000976562 -15.0009765625 -153.000976562 -40.0009765625 -153.000976562 c 0
 -61.0009765625 -153.000976562 -87.0009765625 -147.000976562 -87.0009765625 -124.000976562 c 0
 -87.0009765625 -94.0009765625 -52.0009765625 -57.0009765625 -26.0009765625 -43.0009765625 c 0
 7.9990234375 -25.0009765625 32.9990234375 -12.0009765625 83.9990234375 -0.0009765625 c 1
 65.265625 8.5146484375 59.1005859375 14.7744140625 59.1005859375 18.2294921875 c 0
 59.1005859375 20.2421875 61.193359375 21.302734375 64.11328125 21.302734375 c 0
 65.009765625 21.302734375 65.984375 21.203125 67 21 c 0
 99.2744140625 14.1728515625 121.1484375 6.5751953125 147.68359375 6.5751953125 c 0
 163.901367188 6.5751953125 181.860351562 9.4130859375 205 17 c 0
151.999023438 -13.0009765625 m 1
 146.999023438 -14.0009765625 140.999023438 -15.0009765625 133.999023438 -15.0009765625 c 0
 115.999023438 -15.0009765625 114.999023438 -14.0009765625 108.999023438 -12.0009765625 c 0
 54.9990234375 -24.0009765625 39.9990234375 -32.0009765625 2.9990234375 -50.0009765625 c 0
 -19.0009765625 -61.0009765625 -38.0009765625 -87.0009765625 -38.0009765625 -102.000976562 c 0
 -38.0009765625 -117.000976562 -22.0009765625 -123.000976562 -9.0009765625 -123.000976562 c 0
 2.9990234375 -123.000976562 18.9990234375 -115.000976562 32.9990234375 -107.000976562 c 0
 66.9990234375 -87.0009765625 120.999023438 -49.0009765625 151.999023438 -13.0009765625 c 1
EndSplineSet
Validated: 1
EndChar

StartChar: acutecomb
Encoding: 769 769 144
Width: 0
GlyphClass: 4
Flags: MW
AnchorPoint: "LigAbove" 0 330 mark 0
AnchorPoint: "Above" 0 350 mark 0
LayerCount: 2
Fore
SplineSet
182.728515625 529.709960938 m 1
 182.7890625 529.106445312 182.81640625 528.486328125 182.81640625 527.852539062 c 0
 182.81640625 514.852539062 170.5859375 495.853515625 154.51171875 488.178710938 c 1
 131.498046875 488.705078125 114.009765625 500.139648438 94.029296875 500.139648438 c 0
 67.353515625 500.139648438 54.767578125 489.641601562 32.125 467 c 0
 8.125 443 -19.875 404 -53.875 357 c 1
 -57.697265625 361.403320312 l 1
 -40.255859375 394.94140625 -1.875 448 57.775390625 512.75390625 c 0
 81.337890625 538.33203125 99.65625 554.094726562 132.302734375 554.094726562 c 0
 151.44921875 554.094726562 169.1484375 546.817382812 182.728515625 529.709960938 c 1
EndSplineSet
Validated: 1
Substitution2: "Single Substitution lookup 11 subtable" CapAcute
EndChar

StartChar: uni0304
Encoding: 772 772 145
Width: 0
GlyphClass: 4
Flags: MW
AnchorPoint: "LigAbove" 0 330 mark 0
AnchorPoint: "Above" 0 350 mark 0
LayerCount: 2
Fore
SplineSet
156 471 m 0
 156 455 126 412 98 412 c 0
 84 412 81 434 70 434 c 0
 42 434 -73 415 -100 415 c 0
 -123 415 -137 417 -137 435 c 0
 -137 452 -108 489 -84 489 c 0
 -68 489 -71 468 -47 468 c 0
 -8 468 80 489 112 489 c 0
 132 489 156 489 156 471 c 0
EndSplineSet
Validated: 1
Substitution2: "Single Substitution lookup 11 subtable" CapMacron
EndChar

StartChar: dotbelowcomb
Encoding: 803 803 146
Width: 0
GlyphClass: 4
Flags: MW
AnchorPoint: "LibBelow" 0 -30 mark 0
AnchorPoint: "Below" 0 -50 mark 0
LayerCount: 2
Fore
SplineSet
59 -164 m 0
 59 -184 50 -228 20 -228 c 0
 -36 -228 -53 -177 -53 -163 c 0
 -53 -147 -25 -117 0 -117 c 0
 26 -117 59 -144 59 -164 c 0
EndSplineSet
Validated: 1
EndChar

StartChar: uni0328
Encoding: 808 808 147
Width: 0
GlyphClass: 4
Flags: MW
AnchorPoint: "LibBelow" 0 -30 mark 0
AnchorPoint: "Below" 0 -50 mark 0
LayerCount: 2
Fore
SplineSet
62 19 m 0
 64.703125 18.458984375 69.4541015625 15.2861328125 69.4541015625 10.58984375 c 0
 69.4541015625 6.6005859375 66.025390625 1.5107421875 55.0009765625 -4.0009765625 c 1
 38.0009765625 -26.0009765625 -28.9990234375 -88.0009765625 -94.9990234375 -129.000976562 c 0
 -115.999023438 -142.000976562 -144.999023438 -153.000976562 -169.999023438 -153.000976562 c 0
 -190.999023438 -153.000976562 -216.999023438 -147.000976562 -216.999023438 -124.000976562 c 0
 -216.999023438 -94.0009765625 -181.999023438 -57.0009765625 -155.999023438 -43.0009765625 c 0
 -121.999023438 -25.0009765625 -96.9990234375 -12.0009765625 -45.9990234375 -0.0009765625 c 1
 -54.4521484375 7.18359375 -57.5458984375 12.046875 -57.5458984375 15.19140625 c 0
 -57.5458984375 18.794921875 -53.484375 20.142578125 -48.767578125 20.142578125 c 0
 -47.8603515625 20.142578125 -46.9306640625 20.0927734375 -46 20 c 0
 -15.716796875 13.59375 -4.42578125 7.52734375 11.5732421875 7.52734375 c 0
 23.046875 7.52734375 36.94140625 10.6474609375 62 19 c 0
22.001953125 -13.0009765625 m 1
 17.001953125 -14.0009765625 11.001953125 -15.0009765625 4.001953125 -15.0009765625 c 0
 -13.998046875 -15.0009765625 -14.998046875 -14.0009765625 -20.998046875 -12.0009765625 c 0
 -74.998046875 -24.0009765625 -89.998046875 -32.0009765625 -126.998046875 -50.0009765625 c 0
 -148.998046875 -61.0009765625 -167.998046875 -87.0009765625 -167.998046875 -102.000976562 c 0
 -167.998046875 -117.000976562 -151.998046875 -123.000976562 -138.998046875 -123.000976562 c 0
 -126.998046875 -123.000976562 -110.998046875 -115.000976562 -96.998046875 -107.000976562 c 0
 -62.998046875 -87.0009765625 -8.998046875 -49.0009765625 22.001953125 -13.0009765625 c 1
EndSplineSet
Validated: 1
EndChar

StartChar: uni10FB
Encoding: 4347 4347 148
Width: 381
GlyphClass: 2
Flags: MW
LayerCount: 2
Fore
SplineSet
346 158 m 0
 346 138 337 94 307 94 c 0
 251 94 234 145 234 159 c 0
 234 175 262 205 287 205 c 0
 313 205 346 178 346 158 c 0
163 246 m 0
 163 226 154 182 124 182 c 0
 68 182 51 233 51 247 c 0
 51 263 79 293 104 293 c 0
 130 293 163 266 163 246 c 0
163 56 m 0
 163 36 154 -8 124 -8 c 0
 68 -8 51 43 51 57 c 0
 51 73 79 103 104 103 c 0
 130 103 163 76 163 56 c 0
EndSplineSet
Validated: 1
EndChar

StartChar: uni1E8F
Encoding: 7823 7823 149
Width: 330
GlyphClass: 2
Flags: MW
AnchorPoint: "Above" 170 452 basechar 0
AnchorPoint: "Below" 220 -50 basechar 0
LayerCount: 2
Fore
SplineSet
202 387 m 0
 202 366 182 336 164 336 c 0
 144 336 122 348 122 370 c 0
 122 391 160 417 181 417 c 0
 199 417 202 399 202 387 c 0
325 238 m 0
 325 196 274.999023438 114.999023438 221.999023438 51.9990234375 c 0
 164.999023438 -14.0009765625 194.999023438 11.9990234375 66.9990234375 -110.000976562 c 0
 20.9990234375 -155.000976562 -10.0009765625 -193.000976562 -40.0009765625 -268.000976562 c 0
 -43.74609375 -273.885742188 -54.07421875 -278.053710938 -64.0947265625 -278.053710938 c 0
 -72.8037109375 -278.053710938 -81.2802734375 -274.905273438 -85 -267 c 1
 -70 -238 -32 -162 0 -124 c 0
 32 -85 79 -43 101 -18 c 1
 98 39 98 143 39 215 c 0
 22 236 21 246 -10 263 c 1
 -10 263 32 293 42 293 c 0
 53 293 67 289 74 282 c 0
 112 244 146 120 162 43 c 1
 190 66 216 99 229 117 c 0
 241 134 256 167 256 203 c 1
 251 215 230 215 218 220 c 0
 212 226 211 241 216 248 c 1
 231 255 260 276 290 276 c 0
 325 276 325 252 325 238 c 0
EndSplineSet
Validated: 1
Substitution2: "'salt' Stylistic Alternatives lookup 6 subtable" uni1E8F.alt
Substitution2: "'ss10' Style Set 10 lookup 5 subtable" uni1E8F.alt
EndChar

StartChar: uni2010
Encoding: 8208 8208 150
Width: 317
GlyphClass: 2
Flags: MW
LayerCount: 2
Fore
SplineSet
282 223 m 1
 259 222 237 213 208 202 c 0
 134 174 65 142 20 114 c 1
 12 129 l 1
 44 152 118 189 177 213 c 0
 208 226 247 243 268 254 c 1
 282 223 l 1
EndSplineSet
Validated: 1
EndChar

StartChar: uni2011
Encoding: 8209 8209 151
Width: 317
GlyphClass: 2
Flags: MW
LayerCount: 2
Fore
SplineSet
282 223 m 1
 259 222 237 213 208 202 c 0
 134 174 65 142 20 114 c 1
 12 129 l 1
 44 152 118 189 177 213 c 0
 208 226 247 243 268 254 c 1
 282 223 l 1
EndSplineSet
Validated: 1
EndChar

StartChar: endash
Encoding: 8211 8211 152
Width: 500
GlyphClass: 2
Flags: MW
LayerCount: 2
Fore
SplineSet
494 213 m 0
 494 192 459 154 436 154 c 0
 422 154 419 176 408 176 c 0
 380 176 70 157 43 157 c 0
 20 157 6 159 6 177 c 0
 6 198 40 231 59 231 c 0
 75 231 72 210 96 210 c 0
 135 210 418 231 450 231 c 0
 470 231 494 231 494 213 c 0
EndSplineSet
Validated: 1
EndChar

StartChar: emdash
Encoding: 8212 8212 153
Width: 1000
GlyphClass: 2
Flags: MW
LayerCount: 2
Fore
SplineSet
994 213 m 0
 994 193 960 154 936 154 c 0
 922 154 919 176 908 176 c 0
 880 176 70 157 43 157 c 0
 20 157 6 158 6 177 c 0
 6 195 39 231 59 231 c 0
 75 231 72 210 96 210 c 0
 135 210 918 231 950 231 c 0
 970 231 994 231 994 213 c 0
EndSplineSet
Validated: 1
EndChar

StartChar: quoteleft
Encoding: 8216 8216 154
Width: 194
GlyphClass: 2
Flags: MW
LayerCount: 2
Fore
SplineSet
170 577 m 1
 152 557 128.000976562 526 120.000976562 485 c 1
 151.000976562 471 161.000976562 438 161.000976562 427 c 0
 158.000976562 415 123.000976562 385 108.000976562 381 c 1
 82.0009765625 381 49.0009765625 415 49.0009765625 428 c 0
 49.0009765625 486 111.000976562 566 147.000976562 592 c 0
 147.526367188 592.209960938 148.161132812 592.309570312 148.879882812 592.309570312 c 0
 155.017578125 592.309570312 167.315429688 585.0546875 170 577 c 1
EndSplineSet
Validated: 1
EndChar

StartChar: quoteright
Encoding: 8217 8217 155
Width: 194
GlyphClass: 2
Flags: MW
LayerCount: 2
Fore
SplineSet
163 536 m 0
 163 478 101 398 65 372 c 0
 64.4755859375 371.790039062 63.8408203125 371.690429688 63.12109375 371.690429688 c 0
 56.984375 371.690429688 44.685546875 378.9453125 42 387 c 1
 60 407 84 438 92 479 c 1
 61 493 51 526 51 537 c 0
 54 549 89 579 104 583 c 1
 130 583 163 549 163 536 c 0
EndSplineSet
Validated: 1
EndChar

StartChar: quotedblleft
Encoding: 8220 8220 156
Width: 384
GlyphClass: 2
Flags: MW
LayerCount: 2
Fore
SplineSet
340 577 m 1
 322 557 298.000976562 526 290.000976562 485 c 1
 321.000976562 471 331.000976562 438 331.000976562 427 c 0
 328.000976562 415 293.000976562 385 278.000976562 381 c 1
 252.000976562 381 219.000976562 415 219.000976562 428 c 0
 219.000976562 486 281.000976562 566 317.000976562 592 c 0
 317.526367188 592.209960938 318.161132812 592.309570312 318.879882812 592.309570312 c 0
 325.017578125 592.309570312 337.315429688 585.0546875 340 577 c 1
170.000976562 577 m 1
 152.000976562 557 128.001953125 526 120.001953125 485 c 1
 151.001953125 471 161.001953125 438 161.001953125 427 c 0
 158.001953125 415 123.001953125 385 108.001953125 381 c 1
 82.001953125 381 49.001953125 415 49.001953125 428 c 0
 49.001953125 486 111.001953125 566 147.001953125 592 c 0
 147.52734375 592.209960938 148.162109375 592.309570312 148.880859375 592.309570312 c 0
 155.018554688 592.309570312 167.31640625 585.0546875 170.000976562 577 c 1
EndSplineSet
Validated: 1
EndChar

StartChar: quotedblright
Encoding: 8221 8221 157
Width: 384
GlyphClass: 2
Flags: MW
LayerCount: 2
Fore
SplineSet
333 536 m 0
 333 478 270.999023438 398 234.999023438 372 c 0
 234.473632812 371.790039062 233.838867188 371.690429688 233.120117188 371.690429688 c 0
 226.982421875 371.690429688 214.684570312 378.9453125 212 387 c 1
 230 407 254 438 262 479 c 1
 231 493 221 526 221 537 c 0
 224 549 259 579 274 583 c 1
 300 583 333 549 333 536 c 0
162.999023438 536 m 0
 162.999023438 478 100.999023438 398 64.9990234375 372 c 0
 64.474609375 371.790039062 63.83984375 371.690429688 63.1201171875 371.690429688 c 0
 56.9833984375 371.690429688 44.6845703125 378.9453125 41.9990234375 387 c 1
 59.9990234375 407 83.9990234375 438 91.9990234375 479 c 1
 60.9990234375 493 50.9990234375 526 50.9990234375 537 c 0
 53.9990234375 549 88.9990234375 579 103.999023438 583 c 1
 129.999023438 583 162.999023438 549 162.999023438 536 c 0
EndSplineSet
Validated: 1
EndChar

StartChar: uni204A
Encoding: 8266 8266 158
Width: 340
GlyphClass: 2
Flags: MW
AnchorPoint: "Above" 188 350 basechar 0
AnchorPoint: "Below" 86 -50 basechar 0
LayerCount: 2
Fore
SplineSet
311 12 m 0
 311.090820312 -4.181640625 311.131835938 -18.802734375 311.131835938 -32.0478515625 c 0
 311.131835938 -164.504882812 307 -159.545898438 307 -205.000976562 c 0
 307 -240.000976562 296 -280.000976562 252 -280.000976562 c 1
 252 -248.000976562 252.111328125 -216.22265625 252.111328125 -184.778320312 c 0
 252.111328125 -121.889648438 251.666992188 -60.333984375 249 -1.0009765625 c 0
 246 72.9990234375 243 142.999023438 237 204.999023438 c 1
 203.328125 202.813476562 167.362304688 201.009765625 133.282226562 201.009765625 c 0
 89.4287109375 201.009765625 48.6982421875 203.997070312 20 213 c 0
 15.3916015625 215.6328125 12.5166015625 223.899414062 12.5166015625 230.66796875 c 0
 12.5166015625 234.180664062 13.291015625 237.291015625 14.9990234375 238.999023438 c 0
 124.999023438 249.999023438 245.999023438 283.999023438 283.999023438 283.999023438 c 0
 303.321289062 283.999023438 308.4296875 277.114257812 308.4296875 266.06640625 c 0
 308.4296875 253.670898438 302 236.034179688 302 217 c 0
 302 129 311 63 311 12 c 0
EndSplineSet
Validated: 1
EndChar

StartChar: uniA765
Encoding: 42853 42853 159
Width: 276
GlyphClass: 3
Flags: MW
AnchorPoint: "Above" 124 692 basechar 0
AnchorPoint: "Below" 186 -50 basechar 0
LayerCount: 2
Fore
SplineSet
301 480 m 1
 297 452 294.000976562 433.998046875 282.000976562 415.998046875 c 0
 278.178710938 413.450195312 269.489257812 410.497070312 259.290039062 410.497070312 c 0
 253.475585938 410.497070312 247.171875 411.45703125 241 413.998046875 c 1
 238 426.998046875 l 1
 209 421.998046875 171 413.998046875 131 403.998046875 c 1
 130 351.998046875 126 296.998046875 119 248.998046875 c 1
 134 256.998046875 161 283.998046875 200 283.998046875 c 0
 242.4609375 283.998046875 252.014648438 252.465820312 252.014648438 213.743164062 c 0
 252.014648438 171.485351562 202.979492188 47.3388671875 101.999023438 -18.0009765625 c 1
 96.5791015625 -78.1650390625 95.859375 -118.939453125 95.859375 -145.737304688 c 0
 95.859375 -155.426757812 95.953125 -163.2890625 95.953125 -169.580078125 c 0
 95.953125 -177.9921875 95.78515625 -183.594726562 94.9990234375 -187.000976562 c 0
 82.9990234375 -231.000976562 79.9990234375 -251.000976562 59.9990234375 -284.000976562 c 0
 58.353515625 -286.1953125 52.7958984375 -287.788085938 47.2880859375 -287.788085938 c 0
 42.755859375 -287.788085938 38.2568359375 -286.708984375 36 -284.000976562 c 0
 36 -188.000976562 34.7197265625 -78.560546875 34.7197265625 -1.7607421875 c 0
 34.7197265625 17.439453125 34.7998046875 34.599609375 35 49 c 0
 37 122 52 244 55 290 c 0
 56 306 59 344 61 385 c 1
 8 371 -39 355 -64 345 c 0
 -67.728515625 343.369140625 -70.9140625 342.661132812 -73.796875 342.661132812 c 0
 -83.28515625 342.661132812 -89.4951171875 350.330078125 -101 358 c 1
 -100 381 -64 411 -49 412 c 1
 -40 408 -32 404 -26 395 c 1
 -10 401 32 414 62 421 c 1
 64 458 65 493 65 519 c 0
 65 557 -10 581 -20 588 c 0
 -23 594 -22 604 -18 609 c 0
 6 625 49 661 78 661 c 0
 116 661 131 634 131 622 c 0
 131 607.75 132.688476562 562 132.688476562 503.3125 c 0
 132.688476562 483.75 132.5 462.75 132 441 c 1
 194 458 259 474 301 480 c 1
179.000976562 158.998046875 m 0
 179.000976562 174.998046875 169 219.998046875 143 219.998046875 c 2
 115 219.998046875 l 1
 111.5234375 187.833984375 101.245117188 97.4853515625 101.245117188 44.1982421875 c 0
 101.245117188 36.185546875 101.477539062 29.0107421875 102.000976562 22.998046875 c 1
 132.000976562 47.998046875 179.000976562 114.998046875 179.000976562 158.998046875 c 0
EndSplineSet
Validated: 1
EndChar

StartChar: uniA783
Encoding: 42883 42883 160
Width: 328
GlyphClass: 2
Flags: HMW
AnchorPoint: "Above" 170 350 basechar 0
AnchorPoint: "Below" 217 -50 basechar 0
LayerCount: 2
Fore
SplineSet
347 66 m 1
 334 38 310.000976562 -11 257.000976562 -11 c 0
 217.000976562 -11 198.000976562 23 198.000976562 69 c 0
 198.000976562 108 215.000976562 136 215.000976562 183 c 0
 215.000976562 189 200.000976562 197 184.000976562 197 c 0
 153.000976562 197 116.000976562 133 116.000976562 113 c 0
 116.000976562 106 117.000976562 56 117.000976562 18 c 0
 117.000976562 -39 107.000976562 -211 105.000976562 -224 c 0
 97.0009765625 -269 81.0009765625 -293 71.0009765625 -293 c 0
 55.0009765625 -293 49.0009765625 -276 49.0009765625 -267 c 0
 49.0009765625 -193 59.0009765625 -44 59.0009765625 54 c 0
 59.0009765625 108 58.0009765625 125 54.0009765625 145 c 0
 48.0009765625 177 39.0009765625 222 4.0009765625 222 c 0
 0.8642578125 223.045898438 -0.6328125 227.096679688 -0.6328125 231.297851562 c 0
 -0.6328125 235.1328125 0.6142578125 239.090820312 3 241 c 0
 21 256 64 286 79 286 c 0
 88 286 109 280 109 253 c 2
 109 196 l 1
 166 215 182 253 196 263 c 0
 221 282 245 287 255 287 c 0
 270 287 282 278 282 248 c 0
 282 178 264 136 264 88 c 0
 264 71 274 57 290 57 c 0
 313 57 329 69 342 78 c 1
 347 66 l 1
EndSplineSet
EndChar

StartChar: uniA785
Encoding: 42885 42885 161
Width: 270
GlyphClass: 2
Flags: HMW
AnchorPoint: "Above" 149 350 basechar 0
AnchorPoint: "Below" 209 -50 basechar 0
LayerCount: 2
Fore
SplineSet
263 256 m 0
 263 236 243 205 227 204 c 1
 199 213 196 233 169 233 c 0
 147 233 131.215935665 220.06293848 130 200 c 0
 120 35 120 -60 120 -225 c 0
 120 -249.083189158 103 -259 83 -275 c 1
 75 -275 l 1
 71 -212 64 37 64 127 c 0
 64 144 49 194 -5 205 c 0
 -6.5 207 -7.25 209.25 -7.25 211.25 c 0
 -7.25 213.25 -6.5 215 -5 216 c 0
 7 226 66 269 100 269 c 0
 111 269 114 267 120 251 c 1
 147 277 189 299 211 299 c 0
 242 299 261 269 263 256 c 0
EndSplineSet
EndChar

StartChar: uniA787
Encoding: 42887 42887 162
Width: 394
GlyphClass: 2
Flags: MW
AnchorPoint: "Above" 207 350 basechar 0
AnchorPoint: "Below" 184 -50 basechar 0
LayerCount: 2
Fore
SplineSet
400 254 m 0
 363 229 255 212 197 212 c 1
 169 200 137 162 137 130 c 0
 137 82 169 49 211 49 c 0
 260 49 317 62 337 71 c 0
 339 70 341 63 337 58 c 0
 301 26 256 -22 175 -22 c 0
 114 -22 64 25 64 66 c 0
 64 134 114 193 150 214 c 1
 111 215 33 232 4 243 c 0
 1.640625 246.669921875 0.5869140625 251.234375 0.5869140625 256.04296875 c 0
 0.5869140625 269.576171875 8.9326171875 285.048828125 20 288 c 1
 49 280 119 268 181 268 c 0
 237 268 365 271 400 275 c 0
 403.366210938 274.038085938 404.881835938 270.99609375 404.881835938 267.206054688 c 0
 404.881835938 263.115234375 403.115234375 258.153320312 400 254 c 0
EndSplineSet
Validated: 1
EndChar

StartChar: uniF149
Encoding: 61769 61769 163
Width: 276
GlyphClass: 2
Flags: MW
LayerCount: 2
Fore
SplineSet
301 480 m 1
 297 452 294.000976562 433.998046875 282.000976562 415.998046875 c 0
 278.178710938 413.450195312 269.489257812 410.497070312 259.290039062 410.497070312 c 0
 253.475585938 410.497070312 247.171875 411.45703125 241 413.998046875 c 1
 238 426.998046875 l 1
 209 421.998046875 171 413.998046875 131 403.998046875 c 1
 130 351.998046875 126 296.998046875 119 248.998046875 c 1
 134 256.998046875 161 283.998046875 200 283.998046875 c 0
 242.4609375 283.998046875 252.014648438 252.465820312 252.014648438 213.743164062 c 0
 252.014648438 171.485351562 202.979492188 47.3388671875 101.999023438 -18.0009765625 c 1
 96.5791015625 -78.1650390625 95.859375 -118.939453125 95.859375 -145.737304688 c 0
 95.859375 -155.426757812 95.953125 -163.2890625 95.953125 -169.580078125 c 0
 95.953125 -177.9921875 95.78515625 -183.594726562 94.9990234375 -187.000976562 c 0
 82.9990234375 -231.000976562 79.9990234375 -251.000976562 59.9990234375 -284.000976562 c 0
 58.353515625 -286.1953125 52.7958984375 -287.788085938 47.2880859375 -287.788085938 c 0
 42.755859375 -287.788085938 38.2568359375 -286.708984375 36 -284.000976562 c 0
 36 -188.000976562 34.7197265625 -78.560546875 34.7197265625 -1.7607421875 c 0
 34.7197265625 17.439453125 34.7998046875 34.599609375 35 49 c 0
 37 122 52 244 55 290 c 0
 56 306 59 344 61 385 c 1
 8 371 -39 355 -64 345 c 0
 -67.728515625 343.369140625 -70.9140625 342.661132812 -73.796875 342.661132812 c 0
 -83.28515625 342.661132812 -89.4951171875 350.330078125 -101 358 c 1
 -100 381 -64 411 -49 412 c 1
 -40 408 -32 404 -26 395 c 1
 -10 401 32 414 62 421 c 1
 64 458 65 493 65 519 c 0
 65 557 -10 581 -20 588 c 0
 -23 594 -22 604 -18 609 c 0
 6 625 49 661 78 661 c 0
 116 661 131 634 131 622 c 0
 131 607.75 132.688476562 562 132.688476562 503.3125 c 0
 132.688476562 483.75 132.5 462.75 132 441 c 1
 194 458 259 474 301 480 c 1
179.000976562 158.998046875 m 0
 179.000976562 174.998046875 169 219.998046875 143 219.998046875 c 2
 115 219.998046875 l 1
 111.5234375 187.833984375 101.245117188 97.4853515625 101.245117188 44.1982421875 c 0
 101.245117188 36.185546875 101.477539062 29.0107421875 102.000976562 22.998046875 c 1
 132.000976562 47.998046875 179.000976562 114.998046875 179.000976562 158.998046875 c 0
EndSplineSet
Validated: 1
EndChar

StartChar: uniF160
Encoding: 61792 61792 164
Width: 527
GlyphClass: 2
Flags: MW
LayerCount: 2
Fore
SplineSet
538 328 m 0
 500 269 426.001953125 241.999023438 385.001953125 241.999023438 c 0
 339.001953125 241.999023438 294.001953125 260.999023438 262.001953125 310.999023438 c 0
 240.001953125 346.999023438 202.001953125 375.999023438 163.001953125 375.999023438 c 0
 143.001953125 375.999023438 129.001953125 351.999023438 129.001953125 326.999023438 c 0
 129.001953125 293.999023438 145.001953125 258.999023438 171.001953125 233.999023438 c 0
 171.561523438 231.759765625 171.826171875 229.450195312 171.826171875 227.098632812 c 0
 171.826171875 202.09765625 141.803710938 172.381835938 116.190429688 172.381835938 c 0
 114.090820312 172.381835938 112.021484375 172.58203125 110.000976562 173 c 0
 84.0009765625 200 70.0009765625 234 70.0009765625 268 c 0
 70.0009765625 298 80.0009765625 325 104.000976562 349 c 2
 164.000976562 409 l 2
 182.000976562 427 202.000976562 436 222.000976562 436 c 0
 261.000976562 436 300.000976562 407 322.000976562 372 c 0
 348.000976562 332 368.000976562 304 414.000976562 304 c 0
 455.000976562 304 482.000976562 314 517.000976562 334 c 0
 526.201171875 339.327148438 534.463867188 343.01171875 539.0625 343.01171875 c 0
 541.478515625 343.01171875 542.884765625 341.995117188 542.884765625 339.666015625 c 0
 542.884765625 337.272460938 541.399414062 333.490234375 538 328 c 0
163.001953125 55.9990234375 m 0
 163.001953125 35.9990234375 154.001953125 -8.0009765625 124.001953125 -8.0009765625 c 0
 68.001953125 -8.0009765625 51.001953125 42.9990234375 51.001953125 56.9990234375 c 0
 51.001953125 72.9990234375 79.001953125 102.999023438 104.001953125 102.999023438 c 0
 130.001953125 102.999023438 163.001953125 75.9990234375 163.001953125 55.9990234375 c 0
EndSplineSet
Validated: 1
EndChar

StartChar: uniF161
Encoding: 61793 61793 165
Width: 336
GlyphClass: 2
Flags: MW
LayerCount: 2
Fore
SplineSet
373 410 m 0
 360 382 329 331 294 294 c 0
 244 241 177 182 124 182 c 0
 68 182 51 233 51 247 c 0
 51 263 79 293 104 293 c 0
 130 293 163 266 163 246 c 0
 163 242 163 241 162 237 c 1
 216 262 243 279 279 316 c 0
 302 340 341 381 361 414 c 0
 362.133789062 414.849609375 363.588867188 415.21875 365.092773438 415.21875 c 0
 368.892578125 415.21875 373 412.866210938 373 410 c 0
163 56 m 0
 163 36 154 -8 124 -8 c 0
 68 -8 51 43 51 57 c 0
 51 73 79 103 104 103 c 0
 130 103 163 76 163 56 c 0
EndSplineSet
Validated: 1
EndChar

StartChar: uniF162
Encoding: 61794 61794 166
Width: 381
GlyphClass: 2
Flags: MW
LayerCount: 2
Fore
SplineSet
346 158 m 0
 346 138 337 94 307 94 c 0
 251 94 234 145 234 159 c 0
 234 175 262 205 287 205 c 0
 313 205 346 178 346 158 c 0
163 246 m 0
 163 226 154 182 124 182 c 0
 68 182 51 233 51 247 c 0
 51 263 79 293 104 293 c 0
 130 293 163 266 163 246 c 0
163 56 m 0
 163 36 154 -8 124 -8 c 0
 68 -8 51 43 51 57 c 0
 51 73 79 103 104 103 c 0
 130 103 163 76 163 56 c 0
EndSplineSet
Validated: 1
EndChar

StartChar: longs_longs
Encoding: 65538 -1 167
Width: 424
GlyphClass: 3
LigCaretCntFixed: 1
Flags: MW
AnchorPoint: "LigAbove" 180 575 baselig 0
AnchorPoint: "LibBelow" 126 -230 baselig 0
AnchorPoint: "LigAbove" 400 575 baselig 1
AnchorPoint: "LibBelow" 334 -230 baselig 1
LayerCount: 2
Fore
SplineSet
574 481 m 0
 574 453.591796875 548.12890625 408.9375 520.772460938 408.9375 c 0
 520.181640625 408.9375 519.590820312 408.958984375 518.999023438 409.000976562 c 0
 494.999023438 427.000976562 481.999023438 450.000976562 449.999023438 450.000976562 c 0
 412.999023438 450.000976562 327.999023438 375.000976562 327.999023438 332.000976562 c 0
 327.999023438 221.000976562 337.999023438 211.000976562 352.999023438 98.0009765625 c 0
 362.999023438 27.0009765625 369.999023438 -52.9990234375 383.999023438 -117.999023438 c 0
 385.038085938 -122.416015625 385.521484375 -126.916992188 385.521484375 -131.40625 c 0
 385.521484375 -161.473632812 363.881835938 -191 343 -191 c 0
 324 -191 312 -180 312 -180 c 1
 312 -137 299 -64 299 7 c 0
 299 59 253 100 236 128 c 0
 233.428710938 131.857421875 232.693359375 136.44921875 232.693359375 141.146484375 c 0
 232.693359375 147.408203125 233.999023438 153.857421875 233.999023438 159 c 0
 233.999023438 185 262.999023438 151 262.999023438 220 c 0
 262.999023438 265 267.999023438 306 281.999023438 342 c 0
 286.999023438 354 297.999023438 370 310.999023438 388 c 1
 310.999023438 388 277.999023438 430 239.999023438 430 c 0
 202.999023438 430 117.999023438 355 117.999023438 312 c 0
 117.999023438 201 127.999023438 191 142.999023438 78 c 0
 152.999023438 7 159.999023438 -73 173.999023438 -138 c 0
 175.038085938 -142.416992188 175.521484375 -146.91796875 175.521484375 -151.407226562 c 0
 175.521484375 -181.474609375 153.881835938 -211.000976562 133 -211.000976562 c 0
 114 -211.000976562 102 -200.000976562 102 -200.000976562 c 1
 102 -157.000976562 89 -84.0009765625 89 -13.0009765625 c 0
 89 38.9990234375 43 79.9990234375 26 107.999023438 c 0
 23.4287109375 111.856445312 22.6943359375 116.448242188 22.6943359375 121.145507812 c 0
 22.6943359375 127.407226562 24 133.856445312 24 138.999023438 c 0
 24 164.999023438 53 130.999023438 53 199.999023438 c 0
 53 244.999023438 57 285.999023438 72 321.999023438 c 0
 90 364.999023438 173 457.999023438 194 473.999023438 c 0
 236.631835938 508.104492188 255.030273438 509.002929688 297.662109375 509.002929688 c 2
 305 509 l 2
 334 509 365 484 371 461 c 1
 383 474 397 489 404 494 c 0
 446.631835938 528.104492188 465.030273438 529.002929688 507.662109375 529.002929688 c 2
 515 529 l 2
 550 529 574 499 574 481 c 0
EndSplineSet
Validated: 1
Ligature2: "'liga' Standard Ligatures lookup 8 subtable" longs longs
LCarets2: 1 216
EndChar

StartChar: longs_l
Encoding: 65539 -1 168
Width: 475
GlyphClass: 3
LigCaretCntFixed: 1
Flags: MW
AnchorPoint: "LigAbove" 194 700 baselig 0
AnchorPoint: "LibBelow" 144 -230 baselig 0
AnchorPoint: "LigAbove" 391 700 baselig 1
AnchorPoint: "LibBelow" 330 -30 baselig 1
LayerCount: 2
Fore
SplineSet
499 78 m 0
 450 7 371.000976562 -12 318.000976562 -12 c 0
 288.000976562 -12 256.000976562 12 256.000976562 61 c 0
 256.000976562 75 277.000976562 198 292.000976562 317 c 0
 303.000976562 405 308.000976562 453 308.000976562 529 c 0
 308.000976562 558 263.000976562 612 226.000976562 612 c 0
 221.344726562 614.328125 218.720703125 621.059570312 218.720703125 627.857421875 c 0
 218.720703125 632.739257812 220.07421875 637.65625 223 641 c 0
 249 659 319 700 346 700 c 0
 376 700 376 631 376 591 c 0
 376 421 331 232 331 142 c 0
 331 76 358 57 393 57 c 0
 425 57 472 71 492 92 c 0
 497 92 500 82 499 78 c 0
301.000976562 470 m 0
 301.000976562 448.336914062 271.725585938 397.3984375 249.939453125 397.3984375 c 0
 248.595703125 397.3984375 247.279296875 397.592773438 246 398 c 0
 222 416 209 439 177 439 c 0
 140 439 104 367 104 324 c 0
 104 213 111 203 134 92 c 0
 149 21 163 -58 183 -122 c 0
 184.703125 -127.620117188 185.478515625 -133.530273438 185.478515625 -139.46875 c 0
 185.478515625 -168.399414062 167.083984375 -198 148.000976562 -198 c 0
 129.000976562 -198 115.000976562 -189 115.000976562 -189 c 1
 112.000976562 -147 92.0009765625 -61 82.0009765625 11 c 0
 75.0009765625 63 38.0009765625 86 18.0009765625 113 c 0
 15.0009765625 117.5 14.2509765625 123 14.2509765625 128.5 c 0
 14.2509765625 134 15.0009765625 139.5 15.0009765625 144 c 0
 20.0009765625 172 38.0009765625 134 38.0009765625 207 c 0
 38.0009765625 255 47.0009765625 298 58.0009765625 334 c 0
 72.0009765625 381 110.000976562 467 131.000976562 483 c 0
 173.6328125 517.104492188 192.03125 518.002929688 234.663085938 518.002929688 c 2
 242.000976562 518 l 2
 276.000976562 518 301.000976562 489 301.000976562 470 c 0
EndSplineSet
Validated: 1
Ligature2: "'liga' Standard Ligatures lookup 8 subtable" longs l
LCarets2: 1 220
EndChar

